%FSLAX25Y25*%
%MOIN*%
G70*
G01*
G75*
%ADD10C,0.01200*%
%ADD11C,0.02500*%
%ADD12C,0.05800*%
%ADD13R,0.05600X0.05600*%
%ADD14C,0.07087*%
%ADD15C,0.04724*%
%ADD16C,0.07874*%
%ADD17R,0.07874X0.07874*%
%ADD18C,0.05512*%
%ADD19R,0.09843X0.07087*%
%ADD20O,0.09843X0.07087*%
%ADD21C,0.07087*%
%ADD22R,0.05906X0.05906*%
%ADD23C,0.05906*%
%ADD24R,0.07874X0.07874*%
%ADD25R,0.04724X0.04724*%
%ADD26C,0.08200*%
%ADD27R,0.05906X0.05906*%
%ADD28R,0.09843X0.07874*%
%ADD29O,0.09843X0.07874*%
%ADD30C,0.05000*%
%ADD31C,0.06000*%
%ADD32C,0.01000*%
%ADD33C,0.00787*%
%ADD34C,0.00600*%
%ADD35C,0.00300*%
%ADD36C,0.00591*%
%ADD37C,0.06600*%
%ADD38R,0.06400X0.06400*%
%ADD39C,0.07887*%
%ADD40C,0.05524*%
%ADD41C,0.08674*%
%ADD42R,0.08674X0.08674*%
%ADD43C,0.06312*%
%ADD44R,0.10642X0.07887*%
%ADD45O,0.10642X0.07887*%
%ADD46C,0.07887*%
%ADD47R,0.06706X0.06706*%
%ADD48C,0.06706*%
%ADD49R,0.08674X0.08674*%
%ADD50R,0.05524X0.05524*%
%ADD51C,0.09000*%
%ADD52R,0.06706X0.06706*%
%ADD53R,0.10642X0.08674*%
%ADD54O,0.10642X0.08674*%
%ADD55C,0.06800*%
%ADD56C,0.00800*%
%ADD57C,0.00667*%
D35*
X35600Y160000D02*
X38400D01*
X37000Y158600D02*
Y161400D01*
X25600Y160000D02*
X28400D01*
X27000Y158600D02*
Y161400D01*
X47024Y118945D02*
X50961D01*
X48992Y116976D02*
Y120914D01*
X47024Y137055D02*
X50961D01*
X48992Y135087D02*
Y139024D01*
X21039Y118945D02*
X24976D01*
X23008Y116976D02*
Y120914D01*
X21039Y137055D02*
X24976D01*
X23008Y135087D02*
Y139024D01*
X66622Y136000D02*
X69378D01*
X68000Y134622D02*
Y137378D01*
X66622Y116000D02*
X69378D01*
X68000Y114622D02*
Y117378D01*
X90228Y38000D02*
X93772D01*
X92000Y36228D02*
Y39772D01*
X90228Y108000D02*
X93772D01*
X92000Y106228D02*
Y109772D01*
X90228Y98000D02*
X93772D01*
X92000Y96228D02*
Y99772D01*
X90228Y88000D02*
X93772D01*
X92000Y86228D02*
Y89772D01*
X90228Y78000D02*
X93772D01*
X92000Y76228D02*
Y79772D01*
X90228Y68000D02*
X93772D01*
X92000Y66228D02*
Y69772D01*
X90228Y58000D02*
X93772D01*
X92000Y56228D02*
Y59772D01*
X90228Y48000D02*
X93772D01*
X92000Y46228D02*
Y49772D01*
X90228Y28000D02*
X93772D01*
X92000Y26228D02*
Y29772D01*
X62327Y94000D02*
X65673D01*
X64000Y92327D02*
Y95673D01*
X62327Y54000D02*
X65673D01*
X64000Y52327D02*
Y55673D01*
X45024Y86945D02*
X48961D01*
X46992Y84977D02*
Y88914D01*
X45024Y105055D02*
X48961D01*
X46992Y103087D02*
Y107024D01*
X19039Y86945D02*
X22976D01*
X21008Y84977D02*
Y88914D01*
X19039Y105055D02*
X22976D01*
X21008Y103087D02*
Y107024D01*
X168819Y20000D02*
X171181D01*
X170000Y18819D02*
Y21181D01*
X168819Y29500D02*
X171181D01*
X170000Y28319D02*
Y30681D01*
X168819Y40000D02*
X171181D01*
X170000Y38819D02*
Y41181D01*
X168819Y50000D02*
X171181D01*
X170000Y48819D02*
Y51181D01*
X168819Y60000D02*
X171181D01*
X170000Y58819D02*
Y61181D01*
X168819Y70000D02*
X171181D01*
X170000Y68819D02*
Y71181D01*
X168819Y80000D02*
X171181D01*
X170000Y78819D02*
Y81181D01*
X168819Y90000D02*
X171181D01*
X170000Y88819D02*
Y91181D01*
X168819Y100000D02*
X171181D01*
X170000Y98819D02*
Y101181D01*
X168819Y110000D02*
X171181D01*
X170000Y108819D02*
Y111181D01*
X168819Y120000D02*
X171181D01*
X170000Y118819D02*
Y121181D01*
X168819Y130000D02*
X171181D01*
X170000Y128819D02*
Y131181D01*
X168819Y140000D02*
X171181D01*
X170000Y138819D02*
Y141181D01*
X168819Y150000D02*
X171181D01*
X170000Y148819D02*
Y151181D01*
X168819Y160000D02*
X171181D01*
X170000Y158819D02*
Y161181D01*
X168819Y170000D02*
X171181D01*
X170000Y168819D02*
Y171181D01*
X168819Y180000D02*
X171181D01*
X170000Y178819D02*
Y181181D01*
X168819Y190000D02*
X171181D01*
X170000Y188819D02*
Y191181D01*
X168819Y200000D02*
X171181D01*
X170000Y198819D02*
Y201181D01*
X168819Y210000D02*
X171181D01*
X170000Y208819D02*
Y211181D01*
X108819Y20000D02*
X111181D01*
X110000Y18819D02*
Y21181D01*
X108819Y30000D02*
X111181D01*
X110000Y28819D02*
Y31181D01*
X108819Y40000D02*
X111181D01*
X110000Y38819D02*
Y41181D01*
X108819Y50000D02*
X111181D01*
X110000Y48819D02*
Y51181D01*
X108819Y60000D02*
X111181D01*
X110000Y58819D02*
Y61181D01*
X108819Y70000D02*
X111181D01*
X110000Y68819D02*
Y71181D01*
X108819Y80000D02*
X111181D01*
X110000Y78819D02*
Y81181D01*
X108819Y90000D02*
X111181D01*
X110000Y88819D02*
Y91181D01*
X108819Y100000D02*
X111181D01*
X110000Y98819D02*
Y101181D01*
X108819Y110000D02*
X111181D01*
X110000Y108819D02*
Y111181D01*
X108819Y120000D02*
X111181D01*
X110000Y118819D02*
Y121181D01*
X108819Y130000D02*
X111181D01*
X110000Y128819D02*
Y131181D01*
X108819Y140000D02*
X111181D01*
X110000Y138819D02*
Y141181D01*
X108819Y150000D02*
X111181D01*
X110000Y148819D02*
Y151181D01*
X108819Y160500D02*
X111181D01*
X110000Y159319D02*
Y161681D01*
X108819Y170000D02*
X111181D01*
X110000Y168819D02*
Y171181D01*
X108819Y180000D02*
X111181D01*
X110000Y178819D02*
Y181181D01*
X108819Y190000D02*
X111181D01*
X110000Y188819D02*
Y191181D01*
X108819Y200000D02*
X111181D01*
X110000Y198819D02*
Y201181D01*
X108819Y210000D02*
X111181D01*
X110000Y208819D02*
Y211181D01*
X154500Y220000D02*
X157500D01*
X156000Y218500D02*
Y221500D01*
X124500Y220000D02*
X127500D01*
X126000Y218500D02*
Y221500D01*
X136228Y236000D02*
X139772D01*
X138000Y234228D02*
Y237772D01*
X136228Y246000D02*
X139772D01*
X138000Y244228D02*
Y247772D01*
X136228Y256000D02*
X139772D01*
X138000Y254228D02*
Y257772D01*
X136228Y266000D02*
X139772D01*
X138000Y264228D02*
Y267772D01*
X166622Y-6000D02*
X169378D01*
X168000Y-7378D02*
Y-4622D01*
X166622Y-26000D02*
X169378D01*
X168000Y-27378D02*
Y-24622D01*
X136335Y-8000D02*
X139091D01*
X137713Y-9378D02*
Y-6622D01*
X117122Y-8000D02*
X119878D01*
X118500Y-9378D02*
Y-6622D01*
X45024Y54945D02*
X48961D01*
X46992Y52977D02*
Y56914D01*
X45024Y73055D02*
X48961D01*
X46992Y71087D02*
Y75024D01*
X19039Y54945D02*
X22976D01*
X21008Y52977D02*
Y56914D01*
X19039Y73055D02*
X22976D01*
X21008Y71087D02*
Y75024D01*
X148386Y-26000D02*
X152717D01*
X150551Y-28165D02*
Y-23835D01*
X107835Y-26000D02*
X112165D01*
X110000Y-28165D02*
Y-23835D01*
X224500Y-6000D02*
X227500D01*
X226000Y-7500D02*
Y-4500D01*
X254500Y-6000D02*
X257500D01*
X256000Y-7500D02*
Y-4500D01*
X337622Y94000D02*
X340378D01*
X339000Y92622D02*
Y95378D01*
X307622Y94000D02*
X310378D01*
X309000Y92622D02*
Y95378D01*
X339622Y230000D02*
X342378D01*
X341000Y228622D02*
Y231378D01*
X309622Y230000D02*
X312378D01*
X311000Y228622D02*
Y231378D01*
X332900Y203083D02*
X337100D01*
X335000Y200983D02*
Y205183D01*
X332983Y84917D02*
X337183D01*
X335083Y82817D02*
Y87017D01*
X214817Y104667D02*
X219017D01*
X216917Y102567D02*
Y106767D01*
X214817Y183333D02*
X219017D01*
X216917Y181233D02*
Y185433D01*
X170031Y252000D02*
X173969D01*
X172000Y250031D02*
Y253969D01*
X160031Y252000D02*
X163969D01*
X162000Y250031D02*
Y253969D01*
X150031Y252000D02*
X153969D01*
X152000Y250031D02*
Y253969D01*
X322622Y270000D02*
X325378D01*
X324000Y268622D02*
Y271378D01*
X342622Y270000D02*
X345378D01*
X344000Y268622D02*
Y271378D01*
X337622Y164000D02*
X340378D01*
X339000Y162622D02*
Y165378D01*
X307622Y164000D02*
X310378D01*
X309000Y162622D02*
Y165378D01*
X194622Y-26000D02*
X197378D01*
X196000Y-27378D02*
Y-24622D01*
X194622Y-6000D02*
X197378D01*
X196000Y-7378D02*
Y-4622D01*
X92032Y260000D02*
X95969D01*
X94000Y258032D02*
Y261968D01*
X102032Y260000D02*
X105968D01*
X104000Y258032D02*
Y261968D01*
X112031Y260000D02*
X115969D01*
X114000Y258032D02*
Y261968D01*
X88622Y162000D02*
X91378D01*
X90000Y160622D02*
Y163378D01*
X88622Y142000D02*
X91378D01*
X90000Y140622D02*
Y143378D01*
X200228Y266000D02*
X203772D01*
X202000Y264228D02*
Y267772D01*
X190228Y266000D02*
X193772D01*
X192000Y264228D02*
Y267772D01*
X73600Y184000D02*
X76400D01*
X75000Y182600D02*
Y185400D01*
X63600Y184000D02*
X66400D01*
X65000Y182600D02*
Y185400D01*
X71600Y224000D02*
X74400D01*
X73000Y222600D02*
Y225400D01*
X61600Y224000D02*
X64400D01*
X63000Y222600D02*
Y225400D01*
X39600Y262000D02*
X42400D01*
X41000Y260600D02*
Y263400D01*
X29600Y262000D02*
X32400D01*
X31000Y260600D02*
Y263400D01*
X69600Y260000D02*
X72400D01*
X71000Y258600D02*
Y261400D01*
X59600Y260000D02*
X62400D01*
X61000Y258600D02*
Y261400D01*
X235600Y264000D02*
X238400D01*
X237000Y262600D02*
Y265400D01*
X225600Y264000D02*
X228400D01*
X227000Y262600D02*
Y265400D01*
X35600Y192000D02*
X38400D01*
X37000Y190600D02*
Y193400D01*
X25600Y192000D02*
X28400D01*
X27000Y190600D02*
Y193400D01*
X35600Y224000D02*
X38400D01*
X37000Y222600D02*
Y225400D01*
X25600Y224000D02*
X28400D01*
X27000Y222600D02*
Y225400D01*
X45024Y16945D02*
X48961D01*
X46992Y14976D02*
Y18914D01*
X45024Y35055D02*
X48961D01*
X46992Y33087D02*
Y37024D01*
X19039Y16945D02*
X22976D01*
X21008Y14976D02*
Y18914D01*
X19039Y35055D02*
X22976D01*
X21008Y33087D02*
Y37024D01*
X45024Y-19055D02*
X48961D01*
X46992Y-21023D02*
Y-17086D01*
X45024Y-945D02*
X48961D01*
X46992Y-2913D02*
Y1024D01*
X19039Y-19055D02*
X22976D01*
X21008Y-21023D02*
Y-17086D01*
X19039Y-945D02*
X22976D01*
X21008Y-2913D02*
Y1024D01*
X360032Y14000D02*
X363968D01*
X362000Y12032D02*
Y15969D01*
X280031Y14000D02*
X283968D01*
X282000Y12032D02*
Y15969D01*
X62819Y8000D02*
X65181D01*
X64000Y6819D02*
Y9181D01*
X62819Y-1843D02*
X65181D01*
X64000Y-3024D02*
Y-661D01*
X62819Y-11685D02*
X65181D01*
X64000Y-12866D02*
Y-10504D01*
X62819Y-21528D02*
X65181D01*
X64000Y-22709D02*
Y-20346D01*
X92347Y8000D02*
X94709D01*
X93528Y6819D02*
Y9181D01*
X92347Y-1843D02*
X94709D01*
X93528Y-3024D02*
Y-661D01*
X92347Y-11685D02*
X94709D01*
X93528Y-12866D02*
Y-10504D01*
X92347Y-21528D02*
X94709D01*
X93528Y-22709D02*
Y-20346D01*
X58500Y34000D02*
X61500D01*
X60000Y32500D02*
Y35500D01*
X68500Y34000D02*
X71500D01*
X70000Y32500D02*
Y35500D01*
X122300Y229100D02*
X125100D01*
X123700Y227700D02*
Y230500D01*
X235600Y84900D02*
X238400D01*
X237000Y83500D02*
Y86300D01*
X100500Y148400D02*
X103300D01*
X101900Y147000D02*
Y149800D01*
X38600Y61800D02*
X41400D01*
X40000Y60400D02*
Y63200D01*
X60400Y171900D02*
X63200D01*
X61800Y170500D02*
Y173300D01*
X21800Y198100D02*
X24600D01*
X23200Y196700D02*
Y199500D01*
X329100Y215100D02*
X331900D01*
X330500Y213700D02*
Y216500D01*
X128200Y250500D02*
X131000D01*
X129600Y249100D02*
Y251900D01*
X25700Y131000D02*
X28500D01*
X27100Y129600D02*
Y132400D01*
X163000Y5000D02*
X165800D01*
X164400Y3600D02*
Y6400D01*
X121700Y165300D02*
X124500D01*
X123100Y163900D02*
Y166700D01*
X128800Y150000D02*
X131600D01*
X130200Y148600D02*
Y151400D01*
X53700Y123800D02*
X56500D01*
X55100Y122400D02*
Y125200D01*
X115000Y233900D02*
X117800D01*
X116400Y232500D02*
Y235300D01*
X204900Y102000D02*
X207700D01*
X206300Y100600D02*
Y103400D01*
M02*
