%FSLAX25Y25*%
%MOIN*%
G70*
G01*
G75*
G04 Layer_Color=32896*
%ADD10C,0.01200*%
%ADD11C,0.02500*%
%ADD12C,0.05800*%
%ADD13R,0.05600X0.05600*%
%ADD14C,0.07087*%
%ADD15C,0.04724*%
%ADD16C,0.07874*%
%ADD17R,0.07874X0.07874*%
%ADD18C,0.05512*%
%ADD19R,0.09843X0.07087*%
%ADD20O,0.09843X0.07087*%
%ADD21C,0.07087*%
%ADD22R,0.05906X0.05906*%
%ADD23C,0.05906*%
%ADD24R,0.07874X0.07874*%
%ADD25R,0.04724X0.04724*%
%ADD26C,0.08200*%
%ADD27R,0.05906X0.05906*%
%ADD28R,0.09843X0.07874*%
%ADD29O,0.09843X0.07874*%
%ADD30C,0.05000*%
%ADD31C,0.06000*%
%ADD32C,0.01000*%
%ADD33C,0.00787*%
%ADD34C,0.00600*%
%ADD35C,0.00300*%
%ADD36C,0.00591*%
%ADD37C,0.06600*%
%ADD38R,0.06400X0.06400*%
%ADD39C,0.07887*%
%ADD40C,0.05524*%
%ADD41C,0.08674*%
%ADD42R,0.08674X0.08674*%
%ADD43C,0.06312*%
%ADD44R,0.10642X0.07887*%
%ADD45O,0.10642X0.07887*%
%ADD46C,0.07887*%
%ADD47R,0.06706X0.06706*%
%ADD48C,0.06706*%
%ADD49R,0.08674X0.08674*%
%ADD50R,0.05524X0.05524*%
%ADD51C,0.09000*%
%ADD52R,0.06706X0.06706*%
%ADD53R,0.10642X0.08674*%
%ADD54O,0.10642X0.08674*%
%ADD55C,0.06800*%
%ADD56C,0.00800*%
D32*
X367100Y264198D02*
X363101D01*
X365101D01*
Y258200D01*
X361102D02*
X359103D01*
X360102D01*
Y264198D01*
X361102Y263198D01*
D36*
X327000Y205083D02*
Y203115D01*
Y204099D01*
X321096D01*
X322080Y205083D01*
X327000Y83148D02*
Y87083D01*
X323064Y83148D01*
X322080D01*
X321096Y84131D01*
Y86099D01*
X322080Y87083D01*
X229000Y182132D02*
X223096D01*
X226048Y185083D01*
Y181148D01*
X224080Y107083D02*
X223096Y106099D01*
Y104131D01*
X224080Y103148D01*
X225064D01*
X226048Y104131D01*
Y105115D01*
Y104131D01*
X227032Y103148D01*
X228016D01*
X229000Y104131D01*
Y106099D01*
X228016Y107083D01*
D56*
X184333Y33167D02*
Y254833D01*
Y33167D02*
X367667D01*
Y254833D01*
X184333D02*
X367667D01*
X206000Y229000D02*
X346000D01*
X206000Y59000D02*
Y229000D01*
Y59000D02*
X346000D01*
Y229000D01*
M02*
