%FSLAX25Y25*%
%MOIN*%
G70*
G01*
G75*
G04 Layer_Physical_Order=2*
G04 Layer_Color=16711680*
%ADD10C,0.01200*%
%ADD11C,0.02500*%
%ADD12C,0.05800*%
%ADD13R,0.05600X0.05600*%
%ADD14C,0.07087*%
%ADD15C,0.04724*%
%ADD16C,0.07874*%
%ADD17R,0.07874X0.07874*%
%ADD18C,0.05512*%
%ADD19R,0.09843X0.07087*%
%ADD20O,0.09843X0.07087*%
%ADD21C,0.07087*%
%ADD22R,0.05906X0.05906*%
%ADD23C,0.05906*%
%ADD24R,0.07874X0.07874*%
%ADD25R,0.04724X0.04724*%
%ADD26C,0.08200*%
%ADD27R,0.05906X0.05906*%
%ADD28R,0.09843X0.07874*%
%ADD29O,0.09843X0.07874*%
%ADD30C,0.05000*%
%ADD31C,0.06000*%
G36*
X361145Y285800D02*
X361181Y285332D01*
X361601Y283583D01*
X362290Y281922D01*
X363229Y280388D01*
X364397Y279021D01*
X365764Y277853D01*
X367298Y276914D01*
X368959Y276225D01*
X370707Y275806D01*
X371174Y275769D01*
X370983Y-25961D01*
X370486Y-26000D01*
X368710Y-26426D01*
X367022Y-27125D01*
X365464Y-28080D01*
X364074Y-29267D01*
X362888Y-30656D01*
X361933Y-32214D01*
X361234Y-33902D01*
X360807Y-35678D01*
X360768Y-36174D01*
X24232D01*
X24191Y-35647D01*
X23757Y-33839D01*
X23045Y-32121D01*
X22074Y-30536D01*
X20866Y-29122D01*
X19452Y-27914D01*
X17867Y-26943D01*
X16150Y-26232D01*
X14342Y-25797D01*
X13814Y-25756D01*
X13825Y275828D01*
X14342Y275868D01*
X16139Y276300D01*
X17846Y277007D01*
X19422Y277973D01*
X20827Y279173D01*
X22027Y280578D01*
X22993Y282154D01*
X23700Y283861D01*
X24132Y285658D01*
X24172Y286173D01*
X361145Y285800D01*
D02*
G37*
%LPC*%
G36*
X309500Y97124D02*
Y94500D01*
X312124D01*
X312081Y94826D01*
X311762Y95595D01*
X311255Y96255D01*
X310595Y96762D01*
X309825Y97081D01*
X309500Y97124D01*
D02*
G37*
G36*
X308500D02*
X308174Y97081D01*
X307405Y96762D01*
X306745Y96255D01*
X306238Y95595D01*
X305919Y94826D01*
X305876Y94500D01*
X308500D01*
Y97124D01*
D02*
G37*
G36*
X46992Y21326D02*
X45858Y21177D01*
X44802Y20739D01*
X43894Y20043D01*
X43198Y19135D01*
X42882Y18372D01*
X25118D01*
X24802Y19135D01*
X24106Y20043D01*
X23198Y20739D01*
X22142Y21177D01*
X21008Y21326D01*
X19874Y21177D01*
X18818Y20739D01*
X17910Y20043D01*
X17214Y19135D01*
X16777Y18079D01*
X16627Y16945D01*
X16777Y15811D01*
X17214Y14755D01*
X17910Y13847D01*
X18818Y13151D01*
X19874Y12713D01*
X21008Y12564D01*
X22142Y12713D01*
X23198Y13151D01*
X24106Y13847D01*
X24802Y14755D01*
X25118Y15518D01*
X42882D01*
X43198Y14755D01*
X43894Y13847D01*
X44802Y13151D01*
X45858Y12713D01*
X46992Y12564D01*
X48126Y12713D01*
X49183Y13151D01*
X50090Y13847D01*
X50786Y14755D01*
X51224Y15811D01*
X51373Y16945D01*
X51224Y18079D01*
X50786Y19135D01*
X50090Y20043D01*
X49183Y20739D01*
X48126Y21177D01*
X46992Y21326D01*
D02*
G37*
G36*
X216917Y109609D02*
X215638Y109441D01*
X214446Y108947D01*
X213422Y108161D01*
X212637Y107138D01*
X212143Y105946D01*
X211975Y104667D01*
X212143Y103388D01*
X212637Y102196D01*
X213422Y101172D01*
X214446Y100387D01*
X215638Y99893D01*
X216917Y99725D01*
X218196Y99893D01*
X219388Y100387D01*
X220411Y101172D01*
X221197Y102196D01*
X221691Y103388D01*
X221859Y104667D01*
X221691Y105946D01*
X221197Y107138D01*
X220411Y108161D01*
X219388Y108947D01*
X218196Y109441D01*
X216917Y109609D01*
D02*
G37*
G36*
X308500Y93500D02*
X305876D01*
X305919Y93174D01*
X306238Y92405D01*
X306745Y91745D01*
X307405Y91238D01*
X308174Y90919D01*
X308500Y90876D01*
Y93500D01*
D02*
G37*
G36*
X46992Y91326D02*
X45858Y91176D01*
X44802Y90739D01*
X43894Y90043D01*
X43198Y89135D01*
X42882Y88372D01*
X25118D01*
X24802Y89135D01*
X24106Y90043D01*
X23198Y90739D01*
X22142Y91176D01*
X21008Y91326D01*
X19874Y91176D01*
X18818Y90739D01*
X17910Y90043D01*
X17214Y89135D01*
X16777Y88079D01*
X16627Y86945D01*
X16777Y85811D01*
X17214Y84755D01*
X17910Y83847D01*
X18818Y83151D01*
X19874Y82714D01*
X21008Y82564D01*
X22142Y82714D01*
X23198Y83151D01*
X24106Y83847D01*
X24802Y84755D01*
X25118Y85518D01*
X42882D01*
X43198Y84755D01*
X43894Y83847D01*
X44802Y83151D01*
X45858Y82714D01*
X46992Y82564D01*
X48126Y82714D01*
X49183Y83151D01*
X50090Y83847D01*
X50786Y84755D01*
X51224Y85811D01*
X51373Y86945D01*
X51224Y88079D01*
X50786Y89135D01*
X50090Y90043D01*
X49183Y90739D01*
X48126Y91176D01*
X46992Y91326D01*
D02*
G37*
G36*
X237000Y88228D02*
X236139Y88115D01*
X235336Y87783D01*
X234646Y87254D01*
X234118Y86564D01*
X233785Y85761D01*
X233671Y84900D01*
X233785Y84039D01*
X233883Y83802D01*
X217109Y67027D01*
X173074D01*
X172853Y67476D01*
X173319Y68084D01*
X173702Y69008D01*
X173833Y70000D01*
X173702Y70992D01*
X173319Y71916D01*
X172710Y72710D01*
X171916Y73319D01*
X170992Y73702D01*
X170000Y73833D01*
X169008Y73702D01*
X168084Y73319D01*
X167290Y72710D01*
X166681Y71916D01*
X166298Y70992D01*
X166167Y70000D01*
X166298Y69008D01*
X166681Y68084D01*
X167147Y67476D01*
X166926Y67027D01*
X114991D01*
X113500Y68519D01*
X113702Y69008D01*
X113833Y70000D01*
X113702Y70992D01*
X113319Y71916D01*
X112710Y72710D01*
X111916Y73319D01*
X110992Y73702D01*
X110000Y73833D01*
X109008Y73702D01*
X108084Y73319D01*
X107290Y72710D01*
X106681Y71916D01*
X106298Y70992D01*
X106167Y70000D01*
X106298Y69008D01*
X106681Y68084D01*
X107290Y67290D01*
X108084Y66681D01*
X109008Y66298D01*
X110000Y66167D01*
X110992Y66298D01*
X111481Y66500D01*
X113391Y64591D01*
X113854Y64281D01*
X114400Y64173D01*
X114400Y64173D01*
X168862D01*
X168960Y63682D01*
X168084Y63319D01*
X167290Y62710D01*
X166681Y61916D01*
X166298Y60992D01*
X166167Y60000D01*
X166298Y59008D01*
X166681Y58084D01*
X167290Y57290D01*
X168084Y56681D01*
X169008Y56298D01*
X170000Y56167D01*
X170992Y56298D01*
X171916Y56681D01*
X172710Y57290D01*
X173319Y58084D01*
X173702Y59008D01*
X173833Y60000D01*
X173702Y60992D01*
X173319Y61916D01*
X172710Y62710D01*
X171916Y63319D01*
X171040Y63682D01*
X171138Y64173D01*
X217700D01*
X217700Y64173D01*
X218246Y64281D01*
X218709Y64591D01*
X235902Y81783D01*
X236139Y81685D01*
X237000Y81572D01*
X237861Y81685D01*
X238664Y82017D01*
X239354Y82546D01*
X239882Y83236D01*
X240215Y84039D01*
X240329Y84900D01*
X240215Y85761D01*
X239882Y86564D01*
X239354Y87254D01*
X238664Y87783D01*
X237861Y88115D01*
X237000Y88228D01*
D02*
G37*
G36*
X312124Y93500D02*
X309500D01*
Y90876D01*
X309825Y90919D01*
X310595Y91238D01*
X311255Y91745D01*
X311762Y92405D01*
X312081Y93174D01*
X312124Y93500D01*
D02*
G37*
G36*
X170000Y113833D02*
X169008Y113702D01*
X168084Y113319D01*
X167290Y112710D01*
X166681Y111916D01*
X166298Y110992D01*
X166167Y110000D01*
X166298Y109008D01*
X166681Y108084D01*
X167290Y107290D01*
X168084Y106681D01*
X169008Y106298D01*
X170000Y106167D01*
X170992Y106298D01*
X171916Y106681D01*
X172710Y107290D01*
X173319Y108084D01*
X173702Y109008D01*
X173833Y110000D01*
X173702Y110992D01*
X173319Y111916D01*
X172710Y112710D01*
X171916Y113319D01*
X170992Y113702D01*
X170000Y113833D01*
D02*
G37*
G36*
X20508Y3370D02*
X19874Y3287D01*
X18818Y2849D01*
X17910Y2153D01*
X17214Y1246D01*
X16777Y189D01*
X16693Y-445D01*
X20508D01*
Y3370D01*
D02*
G37*
G36*
X30600Y227600D02*
X23400D01*
Y220400D01*
X25573D01*
Y212700D01*
X25573Y212700D01*
X25681Y212154D01*
X25991Y211691D01*
X60373Y177309D01*
Y174881D01*
X60136Y174783D01*
X59446Y174254D01*
X58917Y173564D01*
X58585Y172761D01*
X58472Y171900D01*
X58585Y171038D01*
X58917Y170236D01*
X59446Y169546D01*
X60136Y169018D01*
X60939Y168685D01*
X61800Y168571D01*
X62661Y168685D01*
X63464Y169018D01*
X64154Y169546D01*
X64683Y170236D01*
X65015Y171038D01*
X65128Y171900D01*
X65015Y172761D01*
X64683Y173564D01*
X64154Y174254D01*
X63464Y174783D01*
X63227Y174881D01*
Y177900D01*
X63227Y177900D01*
X63119Y178446D01*
X62995Y178632D01*
X62809Y178909D01*
X62809Y178909D01*
X61781Y179938D01*
X61972Y180400D01*
X68600D01*
Y187600D01*
X61400D01*
Y180972D01*
X60938Y180781D01*
X28427Y213291D01*
Y220400D01*
X30600D01*
Y227600D01*
D02*
G37*
G36*
X20508Y-1445D02*
X16693D01*
X16777Y-2079D01*
X17214Y-3135D01*
X17910Y-4042D01*
X18818Y-4739D01*
X19874Y-5176D01*
X20508Y-5260D01*
Y-1445D01*
D02*
G37*
G36*
X51307D02*
X47492D01*
Y-5260D01*
X48126Y-5176D01*
X49183Y-4739D01*
X50090Y-4042D01*
X50786Y-3135D01*
X51224Y-2079D01*
X51307Y-1445D01*
D02*
G37*
G36*
X47492Y3370D02*
Y-445D01*
X51307D01*
X51224Y189D01*
X50786Y1246D01*
X50090Y2153D01*
X49183Y2849D01*
X48126Y3287D01*
X47492Y3370D01*
D02*
G37*
G36*
X170000Y123833D02*
X169008Y123702D01*
X168084Y123319D01*
X167290Y122710D01*
X166681Y121916D01*
X166298Y120992D01*
X166167Y120000D01*
X166298Y119008D01*
X166681Y118084D01*
X167290Y117290D01*
X168084Y116681D01*
X169008Y116298D01*
X170000Y116167D01*
X170992Y116298D01*
X171916Y116681D01*
X172710Y117290D01*
X173319Y118084D01*
X173702Y119008D01*
X173833Y120000D01*
X173702Y120992D01*
X173319Y121916D01*
X172710Y122710D01*
X171916Y123319D01*
X170992Y123702D01*
X170000Y123833D01*
D02*
G37*
G36*
Y23833D02*
X169008Y23702D01*
X168084Y23319D01*
X167290Y22710D01*
X166681Y21916D01*
X166298Y20992D01*
X166167Y20000D01*
X166298Y19008D01*
X166681Y18084D01*
X167290Y17290D01*
X168084Y16681D01*
X169008Y16298D01*
X170000Y16167D01*
X170992Y16298D01*
X171916Y16681D01*
X172710Y17290D01*
X173319Y18084D01*
X173702Y19008D01*
X173833Y20000D01*
X173702Y20992D01*
X173319Y21916D01*
X172710Y22710D01*
X171916Y23319D01*
X170992Y23702D01*
X170000Y23833D01*
D02*
G37*
G36*
X46492Y3370D02*
X45858Y3287D01*
X44802Y2849D01*
X43894Y2153D01*
X43198Y1246D01*
X42882Y483D01*
X25118D01*
X24802Y1246D01*
X24106Y2153D01*
X23198Y2849D01*
X22142Y3287D01*
X21508Y3370D01*
Y-946D01*
Y-5260D01*
X22142Y-5176D01*
X23198Y-4739D01*
X24106Y-4042D01*
X24802Y-3135D01*
X25118Y-2372D01*
X42882D01*
X43198Y-3135D01*
X43894Y-4042D01*
X44802Y-4739D01*
X45858Y-5176D01*
X46492Y-5260D01*
Y-946D01*
Y3370D01*
D02*
G37*
G36*
X286712Y13500D02*
X282500D01*
Y9288D01*
X283237Y9385D01*
X284389Y9862D01*
X285379Y10622D01*
X286138Y11611D01*
X286615Y12763D01*
X286712Y13500D01*
D02*
G37*
G36*
X110000Y43833D02*
X109008Y43702D01*
X108084Y43319D01*
X107290Y42710D01*
X106681Y41916D01*
X106298Y40992D01*
X106167Y40000D01*
X106298Y39008D01*
X106681Y38084D01*
X107290Y37290D01*
X108084Y36681D01*
X109008Y36298D01*
X110000Y36167D01*
X110992Y36298D01*
X111916Y36681D01*
X112710Y37290D01*
X113319Y38084D01*
X113702Y39008D01*
X113833Y40000D01*
X113702Y40992D01*
X113319Y41916D01*
X112710Y42710D01*
X111916Y43319D01*
X110992Y43702D01*
X110000Y43833D01*
D02*
G37*
G36*
X47492Y39370D02*
Y35555D01*
X51307D01*
X51224Y36189D01*
X50786Y37246D01*
X50090Y38153D01*
X49183Y38849D01*
X48126Y39287D01*
X47492Y39370D01*
D02*
G37*
G36*
X46492D02*
X45858Y39287D01*
X44802Y38849D01*
X43894Y38153D01*
X43198Y37246D01*
X42882Y36483D01*
X25118D01*
X24802Y37246D01*
X24106Y38153D01*
X23198Y38849D01*
X22142Y39287D01*
X21508Y39370D01*
Y35054D01*
Y30740D01*
X22142Y30824D01*
X23198Y31261D01*
X24106Y31958D01*
X24802Y32865D01*
X25118Y33628D01*
X42882D01*
X43198Y32865D01*
X43894Y31958D01*
X44802Y31261D01*
X45858Y30824D01*
X46492Y30740D01*
Y35054D01*
Y39370D01*
D02*
G37*
G36*
X170000Y43833D02*
X169008Y43702D01*
X168084Y43319D01*
X167290Y42710D01*
X166681Y41916D01*
X166298Y40992D01*
X166167Y40000D01*
X166298Y39008D01*
X166681Y38084D01*
X167290Y37290D01*
X168084Y36681D01*
X169008Y36298D01*
X170000Y36167D01*
X170992Y36298D01*
X171916Y36681D01*
X172710Y37290D01*
X173319Y38084D01*
X173702Y39008D01*
X173833Y40000D01*
X173702Y40992D01*
X173319Y41916D01*
X172710Y42710D01*
X171916Y43319D01*
X170992Y43702D01*
X170000Y43833D01*
D02*
G37*
G36*
X20508Y39370D02*
X19874Y39287D01*
X18818Y38849D01*
X17910Y38153D01*
X17214Y37246D01*
X16777Y36189D01*
X16693Y35555D01*
X20508D01*
Y39370D01*
D02*
G37*
G36*
Y34555D02*
X16693D01*
X16777Y33921D01*
X17214Y32865D01*
X17910Y31958D01*
X18818Y31261D01*
X19874Y30824D01*
X20508Y30740D01*
Y34555D01*
D02*
G37*
G36*
X110000Y33833D02*
X109008Y33702D01*
X108084Y33319D01*
X107290Y32710D01*
X106681Y31916D01*
X106298Y30992D01*
X106167Y30000D01*
X106298Y29008D01*
X106681Y28084D01*
X107290Y27290D01*
X108084Y26681D01*
X109008Y26298D01*
X110000Y26167D01*
X110992Y26298D01*
X111916Y26681D01*
X112710Y27290D01*
X113319Y28084D01*
X113702Y29008D01*
X113833Y30000D01*
X113702Y30992D01*
X113319Y31916D01*
X112710Y32710D01*
X111916Y33319D01*
X110992Y33702D01*
X110000Y33833D01*
D02*
G37*
G36*
X70000Y38778D02*
X68763Y38615D01*
X67611Y38138D01*
X66622Y37378D01*
X65862Y36389D01*
X65385Y35237D01*
X65250Y34212D01*
X64750D01*
X64615Y35237D01*
X64138Y36389D01*
X63379Y37378D01*
X62389Y38138D01*
X61237Y38615D01*
X60000Y38778D01*
X58763Y38615D01*
X57611Y38138D01*
X56621Y37378D01*
X55862Y36389D01*
X55385Y35237D01*
X55222Y34000D01*
X55385Y32763D01*
X55862Y31611D01*
X56621Y30621D01*
X57611Y29862D01*
X58763Y29385D01*
X60000Y29222D01*
X61237Y29385D01*
X62389Y29862D01*
X63379Y30621D01*
X64138Y31611D01*
X64615Y32763D01*
X64750Y33788D01*
X65250D01*
X65385Y32763D01*
X65862Y31611D01*
X66622Y30621D01*
X67611Y29862D01*
X68763Y29385D01*
X70000Y29222D01*
X71237Y29385D01*
X72389Y29862D01*
X73378Y30621D01*
X74138Y31611D01*
X74615Y32763D01*
X74778Y34000D01*
X74615Y35237D01*
X74138Y36389D01*
X73378Y37378D01*
X72389Y38138D01*
X71237Y38615D01*
X70000Y38778D01*
D02*
G37*
G36*
X51307Y34555D02*
X47492D01*
Y30740D01*
X48126Y30824D01*
X49183Y31261D01*
X50090Y31958D01*
X50786Y32865D01*
X51224Y33921D01*
X51307Y34555D01*
D02*
G37*
G36*
X110000Y53833D02*
X109008Y53702D01*
X108084Y53319D01*
X107290Y52710D01*
X106681Y51916D01*
X106298Y50992D01*
X106167Y50000D01*
X106298Y49008D01*
X106681Y48084D01*
X107290Y47290D01*
X108084Y46681D01*
X109008Y46298D01*
X110000Y46167D01*
X110992Y46298D01*
X111916Y46681D01*
X112710Y47290D01*
X113319Y48084D01*
X113702Y49008D01*
X113833Y50000D01*
X113702Y50992D01*
X113319Y51916D01*
X112710Y52710D01*
X111916Y53319D01*
X110992Y53702D01*
X110000Y53833D01*
D02*
G37*
G36*
X20508Y77370D02*
X19874Y77287D01*
X18818Y76849D01*
X17910Y76153D01*
X17214Y75246D01*
X16777Y74189D01*
X16693Y73555D01*
X20508D01*
Y77370D01*
D02*
G37*
G36*
X51307Y72555D02*
X47492D01*
Y68740D01*
X48126Y68824D01*
X49183Y69261D01*
X50090Y69958D01*
X50786Y70865D01*
X51224Y71921D01*
X51307Y72555D01*
D02*
G37*
G36*
X46492Y77370D02*
X45858Y77287D01*
X44802Y76849D01*
X43894Y76153D01*
X43198Y75246D01*
X42882Y74483D01*
X25118D01*
X24802Y75246D01*
X24106Y76153D01*
X23198Y76849D01*
X22142Y77287D01*
X21508Y77370D01*
Y73054D01*
Y68740D01*
X22142Y68824D01*
X23198Y69261D01*
X24106Y69958D01*
X24802Y70865D01*
X25118Y71628D01*
X42882D01*
X43198Y70865D01*
X43894Y69958D01*
X44802Y69261D01*
X45858Y68824D01*
X46492Y68740D01*
Y73054D01*
Y77370D01*
D02*
G37*
G36*
X47492D02*
Y73555D01*
X51307D01*
X51224Y74189D01*
X50786Y75246D01*
X50090Y76153D01*
X49183Y76849D01*
X48126Y77287D01*
X47492Y77370D01*
D02*
G37*
G36*
X20508Y72555D02*
X16693D01*
X16777Y71921D01*
X17214Y70865D01*
X17910Y69958D01*
X18818Y69261D01*
X19874Y68824D01*
X20508Y68740D01*
Y72555D01*
D02*
G37*
G36*
X67521Y53500D02*
X64500D01*
Y50479D01*
X64928Y50536D01*
X65793Y50894D01*
X66536Y51464D01*
X67106Y52207D01*
X67464Y53072D01*
X67521Y53500D01*
D02*
G37*
G36*
X63500D02*
X60479D01*
X60536Y53072D01*
X60894Y52207D01*
X61464Y51464D01*
X62207Y50894D01*
X63072Y50536D01*
X63500Y50479D01*
Y53500D01*
D02*
G37*
G36*
X46992Y59326D02*
X45858Y59176D01*
X44802Y58739D01*
X43894Y58043D01*
X43198Y57135D01*
X42882Y56372D01*
X25118D01*
X24802Y57135D01*
X24106Y58043D01*
X23198Y58739D01*
X22142Y59176D01*
X21008Y59326D01*
X19874Y59176D01*
X18818Y58739D01*
X17910Y58043D01*
X17214Y57135D01*
X16777Y56079D01*
X16627Y54945D01*
X16777Y53811D01*
X17214Y52755D01*
X17910Y51847D01*
X18818Y51151D01*
X19874Y50713D01*
X21008Y50564D01*
X22142Y50713D01*
X23198Y51151D01*
X24106Y51847D01*
X24802Y52755D01*
X25118Y53518D01*
X42882D01*
X43198Y52755D01*
X43894Y51847D01*
X44802Y51151D01*
X45858Y50713D01*
X46992Y50564D01*
X48126Y50713D01*
X49183Y51151D01*
X50090Y51847D01*
X50786Y52755D01*
X51224Y53811D01*
X51373Y54945D01*
X51224Y56079D01*
X50786Y57135D01*
X50090Y58043D01*
X49183Y58739D01*
X48126Y59176D01*
X46992Y59326D01*
D02*
G37*
G36*
X110000Y63833D02*
X109008Y63702D01*
X108084Y63319D01*
X107290Y62710D01*
X106681Y61916D01*
X106298Y60992D01*
X106167Y60000D01*
X106298Y59008D01*
X106681Y58084D01*
X107290Y57290D01*
X108084Y56681D01*
X109008Y56298D01*
X110000Y56167D01*
X110992Y56298D01*
X111916Y56681D01*
X112710Y57290D01*
X113319Y58084D01*
X113702Y59008D01*
X113833Y60000D01*
X113702Y60992D01*
X113319Y61916D01*
X112710Y62710D01*
X111916Y63319D01*
X110992Y63702D01*
X110000Y63833D01*
D02*
G37*
G36*
X237000Y267732D02*
X236034Y267605D01*
X235134Y267232D01*
X234361Y266639D01*
X233768Y265866D01*
X233395Y264966D01*
X233268Y264000D01*
X233395Y263034D01*
X233768Y262134D01*
X234361Y261361D01*
X235134Y260768D01*
X236034Y260395D01*
X237000Y260268D01*
X237966Y260395D01*
X238866Y260768D01*
X239639Y261361D01*
X240232Y262134D01*
X240605Y263034D01*
X240732Y264000D01*
X240605Y264966D01*
X240232Y265866D01*
X239639Y266639D01*
X238866Y267232D01*
X237966Y267605D01*
X237000Y267732D01*
D02*
G37*
G36*
X94000Y264778D02*
X92763Y264615D01*
X91611Y264138D01*
X90622Y263379D01*
X89862Y262389D01*
X89385Y261237D01*
X89222Y260000D01*
X89385Y258763D01*
X89862Y257611D01*
X90622Y256622D01*
X91611Y255862D01*
X92763Y255385D01*
X94000Y255222D01*
X95237Y255385D01*
X96389Y255862D01*
X97378Y256622D01*
X98138Y257611D01*
X98615Y258763D01*
X98750Y259788D01*
X99250D01*
X99222Y260000D01*
X99250Y260212D01*
X98750D01*
X98615Y261237D01*
X98138Y262389D01*
X97378Y263379D01*
X96389Y264138D01*
X95237Y264615D01*
X94000Y264778D01*
D02*
G37*
G36*
X103500Y264712D02*
X102763Y264615D01*
X101611Y264138D01*
X100621Y263379D01*
X99862Y262389D01*
X99385Y261237D01*
X99288Y260500D01*
X103500D01*
Y264712D01*
D02*
G37*
G36*
X230600Y267600D02*
X223400D01*
Y260400D01*
X230600D01*
Y267600D01*
D02*
G37*
G36*
X34600Y265600D02*
X27400D01*
Y258400D01*
X34600D01*
Y265600D01*
D02*
G37*
G36*
X64600Y263600D02*
X57400D01*
Y256400D01*
X64600D01*
Y263600D01*
D02*
G37*
G36*
X71000Y263732D02*
X70034Y263605D01*
X69134Y263232D01*
X68361Y262639D01*
X67768Y261866D01*
X67395Y260966D01*
X67268Y260000D01*
X67395Y259034D01*
X67768Y258134D01*
X68361Y257361D01*
X69134Y256768D01*
X70034Y256395D01*
X71000Y256268D01*
X71966Y256395D01*
X72866Y256768D01*
X73639Y257361D01*
X74232Y258134D01*
X74605Y259034D01*
X74732Y260000D01*
X74605Y260966D01*
X74232Y261866D01*
X73639Y262639D01*
X72866Y263232D01*
X71966Y263605D01*
X71000Y263732D01*
D02*
G37*
G36*
X138500Y259719D02*
Y256500D01*
X141719D01*
X141656Y256980D01*
X141278Y257893D01*
X140676Y258677D01*
X139893Y259278D01*
X138980Y259656D01*
X138500Y259719D01*
D02*
G37*
G36*
X195753Y269753D02*
X188247D01*
Y262247D01*
X193734D01*
X210491Y245491D01*
X210491Y245491D01*
X210768Y245305D01*
X210954Y245181D01*
X211500Y245073D01*
X346773D01*
Y235837D01*
X346311Y235645D01*
X344478Y237478D01*
X343800Y237931D01*
X343000Y238090D01*
X343000Y238090D01*
X141753D01*
Y239753D01*
X141753D01*
Y239819D01*
X142106Y240173D01*
X151600D01*
X151600Y240173D01*
X152146Y240281D01*
X152609Y240591D01*
X159802Y247783D01*
X160763Y247385D01*
X162000Y247222D01*
X163237Y247385D01*
X164389Y247862D01*
X165378Y248622D01*
X166138Y249611D01*
X166615Y250763D01*
X166750Y251788D01*
X167250D01*
X167385Y250763D01*
X167862Y249611D01*
X168622Y248622D01*
X169611Y247862D01*
X170763Y247385D01*
X172000Y247222D01*
X173237Y247385D01*
X174389Y247862D01*
X175379Y248622D01*
X176138Y249611D01*
X176615Y250763D01*
X176778Y252000D01*
X176615Y253237D01*
X176138Y254389D01*
X175379Y255379D01*
X174389Y256138D01*
X173237Y256615D01*
X172000Y256778D01*
X170763Y256615D01*
X169611Y256138D01*
X168622Y255379D01*
X167862Y254389D01*
X167385Y253237D01*
X167250Y252212D01*
X166750D01*
X166615Y253237D01*
X166138Y254389D01*
X165378Y255379D01*
X164389Y256138D01*
X163237Y256615D01*
X162000Y256778D01*
X160763Y256615D01*
X159611Y256138D01*
X158622Y255379D01*
X157862Y254389D01*
X157385Y253237D01*
X157250Y252212D01*
X156750D01*
X156615Y253237D01*
X156138Y254389D01*
X155378Y255379D01*
X154389Y256138D01*
X153237Y256615D01*
X152000Y256778D01*
X150763Y256615D01*
X149611Y256138D01*
X148621Y255379D01*
X147862Y254389D01*
X147739Y254090D01*
X144000D01*
X143200Y253931D01*
X142522Y253478D01*
X138733Y249689D01*
X138000Y249785D01*
X137020Y249656D01*
X136107Y249278D01*
X135324Y248676D01*
X134722Y247893D01*
X134344Y246980D01*
X134219Y246034D01*
X133746Y245873D01*
X131924Y247695D01*
X131954Y248146D01*
X132483Y248836D01*
X132815Y249639D01*
X132929Y250500D01*
X132815Y251361D01*
X132483Y252164D01*
X131954Y252854D01*
X131264Y253382D01*
X130462Y253715D01*
X129600Y253829D01*
X128738Y253715D01*
X127936Y253382D01*
X127246Y252854D01*
X126717Y252164D01*
X126385Y251361D01*
X126271Y250500D01*
X126385Y249639D01*
X126717Y248836D01*
X127246Y248146D01*
X127936Y247618D01*
X128277Y247476D01*
X128281Y247454D01*
X128591Y246991D01*
X134991Y240591D01*
X134991Y240591D01*
X135454Y240281D01*
X135609Y240250D01*
X135560Y239753D01*
X134247D01*
Y233025D01*
X133785Y232833D01*
X115427Y251191D01*
Y255263D01*
X118737D01*
Y264073D01*
X127909D01*
X134537Y257445D01*
X134344Y256980D01*
X134281Y256500D01*
X137500D01*
Y259719D01*
X137020Y259656D01*
X136555Y259464D01*
X129509Y266509D01*
X129046Y266819D01*
X128500Y266927D01*
X128500Y266927D01*
X109500D01*
X108954Y266819D01*
X108768Y266695D01*
X108491Y266509D01*
X108491Y266509D01*
X106198Y264217D01*
X105237Y264615D01*
X104500Y264712D01*
Y260500D01*
X108712D01*
X108778Y260000D01*
X108764Y259895D01*
X108898Y259886D01*
D01*
X109159Y259869D01*
X109263Y259772D01*
Y255263D01*
X112573D01*
Y250600D01*
X112573Y250600D01*
X112681Y250054D01*
X112991Y249591D01*
X132991Y229591D01*
X132991Y229591D01*
X133268Y229405D01*
X133454Y229281D01*
X134000Y229173D01*
X134000Y229173D01*
X202309D01*
X204392Y227089D01*
X204201Y226627D01*
X126528D01*
X126306Y227076D01*
X126583Y227436D01*
X126915Y228239D01*
X127029Y229100D01*
X126915Y229961D01*
X126583Y230764D01*
X126054Y231454D01*
X125364Y231982D01*
X124562Y232315D01*
X123700Y232429D01*
X122838Y232315D01*
X122036Y231982D01*
X121346Y231454D01*
X120817Y230764D01*
X120719Y230527D01*
X118267D01*
X118064Y231017D01*
X118754Y231546D01*
X119282Y232236D01*
X119615Y233038D01*
X119729Y233900D01*
X119615Y234762D01*
X119282Y235564D01*
X118754Y236254D01*
X118064Y236783D01*
X117262Y237115D01*
X116400Y237228D01*
X115539Y237115D01*
X115302Y237017D01*
X103309Y249009D01*
X102846Y249319D01*
X102300Y249427D01*
X102300Y249427D01*
X55591D01*
X44423Y260596D01*
X44605Y261034D01*
X44732Y262000D01*
X44605Y262966D01*
X44232Y263866D01*
X43639Y264639D01*
X42866Y265232D01*
X41966Y265605D01*
X41000Y265732D01*
X40034Y265605D01*
X39134Y265232D01*
X38361Y264639D01*
X37768Y263866D01*
X37395Y262966D01*
X37268Y262000D01*
X37395Y261034D01*
X37768Y260134D01*
X38361Y259361D01*
X39134Y258768D01*
X40034Y258395D01*
X41000Y258268D01*
X41966Y258395D01*
X42404Y258577D01*
X53991Y246991D01*
X54454Y246681D01*
X55000Y246573D01*
X55000Y246573D01*
X101709D01*
X113283Y234998D01*
X113185Y234762D01*
X113072Y233900D01*
X113185Y233038D01*
X113517Y232236D01*
X114046Y231546D01*
X114736Y231017D01*
X114533Y230527D01*
X78100D01*
X78100Y230527D01*
X77554Y230419D01*
X77091Y230109D01*
X77091Y230109D01*
X74404Y227423D01*
X73966Y227605D01*
X73000Y227732D01*
X72034Y227605D01*
X71134Y227232D01*
X70361Y226639D01*
X69768Y225866D01*
X69395Y224966D01*
X69268Y224000D01*
X69395Y223034D01*
X69768Y222134D01*
X70361Y221361D01*
X71134Y220768D01*
X72034Y220395D01*
X73000Y220268D01*
X73966Y220395D01*
X74866Y220768D01*
X75639Y221361D01*
X76232Y222134D01*
X76605Y223034D01*
X76732Y224000D01*
X76605Y224966D01*
X76423Y225404D01*
X78691Y227673D01*
X120719D01*
X120817Y227436D01*
X121094Y227076D01*
X120872Y226627D01*
X111700D01*
X111154Y226519D01*
X110968Y226395D01*
X110691Y226209D01*
X110691Y226209D01*
X88991Y204509D01*
X88681Y204046D01*
X88573Y203500D01*
X88573Y203500D01*
Y164831D01*
X88405Y164762D01*
X88114Y164538D01*
X87665Y164760D01*
Y185762D01*
X87665Y185762D01*
X87557Y186308D01*
X87247Y186772D01*
X87247Y186772D01*
X84709Y189309D01*
X84246Y189619D01*
X83700Y189727D01*
X83700Y189727D01*
X72000D01*
X72000Y189727D01*
X71454Y189619D01*
X70991Y189309D01*
X70991Y189309D01*
X69691Y188009D01*
X69381Y187546D01*
X69273Y187000D01*
X69273Y187000D01*
Y170091D01*
X65709Y166527D01*
X55891D01*
X34127Y188291D01*
Y188975D01*
X34576Y189196D01*
X35134Y188768D01*
X36034Y188395D01*
X37000Y188268D01*
X37966Y188395D01*
X38866Y188768D01*
X39639Y189361D01*
X40232Y190134D01*
X40605Y191034D01*
X40732Y192000D01*
X40605Y192966D01*
X40232Y193866D01*
X39639Y194639D01*
X38866Y195232D01*
X37966Y195605D01*
X37000Y195732D01*
X36034Y195605D01*
X35134Y195232D01*
X34576Y194804D01*
X34127Y195025D01*
Y195500D01*
X34127Y195500D01*
X34019Y196046D01*
X33709Y196509D01*
X33709Y196509D01*
X31109Y199109D01*
X30646Y199419D01*
X30100Y199527D01*
X30100Y199527D01*
X26181D01*
X26083Y199764D01*
X25554Y200454D01*
X24864Y200982D01*
X24061Y201315D01*
X23200Y201429D01*
X22339Y201315D01*
X21536Y200982D01*
X20846Y200454D01*
X20317Y199764D01*
X19985Y198961D01*
X19872Y198100D01*
X19985Y197239D01*
X20317Y196436D01*
X20846Y195746D01*
X21536Y195218D01*
X22339Y194885D01*
X23200Y194772D01*
X23400Y194596D01*
Y188400D01*
X28581D01*
X29273Y187709D01*
Y185700D01*
X29273Y185700D01*
X29381Y185154D01*
X29691Y184691D01*
X29773Y184609D01*
Y163600D01*
X23400D01*
Y158419D01*
X14991Y150009D01*
X14681Y149546D01*
X14573Y149000D01*
X14573Y149000D01*
Y97000D01*
X14573Y97000D01*
X14681Y96454D01*
X14991Y95991D01*
X17191Y93791D01*
X17654Y93481D01*
X18200Y93373D01*
X18200Y93373D01*
X49674D01*
X56212Y86835D01*
X56675Y86525D01*
X57222Y86417D01*
X57222Y86417D01*
X69500D01*
X69500Y86417D01*
X70046Y86525D01*
X70117Y86573D01*
X87464D01*
X87862Y85611D01*
X88621Y84622D01*
X89611Y83862D01*
X90763Y83385D01*
X91750Y83255D01*
X91750D01*
X91788Y83250D01*
Y82750D01*
X90763Y82615D01*
X89611Y82138D01*
X88621Y81379D01*
X87862Y80389D01*
X87385Y79237D01*
X87222Y78000D01*
X87385Y76763D01*
X87862Y75611D01*
X88621Y74621D01*
X89611Y73862D01*
X90763Y73385D01*
X91788Y73250D01*
Y72750D01*
X90763Y72615D01*
X89611Y72138D01*
X88621Y71378D01*
X87862Y70389D01*
X87385Y69237D01*
X87222Y68000D01*
X87385Y66763D01*
X87862Y65611D01*
X88621Y64622D01*
X89611Y63862D01*
X90763Y63385D01*
X91788Y63250D01*
Y62750D01*
X90763Y62615D01*
X89611Y62138D01*
X88621Y61379D01*
X87862Y60389D01*
X87464Y59427D01*
X65891D01*
X62509Y62809D01*
X62046Y63119D01*
X61500Y63227D01*
X61500Y63227D01*
X42981D01*
X42882Y63464D01*
X42354Y64154D01*
X41664Y64683D01*
X40861Y65015D01*
X40000Y65128D01*
X39138Y65015D01*
X38336Y64683D01*
X37646Y64154D01*
X37117Y63464D01*
X36785Y62661D01*
X36672Y61800D01*
X36785Y60939D01*
X37117Y60136D01*
X37646Y59446D01*
X38336Y58917D01*
X39138Y58585D01*
X40000Y58472D01*
X40861Y58585D01*
X41664Y58917D01*
X42354Y59446D01*
X42882Y60136D01*
X42981Y60373D01*
X60909D01*
X63331Y57951D01*
X63170Y57477D01*
X63072Y57464D01*
X62207Y57106D01*
X61464Y56536D01*
X60894Y55793D01*
X60536Y54928D01*
X60479Y54500D01*
X67521D01*
X67464Y54928D01*
X67106Y55793D01*
X66536Y56536D01*
X66549Y56573D01*
X87464D01*
X87862Y55611D01*
X88621Y54621D01*
X89611Y53862D01*
X90763Y53385D01*
X91788Y53250D01*
Y52750D01*
X90763Y52615D01*
X89611Y52138D01*
X88621Y51379D01*
X87862Y50389D01*
X87385Y49237D01*
X87222Y48000D01*
X87385Y46763D01*
X87862Y45611D01*
X88621Y44622D01*
X89611Y43862D01*
X90763Y43385D01*
X91788Y43250D01*
Y42750D01*
X90763Y42615D01*
X89611Y42138D01*
X88621Y41379D01*
X87862Y40389D01*
X87385Y39237D01*
X87222Y38000D01*
X87385Y36763D01*
X87862Y35611D01*
X88621Y34622D01*
X89611Y33862D01*
X90763Y33385D01*
X91895Y33236D01*
X91877Y32968D01*
X91646Y32737D01*
X87263D01*
Y26219D01*
X71134Y10090D01*
X69721D01*
Y12737D01*
X58279D01*
Y3263D01*
X61682D01*
X61779Y2772D01*
X60627Y2295D01*
X59637Y1536D01*
X58878Y546D01*
X58401Y-606D01*
X58238Y-1843D01*
X58401Y-3079D01*
X58878Y-4231D01*
X59637Y-5221D01*
X60627Y-5980D01*
X61779Y-6458D01*
X62205Y-6514D01*
Y-7014D01*
X61779Y-7070D01*
X60627Y-7547D01*
X59637Y-8307D01*
X58878Y-9296D01*
X58401Y-10448D01*
X58238Y-11685D01*
X58401Y-12922D01*
X58878Y-14074D01*
X59637Y-15064D01*
X60627Y-15823D01*
X61779Y-16300D01*
X62206Y-16356D01*
Y-16856D01*
X61779Y-16913D01*
X60627Y-17390D01*
X59637Y-18149D01*
X58878Y-19139D01*
X58401Y-20291D01*
X58304Y-21028D01*
X64001D01*
Y-21527D01*
X64500D01*
Y-26305D01*
X64984D01*
X66221Y-26143D01*
X67373Y-25665D01*
X68363Y-24906D01*
X69122Y-23916D01*
X69520Y-22955D01*
X81236D01*
X86191Y-27909D01*
X86191Y-27909D01*
X86654Y-28219D01*
X86654Y-28219D01*
X86654Y-28219D01*
D01*
X86654Y-28219D01*
X86654Y-28219D01*
X87200Y-28327D01*
X87200Y-28327D01*
X97900D01*
X97900Y-28327D01*
X98446Y-28219D01*
X98909Y-27909D01*
X104801Y-22018D01*
X105263Y-22209D01*
Y-30737D01*
X114737D01*
Y-21263D01*
X106209D01*
X106018Y-20801D01*
X106191Y-20627D01*
X160609D01*
X164989Y-25007D01*
X164919Y-25174D01*
X164876Y-25500D01*
X167500D01*
Y-22876D01*
X167174Y-22919D01*
X167007Y-22988D01*
X162209Y-18191D01*
X161746Y-17881D01*
X161200Y-17773D01*
X161200Y-17773D01*
X105600D01*
X105054Y-17881D01*
X104868Y-18005D01*
X104591Y-18191D01*
X104591Y-18191D01*
X99404Y-23378D01*
X98988Y-23100D01*
X99127Y-22764D01*
X99290Y-21528D01*
X99127Y-20291D01*
X98650Y-19139D01*
X97890Y-18149D01*
X96901Y-17390D01*
X95749Y-16913D01*
X94512Y-16750D01*
Y-16463D01*
X95749Y-16300D01*
X96901Y-15823D01*
X97890Y-15064D01*
X98650Y-14074D01*
X99127Y-12922D01*
X99290Y-11685D01*
X99127Y-10448D01*
X98650Y-9296D01*
X97890Y-8307D01*
X96901Y-7547D01*
X95749Y-7070D01*
X95322Y-7014D01*
Y-6514D01*
X95749Y-6458D01*
X96901Y-5980D01*
X97890Y-5221D01*
X98650Y-4231D01*
X99127Y-3079D01*
X99290Y-1843D01*
X99127Y-606D01*
X98650Y546D01*
X97890Y1536D01*
X96901Y2295D01*
X95749Y2772D01*
X94911Y2883D01*
X94846Y3209D01*
X94874Y3270D01*
X95749Y3385D01*
X96901Y3862D01*
X97890Y4622D01*
X98650Y5611D01*
X99048Y6573D01*
X160441D01*
X160441Y6573D01*
X160987Y6681D01*
X161014Y6699D01*
X161400Y6382D01*
X161185Y5861D01*
X161072Y5000D01*
X161185Y4138D01*
X161283Y3902D01*
X160709Y3327D01*
X128400D01*
X127854Y3219D01*
X127668Y3095D01*
X127391Y2909D01*
X127391Y2909D01*
X119794Y-4687D01*
X119428Y-4536D01*
X118500Y-4413D01*
X117572Y-4536D01*
X116707Y-4894D01*
X115964Y-5464D01*
X115394Y-6207D01*
X115036Y-7072D01*
X114913Y-8000D01*
X115036Y-8928D01*
X115394Y-9793D01*
X115964Y-10536D01*
X116707Y-11106D01*
X117572Y-11464D01*
X118500Y-11587D01*
X119428Y-11464D01*
X120293Y-11106D01*
X121036Y-10536D01*
X121606Y-9793D01*
X121964Y-8928D01*
X122087Y-8000D01*
X121964Y-7072D01*
X121813Y-6706D01*
X128991Y473D01*
X161300D01*
X161300Y473D01*
X161846Y581D01*
X162309Y891D01*
X163302Y1883D01*
X163539Y1785D01*
X164400Y1671D01*
X165261Y1785D01*
X166064Y2117D01*
X166754Y2646D01*
X167282Y3336D01*
X167615Y4138D01*
X167728Y5000D01*
X167615Y5861D01*
X167282Y6664D01*
X166754Y7354D01*
X166826Y7566D01*
X182794D01*
X182794Y7566D01*
X183340Y7675D01*
X183803Y7984D01*
X194191Y18373D01*
X279139D01*
X279300Y17899D01*
X278622Y17379D01*
X277862Y16389D01*
X277464Y15427D01*
X276000D01*
X276000Y15427D01*
X275454Y15319D01*
X275268Y15195D01*
X274991Y15009D01*
X274991Y15009D01*
X258198Y-1783D01*
X257237Y-1385D01*
X256500Y-1288D01*
Y-5500D01*
X260712D01*
X260615Y-4763D01*
X260217Y-3802D01*
X276591Y12573D01*
X277464D01*
X277862Y11611D01*
X278622Y10622D01*
X279611Y9862D01*
X280763Y9385D01*
X281500Y9288D01*
Y14001D01*
X281999D01*
Y14500D01*
X286712D01*
X286615Y15237D01*
X286138Y16389D01*
X285379Y17379D01*
X284389Y18138D01*
X284436Y18373D01*
X355609D01*
X357783Y16198D01*
X357385Y15237D01*
X357222Y14000D01*
X357385Y12763D01*
X357862Y11611D01*
X358622Y10622D01*
X359611Y9862D01*
X360763Y9385D01*
X362000Y9222D01*
X363237Y9385D01*
X364389Y9862D01*
X365378Y10622D01*
X366138Y11611D01*
X366615Y12763D01*
X366778Y14000D01*
X366615Y15237D01*
X366138Y16389D01*
X365378Y17379D01*
X364389Y18138D01*
X363237Y18615D01*
X362000Y18778D01*
X360763Y18615D01*
X359802Y18217D01*
X357209Y20809D01*
X356746Y21119D01*
X356200Y21227D01*
X356200Y21227D01*
X193600D01*
X193600Y21227D01*
X193054Y21119D01*
X192591Y20809D01*
X192591Y20809D01*
X182202Y10421D01*
X161435D01*
X160889Y10312D01*
X160703Y10188D01*
X160425Y10003D01*
X160425Y10003D01*
X159850Y9427D01*
X99048D01*
X98650Y10389D01*
X97890Y11378D01*
X97815Y11436D01*
X97976Y11910D01*
X153837D01*
X153837Y11910D01*
X154383Y12018D01*
X154847Y12328D01*
X168519Y26000D01*
X169008Y25798D01*
X170000Y25667D01*
X170992Y25798D01*
X171916Y26181D01*
X172710Y26790D01*
X173319Y27584D01*
X173702Y28508D01*
X173833Y29500D01*
X173702Y30492D01*
X173319Y31416D01*
X172710Y32210D01*
X171916Y32819D01*
X170992Y33202D01*
X170000Y33333D01*
X169008Y33202D01*
X168084Y32819D01*
X167290Y32210D01*
X166681Y31416D01*
X166298Y30492D01*
X166167Y29500D01*
X166298Y28508D01*
X166500Y28019D01*
X153246Y14765D01*
X137437D01*
X137245Y15227D01*
X168519Y46500D01*
X169008Y46298D01*
X170000Y46167D01*
X170992Y46298D01*
X171916Y46681D01*
X172710Y47290D01*
X173319Y48084D01*
X173702Y49008D01*
X173833Y50000D01*
X173702Y50992D01*
X173319Y51916D01*
X172710Y52710D01*
X171916Y53319D01*
X170992Y53702D01*
X170000Y53833D01*
X169008Y53702D01*
X168084Y53319D01*
X167290Y52710D01*
X166681Y51916D01*
X166298Y50992D01*
X166167Y50000D01*
X166298Y49008D01*
X166500Y48519D01*
X134746Y16765D01*
X112803D01*
X112643Y17238D01*
X112710Y17290D01*
X113319Y18084D01*
X113702Y19008D01*
X113833Y20000D01*
X113702Y20992D01*
X113319Y21916D01*
X112710Y22710D01*
X111916Y23319D01*
X110992Y23702D01*
X110000Y23833D01*
X109008Y23702D01*
X108084Y23319D01*
X107290Y22710D01*
X106814Y22090D01*
X100866D01*
X96737Y26219D01*
Y32737D01*
X92138D01*
X92106Y33229D01*
D01*
X92105Y33236D01*
X93237Y33385D01*
X94389Y33862D01*
X95379Y34622D01*
X96138Y35611D01*
X96615Y36763D01*
X96778Y38000D01*
X96615Y39237D01*
X96138Y40389D01*
X95379Y41379D01*
X94389Y42138D01*
X93237Y42615D01*
X92212Y42750D01*
Y43250D01*
X93237Y43385D01*
X94389Y43862D01*
X95379Y44622D01*
X96138Y45611D01*
X96615Y46763D01*
X96778Y48000D01*
X96615Y49237D01*
X96138Y50389D01*
X95379Y51379D01*
X94389Y52138D01*
X93237Y52615D01*
X92212Y52750D01*
Y53250D01*
X93237Y53385D01*
X94389Y53862D01*
X95379Y54621D01*
X96138Y55611D01*
X96615Y56763D01*
X96778Y58000D01*
X96615Y59237D01*
X96138Y60389D01*
X95379Y61379D01*
X94389Y62138D01*
X93237Y62615D01*
X92212Y62750D01*
Y63250D01*
X93237Y63385D01*
X94389Y63862D01*
X95379Y64622D01*
X96138Y65611D01*
X96615Y66763D01*
X96778Y68000D01*
X96615Y69237D01*
X96138Y70389D01*
X95379Y71378D01*
X94389Y72138D01*
X93237Y72615D01*
X92212Y72750D01*
Y73250D01*
X93237Y73385D01*
X94389Y73862D01*
X95379Y74621D01*
X96138Y75611D01*
X96615Y76763D01*
X96778Y78000D01*
X96615Y79237D01*
X96217Y80198D01*
X100191Y84173D01*
X108862D01*
X108960Y83682D01*
X108084Y83319D01*
X107290Y82710D01*
X106681Y81916D01*
X106298Y80992D01*
X106167Y80000D01*
X106298Y79008D01*
X106681Y78084D01*
X107290Y77290D01*
X108084Y76681D01*
X109008Y76298D01*
X110000Y76167D01*
X110992Y76298D01*
X111916Y76681D01*
X112710Y77290D01*
X113319Y78084D01*
X113702Y79008D01*
X113833Y80000D01*
X113702Y80992D01*
X113319Y81916D01*
X112710Y82710D01*
X111916Y83319D01*
X111040Y83682D01*
X111138Y84173D01*
X168862D01*
X168960Y83682D01*
X168084Y83319D01*
X167290Y82710D01*
X166681Y81916D01*
X166298Y80992D01*
X166167Y80000D01*
X166298Y79008D01*
X166681Y78084D01*
X167290Y77290D01*
X168084Y76681D01*
X169008Y76298D01*
X170000Y76167D01*
X170992Y76298D01*
X171916Y76681D01*
X172710Y77290D01*
X173319Y78084D01*
X173702Y79008D01*
X173833Y80000D01*
X173702Y80992D01*
X173319Y81916D01*
X172710Y82710D01*
X171916Y83319D01*
X171040Y83682D01*
X171138Y84173D01*
X189900D01*
X189900Y84173D01*
X190446Y84281D01*
X190909Y84591D01*
X205202Y98883D01*
X205438Y98785D01*
X206300Y98672D01*
X207161Y98785D01*
X207964Y99117D01*
X208654Y99646D01*
X209183Y100336D01*
X209515Y101138D01*
X209629Y102000D01*
X209515Y102861D01*
X209183Y103664D01*
X208654Y104354D01*
X207964Y104883D01*
X207161Y105215D01*
X206300Y105329D01*
X205438Y105215D01*
X204636Y104883D01*
X203946Y104354D01*
X203417Y103664D01*
X203085Y102861D01*
X202972Y102000D01*
X203085Y101138D01*
X203183Y100902D01*
X189309Y87027D01*
X173074D01*
X172853Y87476D01*
X173319Y88084D01*
X173702Y89008D01*
X173833Y90000D01*
X173702Y90992D01*
X173319Y91916D01*
X172710Y92710D01*
X171916Y93319D01*
X170992Y93702D01*
X170000Y93833D01*
X169008Y93702D01*
X168084Y93319D01*
X167290Y92710D01*
X166681Y91916D01*
X166298Y90992D01*
X166167Y90000D01*
X166298Y89008D01*
X166681Y88084D01*
X167147Y87476D01*
X166926Y87027D01*
X113074D01*
X112853Y87476D01*
X113319Y88084D01*
X113702Y89008D01*
X113833Y90000D01*
X113702Y90992D01*
X113319Y91916D01*
X112710Y92710D01*
X111916Y93319D01*
X111967Y93573D01*
X165000D01*
X165000Y93573D01*
X165546Y93681D01*
X166009Y93991D01*
X168519Y96500D01*
X169008Y96298D01*
X170000Y96167D01*
X170992Y96298D01*
X171916Y96681D01*
X172710Y97290D01*
X173319Y98084D01*
X173702Y99008D01*
X173833Y100000D01*
X173702Y100992D01*
X173500Y101481D01*
X193891Y121873D01*
X268300D01*
X268300Y121873D01*
X268846Y121981D01*
X269309Y122291D01*
X308007Y160988D01*
X308174Y160919D01*
X309000Y160810D01*
X309825Y160919D01*
X310595Y161238D01*
X311255Y161745D01*
X311762Y162405D01*
X312081Y163174D01*
X312190Y164000D01*
X312081Y164825D01*
X311762Y165595D01*
X311255Y166255D01*
X310595Y166762D01*
X309825Y167081D01*
X309000Y167190D01*
X308174Y167081D01*
X307405Y166762D01*
X306745Y166255D01*
X306238Y165595D01*
X305919Y164825D01*
X305810Y164000D01*
X305919Y163174D01*
X305989Y163007D01*
X267709Y124727D01*
X193300D01*
X193300Y124727D01*
X192754Y124619D01*
X192291Y124309D01*
X192291Y124309D01*
X171481Y103500D01*
X170992Y103702D01*
X170000Y103833D01*
X169008Y103702D01*
X168084Y103319D01*
X167290Y102710D01*
X166681Y101916D01*
X166298Y100992D01*
X166167Y100000D01*
X166298Y99008D01*
X166500Y98519D01*
X164409Y96427D01*
X112364D01*
X112203Y96901D01*
X112710Y97290D01*
X113319Y98084D01*
X113702Y99008D01*
X113833Y100000D01*
X113702Y100992D01*
X113500Y101481D01*
X115409Y103391D01*
X115719Y103854D01*
X115827Y104400D01*
X115827Y104400D01*
Y112600D01*
X115719Y113146D01*
X115595Y113332D01*
X115409Y113609D01*
X115409Y113609D01*
X113009Y116009D01*
X112546Y116319D01*
X112000Y116427D01*
X112000D01*
X111967Y116427D01*
X111916Y116681D01*
X112710Y117290D01*
X113319Y118084D01*
X113702Y119008D01*
X113833Y120000D01*
X113702Y120992D01*
X113319Y121916D01*
X112710Y122710D01*
X112799Y122973D01*
X164400D01*
X164400Y122973D01*
X164946Y123081D01*
X165409Y123391D01*
X168519Y126500D01*
X169008Y126298D01*
X170000Y126167D01*
X170992Y126298D01*
X171916Y126681D01*
X172710Y127290D01*
X173319Y128084D01*
X173702Y129008D01*
X173833Y130000D01*
X173702Y130992D01*
X173319Y131916D01*
X172710Y132710D01*
X171916Y133319D01*
X171967Y133573D01*
X214400D01*
X214400Y133573D01*
X214946Y133681D01*
X215409Y133991D01*
X256191Y174773D01*
X307409D01*
X337573Y144609D01*
Y97162D01*
X335838D01*
Y90838D01*
X340066D01*
X340257Y90376D01*
X339409Y89527D01*
X338267D01*
X337720Y89419D01*
X337535Y89295D01*
X337452Y89239D01*
X336363Y89691D01*
X335083Y89859D01*
X333804Y89691D01*
X332612Y89197D01*
X331589Y88411D01*
X330803Y87388D01*
X330310Y86196D01*
X330141Y84917D01*
X330310Y83638D01*
X330803Y82446D01*
X331589Y81422D01*
X332612Y80637D01*
X333804Y80143D01*
X335083Y79975D01*
X336363Y80143D01*
X337555Y80637D01*
X338578Y81422D01*
X339364Y82446D01*
X339857Y83638D01*
X340026Y84917D01*
X339857Y86196D01*
X339790Y86358D01*
X340000Y86673D01*
X340000D01*
D01*
X340000D01*
X340000D01*
X340000Y86673D01*
D01*
X340000Y86673D01*
X340546Y86781D01*
X341009Y87091D01*
X349209Y95291D01*
X349209Y95291D01*
X349519Y95754D01*
X349519Y95754D01*
X349519Y95754D01*
X349627Y96300D01*
X349627Y96300D01*
Y246100D01*
X349627Y246100D01*
X349519Y246646D01*
X349209Y247109D01*
X349209Y247109D01*
X348809Y247509D01*
X348346Y247819D01*
X347800Y247927D01*
X347800Y247927D01*
X212091D01*
X195753Y264266D01*
Y269753D01*
D02*
G37*
G36*
X202000Y269785D02*
X201020Y269656D01*
X200107Y269278D01*
X199323Y268676D01*
X198722Y267893D01*
X198344Y266980D01*
X198215Y266000D01*
X198344Y265020D01*
X198722Y264107D01*
X199323Y263323D01*
X200107Y262722D01*
X201020Y262344D01*
X202000Y262215D01*
X202980Y262344D01*
X203893Y262722D01*
X204677Y263323D01*
X205278Y264107D01*
X205656Y265020D01*
X205785Y266000D01*
X205656Y266980D01*
X205278Y267893D01*
X204677Y268676D01*
X203893Y269278D01*
X202980Y269656D01*
X202000Y269785D01*
D02*
G37*
G36*
X327124Y269500D02*
X324500D01*
Y266876D01*
X324826Y266919D01*
X325595Y267238D01*
X326255Y267745D01*
X326762Y268405D01*
X327081Y269175D01*
X327124Y269500D01*
D02*
G37*
G36*
X323500D02*
X320876D01*
X320919Y269175D01*
X321238Y268405D01*
X321745Y267745D01*
X322405Y267238D01*
X323175Y266919D01*
X323500Y266876D01*
Y269500D01*
D02*
G37*
G36*
X324500Y273124D02*
Y270500D01*
X327124D01*
X327081Y270826D01*
X326762Y271595D01*
X326255Y272255D01*
X325595Y272762D01*
X324826Y273081D01*
X324500Y273124D01*
D02*
G37*
G36*
X323500D02*
X323175Y273081D01*
X322405Y272762D01*
X321745Y272255D01*
X321238Y271595D01*
X320919Y270826D01*
X320876Y270500D01*
X323500D01*
Y273124D01*
D02*
G37*
G36*
X344000Y273189D02*
X343175Y273081D01*
X342405Y272762D01*
X341745Y272255D01*
X341238Y271595D01*
X340919Y270826D01*
X340810Y270000D01*
X340919Y269175D01*
X341238Y268405D01*
X341745Y267745D01*
X342405Y267238D01*
X343175Y266919D01*
X344000Y266810D01*
X344826Y266919D01*
X345595Y267238D01*
X346255Y267745D01*
X346762Y268405D01*
X347081Y269175D01*
X347189Y270000D01*
X347081Y270826D01*
X346762Y271595D01*
X346255Y272255D01*
X345595Y272762D01*
X344826Y273081D01*
X344000Y273189D01*
D02*
G37*
G36*
X141719Y265500D02*
X138500D01*
Y262281D01*
X138980Y262344D01*
X139893Y262722D01*
X140676Y263323D01*
X141278Y264107D01*
X141656Y265020D01*
X141719Y265500D01*
D02*
G37*
G36*
X137500D02*
X134281D01*
X134344Y265020D01*
X134722Y264107D01*
X135324Y263323D01*
X136107Y262722D01*
X137020Y262344D01*
X137500Y262281D01*
Y265500D01*
D02*
G37*
G36*
X138500Y269719D02*
Y266500D01*
X141719D01*
X141656Y266980D01*
X141278Y267893D01*
X140676Y268676D01*
X139893Y269278D01*
X138980Y269656D01*
X138500Y269719D01*
D02*
G37*
G36*
X137500D02*
X137020Y269656D01*
X136107Y269278D01*
X135324Y268676D01*
X134722Y267893D01*
X134344Y266980D01*
X134281Y266500D01*
X137500D01*
Y269719D01*
D02*
G37*
G36*
X195500Y-22876D02*
X195175Y-22919D01*
X194405Y-23238D01*
X193745Y-23745D01*
X193238Y-24405D01*
X193168Y-24573D01*
X170832D01*
X170762Y-24405D01*
X170255Y-23745D01*
X169595Y-23238D01*
X168825Y-22919D01*
X168500Y-22876D01*
Y-26001D01*
Y-29124D01*
X168825Y-29081D01*
X169595Y-28762D01*
X170255Y-28255D01*
X170762Y-27595D01*
X170832Y-27427D01*
X193168D01*
X193238Y-27595D01*
X193745Y-28255D01*
X194405Y-28762D01*
X195175Y-29081D01*
X195500Y-29124D01*
Y-26001D01*
Y-22876D01*
D02*
G37*
G36*
X46992Y-14674D02*
X45858Y-14823D01*
X44802Y-15261D01*
X43894Y-15957D01*
X43198Y-16865D01*
X42882Y-17628D01*
X25118D01*
X24802Y-16865D01*
X24106Y-15957D01*
X23198Y-15261D01*
X22142Y-14823D01*
X21008Y-14674D01*
X19874Y-14823D01*
X18818Y-15261D01*
X17910Y-15957D01*
X17214Y-16865D01*
X16777Y-17921D01*
X16627Y-19055D01*
X16777Y-20189D01*
X17214Y-21245D01*
X17910Y-22153D01*
X18818Y-22849D01*
X19874Y-23287D01*
X21008Y-23436D01*
X22142Y-23287D01*
X23198Y-22849D01*
X24106Y-22153D01*
X24802Y-21245D01*
X25118Y-20482D01*
X42882D01*
X43198Y-21245D01*
X43894Y-22153D01*
X44802Y-22849D01*
X45858Y-23287D01*
X46992Y-23436D01*
X48126Y-23287D01*
X49183Y-22849D01*
X50090Y-22153D01*
X50786Y-21245D01*
X51224Y-20189D01*
X51373Y-19055D01*
X51224Y-17921D01*
X50786Y-16865D01*
X50090Y-15957D01*
X49183Y-15261D01*
X48126Y-14823D01*
X46992Y-14674D01*
D02*
G37*
G36*
X167500Y-26500D02*
X164876D01*
X164919Y-26825D01*
X165238Y-27595D01*
X165745Y-28255D01*
X166405Y-28762D01*
X167174Y-29081D01*
X167500Y-29124D01*
Y-26500D01*
D02*
G37*
G36*
X63500Y-22028D02*
X58304D01*
X58401Y-22764D01*
X58878Y-23916D01*
X59637Y-24906D01*
X60627Y-25665D01*
X61779Y-26143D01*
X63016Y-26305D01*
X63500D01*
Y-22028D01*
D02*
G37*
G36*
X226000Y-1222D02*
X224763Y-1385D01*
X223611Y-1862D01*
X222621Y-2622D01*
X221862Y-3611D01*
X221385Y-4763D01*
X221222Y-6000D01*
X221385Y-7237D01*
X221862Y-8389D01*
X222621Y-9379D01*
X223611Y-10138D01*
X224763Y-10615D01*
X226000Y-10778D01*
X227237Y-10615D01*
X228389Y-10138D01*
X229379Y-9379D01*
X230138Y-8389D01*
X230615Y-7237D01*
X230778Y-6000D01*
X230615Y-4763D01*
X230138Y-3611D01*
X229379Y-2622D01*
X228389Y-1862D01*
X227237Y-1385D01*
X226000Y-1222D01*
D02*
G37*
G36*
X191800Y-373D02*
X191800Y-373D01*
X143913D01*
X143366Y-481D01*
X143181Y-605D01*
X142903Y-791D01*
X142903Y-791D01*
X139007Y-4687D01*
X138641Y-4536D01*
X137713Y-4413D01*
X136784Y-4536D01*
X135919Y-4894D01*
X135177Y-5464D01*
X134607Y-6207D01*
X134248Y-7072D01*
X134126Y-8000D01*
X134248Y-8928D01*
X134607Y-9793D01*
X135177Y-10536D01*
X135919Y-11106D01*
X136784Y-11464D01*
X137713Y-11587D01*
X138641Y-11464D01*
X139506Y-11106D01*
X140249Y-10536D01*
X140819Y-9793D01*
X141177Y-8928D01*
X141299Y-8000D01*
X141177Y-7072D01*
X141025Y-6706D01*
X144504Y-3227D01*
X165641D01*
X165802Y-3701D01*
X165745Y-3745D01*
X165238Y-4405D01*
X164919Y-5175D01*
X164811Y-6000D01*
X164919Y-6825D01*
X165238Y-7595D01*
X165745Y-8255D01*
X166405Y-8762D01*
X167174Y-9081D01*
X168000Y-9189D01*
X168825Y-9081D01*
X169595Y-8762D01*
X170255Y-8255D01*
X170762Y-7595D01*
X171081Y-6825D01*
X171189Y-6000D01*
X171081Y-5175D01*
X170762Y-4405D01*
X170255Y-3745D01*
X169595Y-3238D01*
X169597Y-3227D01*
X191209D01*
X192989Y-5007D01*
X192919Y-5175D01*
X192810Y-6000D01*
X192919Y-6825D01*
X193238Y-7595D01*
X193745Y-8255D01*
X194405Y-8762D01*
X195175Y-9081D01*
X196000Y-9189D01*
X196826Y-9081D01*
X197595Y-8762D01*
X198255Y-8255D01*
X198762Y-7595D01*
X199081Y-6825D01*
X199189Y-6000D01*
X199081Y-5175D01*
X198762Y-4405D01*
X198255Y-3745D01*
X197595Y-3238D01*
X196826Y-2919D01*
X196000Y-2811D01*
X195175Y-2919D01*
X195007Y-2988D01*
X192809Y-791D01*
X192346Y-481D01*
X191800Y-373D01*
D02*
G37*
G36*
X255500Y-1288D02*
X254763Y-1385D01*
X253611Y-1862D01*
X252622Y-2622D01*
X251862Y-3611D01*
X251385Y-4763D01*
X251288Y-5500D01*
X255500D01*
Y-1288D01*
D02*
G37*
G36*
Y-6500D02*
X251288D01*
X251385Y-7237D01*
X251783Y-8198D01*
X235409Y-24573D01*
X198831D01*
X198762Y-24405D01*
X198255Y-23745D01*
X197595Y-23238D01*
X196826Y-22919D01*
X196500Y-22876D01*
Y-26001D01*
Y-29124D01*
X196826Y-29081D01*
X197595Y-28762D01*
X198255Y-28255D01*
X198762Y-27595D01*
X198831Y-27427D01*
X236000D01*
X236000Y-27427D01*
X236546Y-27319D01*
X237009Y-27009D01*
X253802Y-10217D01*
X254763Y-10615D01*
X255500Y-10712D01*
Y-6500D01*
D02*
G37*
G36*
X260712D02*
X256500D01*
Y-10712D01*
X257237Y-10615D01*
X258389Y-10138D01*
X259379Y-9379D01*
X260138Y-8389D01*
X260615Y-7237D01*
X260712Y-6500D01*
D02*
G37*
G36*
X141719Y255500D02*
X138500D01*
Y252281D01*
X138980Y252344D01*
X139893Y252722D01*
X140676Y253324D01*
X141278Y254107D01*
X141656Y255020D01*
X141719Y255500D01*
D02*
G37*
G36*
X150551Y-21222D02*
X149315Y-21385D01*
X148162Y-21862D01*
X147173Y-22622D01*
X146413Y-23611D01*
X145936Y-24763D01*
X145773Y-26000D01*
X145936Y-27237D01*
X146413Y-28389D01*
X147173Y-29379D01*
X148162Y-30138D01*
X149315Y-30615D01*
X150551Y-30778D01*
X151788Y-30615D01*
X152940Y-30138D01*
X153930Y-29379D01*
X154689Y-28389D01*
X155166Y-27237D01*
X155329Y-26000D01*
X155166Y-24763D01*
X154689Y-23611D01*
X153930Y-22622D01*
X152940Y-21862D01*
X151788Y-21385D01*
X150551Y-21222D01*
D02*
G37*
G36*
X137500Y255500D02*
X134281D01*
X134344Y255020D01*
X134722Y254107D01*
X135324Y253324D01*
X136107Y252722D01*
X137020Y252344D01*
X137500Y252281D01*
Y255500D01*
D02*
G37*
G36*
X103500Y259500D02*
X99288D01*
X99385Y258763D01*
X99862Y257611D01*
X100621Y256622D01*
X101611Y255862D01*
X102763Y255385D01*
X103500Y255288D01*
Y259500D01*
D02*
G37*
G36*
X37000Y227732D02*
X36034Y227605D01*
X35134Y227232D01*
X34361Y226639D01*
X33768Y225866D01*
X33395Y224966D01*
X33268Y224000D01*
X33395Y223034D01*
X33768Y222134D01*
X34361Y221361D01*
X35134Y220768D01*
X36034Y220395D01*
X37000Y220268D01*
X37966Y220395D01*
X38866Y220768D01*
X39639Y221361D01*
X40232Y222134D01*
X40605Y223034D01*
X40732Y224000D01*
X40605Y224966D01*
X40232Y225866D01*
X39639Y226639D01*
X38866Y227232D01*
X37966Y227605D01*
X37000Y227732D01*
D02*
G37*
G36*
X108712Y259500D02*
X104500D01*
Y255288D01*
X105237Y255385D01*
X106389Y255862D01*
X107378Y256622D01*
X108138Y257611D01*
X108615Y258763D01*
X108712Y259500D01*
D02*
G37*
G36*
X66600Y227600D02*
X59400D01*
Y220400D01*
X66600D01*
Y227600D01*
D02*
G37*
%LPD*%
G36*
X68500Y112876D02*
X68486Y112874D01*
X68707Y112426D01*
X58791Y102509D01*
X58481Y102046D01*
X58373Y101500D01*
X58373Y101500D01*
Y92044D01*
X58373Y92044D01*
X58481Y91498D01*
X58791Y91035D01*
X60092Y89733D01*
X59901Y89271D01*
X57813D01*
X51275Y95809D01*
X50812Y96119D01*
X50266Y96227D01*
X50266Y96227D01*
X18791D01*
X17427Y97591D01*
Y101809D01*
X17901Y101970D01*
X17910Y101957D01*
X18818Y101261D01*
X19874Y100824D01*
X20508Y100740D01*
Y105054D01*
Y109370D01*
X19874Y109287D01*
X18818Y108849D01*
X17910Y108153D01*
X17901Y108141D01*
X17427Y108301D01*
Y113902D01*
X17889Y114093D01*
X18991Y112992D01*
X18991Y112992D01*
X19454Y112683D01*
X19454Y112683D01*
X19454Y112683D01*
D01*
X19454Y112683D01*
X19454Y112683D01*
X20000Y112574D01*
X20000Y112574D01*
X51839D01*
X52030Y112112D01*
X48889Y108971D01*
X48126Y109287D01*
X47492Y109370D01*
Y105555D01*
X51307D01*
X51224Y106189D01*
X50908Y106952D01*
X58528Y114573D01*
X65168D01*
X65238Y114405D01*
X65745Y113745D01*
X66405Y113238D01*
X67175Y112919D01*
X67500Y112876D01*
Y116001D01*
X68500D01*
Y112876D01*
D02*
G37*
G36*
X343410Y171366D02*
X339206Y167162D01*
X335838D01*
Y160838D01*
X342162D01*
Y164206D01*
X346311Y168355D01*
X346773Y168163D01*
Y96891D01*
X342624Y92743D01*
X342162Y92934D01*
Y97162D01*
X340427D01*
Y145200D01*
X340427Y145200D01*
X340319Y145746D01*
X340009Y146209D01*
X309009Y177209D01*
X308546Y177519D01*
X308000Y177627D01*
X308000Y177627D01*
X255600D01*
X255600Y177627D01*
X255054Y177519D01*
X254591Y177209D01*
X254591Y177209D01*
X213809Y136427D01*
X172364D01*
X172203Y136901D01*
X172710Y137290D01*
X173319Y138084D01*
X173702Y139008D01*
X173833Y140000D01*
X173702Y140992D01*
X173319Y141916D01*
X172710Y142710D01*
X171916Y143319D01*
X170992Y143702D01*
X170000Y143833D01*
X169008Y143702D01*
X168519Y143500D01*
X166609Y145409D01*
X166146Y145719D01*
X165600Y145827D01*
X165600Y145827D01*
X111138D01*
X111040Y146318D01*
X111916Y146681D01*
X112710Y147290D01*
X113319Y148084D01*
X113702Y149008D01*
X113833Y150000D01*
X113702Y150992D01*
X113319Y151916D01*
X112710Y152710D01*
X111916Y153319D01*
X110992Y153702D01*
X110000Y153833D01*
X109008Y153702D01*
X108084Y153319D01*
X107290Y152710D01*
X106681Y151916D01*
X106298Y150992D01*
X106167Y150000D01*
X106298Y149008D01*
X106681Y148084D01*
X107290Y147290D01*
X108084Y146681D01*
X108960Y146318D01*
X108862Y145827D01*
X104651D01*
X104430Y146276D01*
X104782Y146736D01*
X105115Y147538D01*
X105228Y148400D01*
X105115Y149261D01*
X104782Y150064D01*
X104254Y150754D01*
X103564Y151283D01*
X102761Y151615D01*
X101900Y151728D01*
X101039Y151615D01*
X100236Y151283D01*
X99546Y150754D01*
X99017Y150064D01*
X98919Y149827D01*
X49191D01*
X40423Y158596D01*
X40605Y159034D01*
X40732Y160000D01*
X40605Y160966D01*
X40232Y161866D01*
X39639Y162639D01*
X38866Y163232D01*
X37966Y163605D01*
X37000Y163732D01*
X36034Y163605D01*
X35134Y163232D01*
X34361Y162639D01*
X33768Y161866D01*
X33395Y160966D01*
X33268Y160000D01*
X33395Y159034D01*
X33768Y158134D01*
X34361Y157361D01*
X35134Y156768D01*
X36034Y156395D01*
X37000Y156268D01*
X37966Y156395D01*
X38404Y156577D01*
X47591Y147391D01*
X47591Y147391D01*
X48054Y147081D01*
X48054Y147081D01*
X48054Y147081D01*
D01*
X48054Y147081D01*
X48054Y147081D01*
X48600Y146973D01*
X48600Y146973D01*
X98919D01*
X99017Y146736D01*
X99546Y146046D01*
X100236Y145518D01*
X101039Y145185D01*
X101386Y145139D01*
X101547Y144666D01*
X96509Y139627D01*
X92731D01*
X92509Y140076D01*
X92762Y140405D01*
X93081Y141174D01*
X93124Y141500D01*
X89999D01*
Y141999D01*
X89500D01*
Y145124D01*
X89174Y145081D01*
X88405Y144762D01*
X87745Y144255D01*
X87238Y143595D01*
X87169Y143427D01*
X53937D01*
X53391Y143319D01*
X53205Y143195D01*
X52928Y143009D01*
X52928Y143009D01*
X50889Y140971D01*
X50126Y141287D01*
X49492Y141370D01*
Y137555D01*
X53307D01*
X53224Y138189D01*
X52908Y138952D01*
X54528Y140573D01*
X63601D01*
X63792Y140111D01*
X56109Y132427D01*
X50451D01*
X50353Y132918D01*
X51183Y133261D01*
X52090Y133958D01*
X52786Y134865D01*
X53224Y135921D01*
X53307Y136555D01*
X48991D01*
Y137054D01*
X48492D01*
Y141370D01*
X47858Y141287D01*
X46802Y140849D01*
X45895Y140153D01*
X45198Y139246D01*
X44882Y138483D01*
X27118D01*
X26802Y139246D01*
X26106Y140153D01*
X25198Y140849D01*
X24142Y141287D01*
X23508Y141370D01*
Y137054D01*
Y132740D01*
X23796Y132778D01*
X24100Y132381D01*
X23885Y131861D01*
X23772Y131000D01*
X23885Y130139D01*
X24217Y129336D01*
X24746Y128646D01*
X25436Y128118D01*
X26239Y127785D01*
X27100Y127672D01*
X27962Y127785D01*
X28764Y128118D01*
X29454Y128646D01*
X29983Y129336D01*
X30081Y129573D01*
X53020D01*
X53069Y129075D01*
X52835Y129029D01*
X52372Y128719D01*
X52372Y128719D01*
X47983Y124330D01*
X47673Y123867D01*
X47565Y123320D01*
X47565Y123320D01*
Y123055D01*
X46802Y122739D01*
X45895Y122043D01*
X45198Y121135D01*
X44882Y120372D01*
X27118D01*
X26802Y121135D01*
X26106Y122043D01*
X25198Y122739D01*
X24142Y123177D01*
X23008Y123326D01*
X21874Y123177D01*
X20818Y122739D01*
X19910Y122043D01*
X19901Y122030D01*
X19427Y122191D01*
Y133809D01*
X19901Y133970D01*
X19910Y133958D01*
X20818Y133261D01*
X21874Y132824D01*
X22508Y132740D01*
Y137054D01*
Y141370D01*
X21874Y141287D01*
X20818Y140849D01*
X19910Y140153D01*
X19901Y140141D01*
X19427Y140301D01*
Y142109D01*
X32209Y154891D01*
X32209Y154891D01*
X32519Y155354D01*
X32519Y155354D01*
X32519Y155354D01*
X32627Y155900D01*
X32627Y155900D01*
Y184806D01*
X33014Y185123D01*
X33320Y185062D01*
X54291Y164091D01*
X54291Y164091D01*
X54754Y163781D01*
X54754Y163781D01*
X54754Y163781D01*
D01*
X54754Y163781D01*
X54754Y163781D01*
X55300Y163673D01*
X55300Y163673D01*
X66300D01*
X66300Y163673D01*
X66846Y163781D01*
X67309Y164091D01*
X71709Y168491D01*
X72019Y168954D01*
X72127Y169500D01*
X72127Y169500D01*
Y180975D01*
X72576Y181196D01*
X73134Y180768D01*
X73573Y180586D01*
Y161238D01*
X73573Y161238D01*
X73681Y160692D01*
X73991Y160228D01*
X78991Y155228D01*
X78991Y155228D01*
X79454Y154919D01*
X79454Y154919D01*
X79454Y154919D01*
D01*
X79454Y154919D01*
X79454Y154919D01*
X80000Y154810D01*
X80000Y154810D01*
X93638D01*
X93638Y154810D01*
X94184Y154919D01*
X94647Y155228D01*
X103291Y163873D01*
X107375D01*
X107536Y163399D01*
X107290Y163210D01*
X106681Y162416D01*
X106298Y161492D01*
X106167Y160500D01*
X106298Y159508D01*
X106681Y158584D01*
X107290Y157790D01*
X108084Y157181D01*
X109008Y156798D01*
X110000Y156667D01*
X110992Y156798D01*
X111916Y157181D01*
X112710Y157790D01*
X113319Y158584D01*
X113702Y159508D01*
X113833Y160500D01*
X113702Y161492D01*
X113319Y162416D01*
X112710Y163210D01*
X111916Y163819D01*
X111927Y163873D01*
X120119D01*
X120218Y163636D01*
X120746Y162946D01*
X121436Y162417D01*
X122239Y162085D01*
X123100Y161971D01*
X123961Y162085D01*
X124764Y162417D01*
X125454Y162946D01*
X125982Y163636D01*
X126315Y164438D01*
X126428Y165300D01*
X126315Y166162D01*
X125982Y166964D01*
X125454Y167654D01*
X124764Y168183D01*
X123961Y168515D01*
X123100Y168629D01*
X122239Y168515D01*
X121436Y168183D01*
X120746Y167654D01*
X120218Y166964D01*
X120119Y166727D01*
X112755D01*
X112594Y167201D01*
X112710Y167290D01*
X113319Y168084D01*
X113702Y169008D01*
X113833Y170000D01*
X113702Y170992D01*
X113319Y171916D01*
X112710Y172710D01*
X111916Y173319D01*
X111967Y173573D01*
X164409D01*
X166500Y171481D01*
X166298Y170992D01*
X166167Y170000D01*
X166298Y169008D01*
X166681Y168084D01*
X167290Y167290D01*
X168084Y166681D01*
X169008Y166298D01*
X170000Y166167D01*
X170992Y166298D01*
X171916Y166681D01*
X172710Y167290D01*
X173319Y168084D01*
X173702Y169008D01*
X173833Y170000D01*
X173702Y170992D01*
X173319Y171916D01*
X172710Y172710D01*
X171916Y173319D01*
X170992Y173702D01*
X170000Y173833D01*
X169008Y173702D01*
X168519Y173500D01*
X166009Y176009D01*
X165546Y176319D01*
X165000Y176427D01*
X165000Y176427D01*
X112364D01*
X112203Y176901D01*
X112710Y177290D01*
X113319Y178084D01*
X113702Y179008D01*
X113833Y180000D01*
X113702Y180992D01*
X113319Y181916D01*
X112710Y182710D01*
X111916Y183319D01*
X110992Y183702D01*
X110000Y183833D01*
X109008Y183702D01*
X108084Y183319D01*
X107290Y182710D01*
X106681Y181916D01*
X106298Y180992D01*
X106167Y180000D01*
X106298Y179008D01*
X106681Y178084D01*
X107290Y177290D01*
X107797Y176901D01*
X107636Y176427D01*
X99300D01*
X98754Y176319D01*
X98568Y176195D01*
X98291Y176009D01*
X98291Y176009D01*
X92791Y170509D01*
X92481Y170046D01*
X92373Y169500D01*
X92373Y169500D01*
Y164731D01*
X91924Y164509D01*
X91595Y164762D01*
X91427Y164831D01*
Y202909D01*
X112291Y223773D01*
X123004D01*
X123165Y223299D01*
X122902Y223098D01*
X122206Y222190D01*
X121768Y221134D01*
X121619Y220000D01*
X121768Y218866D01*
X122206Y217810D01*
X122902Y216902D01*
X123810Y216206D01*
X124747Y215818D01*
X124650Y215327D01*
X113900D01*
X113354Y215219D01*
X113168Y215095D01*
X112891Y214909D01*
X112891Y214909D01*
X111481Y213500D01*
X110992Y213702D01*
X110000Y213833D01*
X109008Y213702D01*
X108084Y213319D01*
X107290Y212710D01*
X106681Y211916D01*
X106298Y210992D01*
X106167Y210000D01*
X106298Y209008D01*
X106681Y208084D01*
X107290Y207290D01*
X108084Y206681D01*
X109008Y206298D01*
X110000Y206167D01*
X110992Y206298D01*
X111916Y206681D01*
X112710Y207290D01*
X113319Y208084D01*
X113702Y209008D01*
X113833Y210000D01*
X113702Y210992D01*
X113500Y211481D01*
X114491Y212473D01*
X149900D01*
X149900Y212473D01*
X150446Y212581D01*
X150909Y212891D01*
X154103Y216085D01*
X154866Y215769D01*
X156000Y215619D01*
X157134Y215769D01*
X158190Y216206D01*
X159098Y216902D01*
X159794Y217810D01*
X160231Y218866D01*
X160381Y220000D01*
X160231Y221134D01*
X159794Y222190D01*
X159098Y223098D01*
X158835Y223299D01*
X158996Y223773D01*
X336200D01*
X336200Y223773D01*
X336746Y223881D01*
X337209Y224191D01*
X339857Y226838D01*
X343410D01*
Y171366D01*
D02*
G37*
G36*
X342366Y233494D02*
X342229Y233162D01*
X337838D01*
Y228856D01*
X335609Y226627D01*
X312403D01*
X312305Y227118D01*
X312595Y227238D01*
X313255Y227745D01*
X313762Y228405D01*
X314081Y229174D01*
X314124Y229500D01*
X307876D01*
X307919Y229174D01*
X308238Y228405D01*
X308745Y227745D01*
X309405Y227238D01*
X309695Y227118D01*
X309597Y226627D01*
X208891D01*
X203909Y231609D01*
X203446Y231919D01*
X202900Y232027D01*
X202900Y232027D01*
X141753D01*
Y232247D01*
X141753D01*
Y233910D01*
X342088D01*
X342366Y233494D01*
D02*
G37*
%LPC*%
G36*
X170000Y203833D02*
X169008Y203702D01*
X168084Y203319D01*
X167290Y202710D01*
X166681Y201916D01*
X166298Y200992D01*
X166167Y200000D01*
X166298Y199008D01*
X166681Y198084D01*
X167290Y197290D01*
X168084Y196681D01*
X169008Y196298D01*
X170000Y196167D01*
X170992Y196298D01*
X171916Y196681D01*
X172710Y197290D01*
X173319Y198084D01*
X173702Y199008D01*
X173833Y200000D01*
X173702Y200992D01*
X173319Y201916D01*
X172710Y202710D01*
X171916Y203319D01*
X170992Y203702D01*
X170000Y203833D01*
D02*
G37*
G36*
X335000Y208026D02*
X333721Y207857D01*
X332529Y207364D01*
X331505Y206578D01*
X330720Y205555D01*
X330226Y204363D01*
X330058Y203083D01*
X330226Y201804D01*
X330720Y200612D01*
X331505Y199589D01*
X332529Y198803D01*
X333721Y198310D01*
X335000Y198141D01*
X336279Y198310D01*
X337471Y198803D01*
X338495Y199589D01*
X339280Y200612D01*
X339774Y201804D01*
X339942Y203083D01*
X339774Y204363D01*
X339280Y205555D01*
X338495Y206578D01*
X337471Y207364D01*
X336279Y207857D01*
X335000Y208026D01*
D02*
G37*
G36*
X110000Y193833D02*
X109008Y193702D01*
X108084Y193319D01*
X107290Y192710D01*
X106681Y191916D01*
X106298Y190992D01*
X106167Y190000D01*
X106298Y189008D01*
X106681Y188084D01*
X107290Y187290D01*
X108084Y186681D01*
X109008Y186298D01*
X110000Y186167D01*
X110992Y186298D01*
X111916Y186681D01*
X112710Y187290D01*
X113319Y188084D01*
X113702Y189008D01*
X113833Y190000D01*
X113702Y190992D01*
X113319Y191916D01*
X112710Y192710D01*
X111916Y193319D01*
X110992Y193702D01*
X110000Y193833D01*
D02*
G37*
G36*
Y203833D02*
X109008Y203702D01*
X108084Y203319D01*
X107290Y202710D01*
X106681Y201916D01*
X106298Y200992D01*
X106167Y200000D01*
X106298Y199008D01*
X106681Y198084D01*
X107290Y197290D01*
X108084Y196681D01*
X109008Y196298D01*
X110000Y196167D01*
X110992Y196298D01*
X111916Y196681D01*
X112710Y197290D01*
X113319Y198084D01*
X113702Y199008D01*
X113833Y200000D01*
X113702Y200992D01*
X113319Y201916D01*
X112710Y202710D01*
X111916Y203319D01*
X110992Y203702D01*
X110000Y203833D01*
D02*
G37*
G36*
X169500Y209500D02*
X166233D01*
X166298Y209008D01*
X166681Y208084D01*
X167290Y207290D01*
X168084Y206681D01*
X169008Y206298D01*
X169500Y206233D01*
Y209500D01*
D02*
G37*
G36*
X310500Y233124D02*
X310174Y233081D01*
X309405Y232762D01*
X308745Y232255D01*
X308238Y231595D01*
X307919Y230825D01*
X307876Y230500D01*
X310500D01*
Y233124D01*
D02*
G37*
G36*
X311500D02*
Y230500D01*
X314124D01*
X314081Y230825D01*
X313762Y231595D01*
X313255Y232255D01*
X312595Y232762D01*
X311825Y233081D01*
X311500Y233124D01*
D02*
G37*
G36*
X169500Y213767D02*
X169008Y213702D01*
X168084Y213319D01*
X167290Y212710D01*
X166681Y211916D01*
X166298Y210992D01*
X166233Y210500D01*
X169500D01*
Y213767D01*
D02*
G37*
G36*
X330500Y218428D02*
X329639Y218315D01*
X328836Y217983D01*
X328146Y217454D01*
X327618Y216764D01*
X327519Y216527D01*
X269700D01*
X269700Y216527D01*
X269154Y216419D01*
X268691Y216109D01*
X268691Y216109D01*
X230309Y177727D01*
X184291D01*
X173500Y188519D01*
X173702Y189008D01*
X173833Y190000D01*
X173702Y190992D01*
X173319Y191916D01*
X172710Y192710D01*
X171916Y193319D01*
X170992Y193702D01*
X170000Y193833D01*
X169008Y193702D01*
X168084Y193319D01*
X167290Y192710D01*
X166681Y191916D01*
X166298Y190992D01*
X166167Y190000D01*
X166298Y189008D01*
X166681Y188084D01*
X167290Y187290D01*
X168084Y186681D01*
X169008Y186298D01*
X170000Y186167D01*
X170992Y186298D01*
X171481Y186500D01*
X182691Y175291D01*
X182691Y175291D01*
X183154Y174981D01*
X183154Y174981D01*
X183154Y174981D01*
D01*
X183154Y174981D01*
X183154Y174981D01*
X183700Y174873D01*
X183700Y174873D01*
X230900D01*
X230900Y174873D01*
X231446Y174981D01*
X231909Y175291D01*
X270291Y213673D01*
X327519D01*
X327618Y213436D01*
X328146Y212746D01*
X328836Y212217D01*
X329639Y211885D01*
X330500Y211771D01*
X331362Y211885D01*
X332164Y212217D01*
X332854Y212746D01*
X333383Y213436D01*
X333715Y214239D01*
X333828Y215100D01*
X333715Y215962D01*
X333383Y216764D01*
X332854Y217454D01*
X332164Y217983D01*
X331362Y218315D01*
X330500Y218428D01*
D02*
G37*
G36*
X217417Y188210D02*
Y183833D01*
X221793D01*
X221691Y184613D01*
X221197Y185804D01*
X220411Y186828D01*
X219388Y187613D01*
X218196Y188107D01*
X217417Y188210D01*
D02*
G37*
G36*
X90500Y145124D02*
Y142500D01*
X93124D01*
X93081Y142825D01*
X92762Y143595D01*
X92255Y144255D01*
X91595Y144762D01*
X90825Y145081D01*
X90500Y145124D01*
D02*
G37*
G36*
X170000Y153833D02*
X169008Y153702D01*
X168084Y153319D01*
X167290Y152710D01*
X166681Y151916D01*
X166478Y151427D01*
X133181D01*
X133082Y151664D01*
X132554Y152354D01*
X131864Y152883D01*
X131061Y153215D01*
X130200Y153329D01*
X129339Y153215D01*
X128536Y152883D01*
X127846Y152354D01*
X127318Y151664D01*
X126985Y150862D01*
X126872Y150000D01*
X126985Y149138D01*
X127318Y148336D01*
X127846Y147646D01*
X128536Y147117D01*
X129339Y146785D01*
X130200Y146671D01*
X131061Y146785D01*
X131864Y147117D01*
X132554Y147646D01*
X133082Y148336D01*
X133181Y148573D01*
X166478D01*
X166681Y148084D01*
X167290Y147290D01*
X168084Y146681D01*
X169008Y146298D01*
X170000Y146167D01*
X170992Y146298D01*
X171916Y146681D01*
X172710Y147290D01*
X173319Y148084D01*
X173702Y149008D01*
X173833Y150000D01*
X173702Y150992D01*
X173319Y151916D01*
X172710Y152710D01*
X171916Y153319D01*
X170992Y153702D01*
X170000Y153833D01*
D02*
G37*
G36*
X51307Y104555D02*
X47492D01*
Y100740D01*
X48126Y100824D01*
X49183Y101261D01*
X50090Y101957D01*
X50786Y102865D01*
X51224Y103921D01*
X51307Y104555D01*
D02*
G37*
G36*
X46492Y109370D02*
X45858Y109287D01*
X44802Y108849D01*
X43894Y108153D01*
X43198Y107246D01*
X42882Y106483D01*
X25118D01*
X24802Y107246D01*
X24106Y108153D01*
X23198Y108849D01*
X22142Y109287D01*
X21508Y109370D01*
Y105054D01*
Y100740D01*
X22142Y100824D01*
X23198Y101261D01*
X24106Y101957D01*
X24802Y102865D01*
X25118Y103628D01*
X42882D01*
X43198Y102865D01*
X43894Y101957D01*
X44802Y101261D01*
X45858Y100824D01*
X46492Y100740D01*
Y105054D01*
Y109370D01*
D02*
G37*
G36*
X170000Y163833D02*
X169008Y163702D01*
X168084Y163319D01*
X167290Y162710D01*
X166681Y161916D01*
X166298Y160992D01*
X166167Y160000D01*
X166298Y159008D01*
X166681Y158084D01*
X167290Y157290D01*
X168084Y156681D01*
X169008Y156298D01*
X170000Y156167D01*
X170992Y156298D01*
X171916Y156681D01*
X172710Y157290D01*
X173319Y158084D01*
X173702Y159008D01*
X173833Y160000D01*
X173702Y160992D01*
X173319Y161916D01*
X172710Y162710D01*
X171916Y163319D01*
X170992Y163702D01*
X170000Y163833D01*
D02*
G37*
G36*
X221793Y182833D02*
X217417D01*
Y178457D01*
X218196Y178560D01*
X219388Y179053D01*
X220411Y179839D01*
X221197Y180862D01*
X221691Y182054D01*
X221793Y182833D01*
D02*
G37*
G36*
X170500Y213767D02*
Y209999D01*
Y206233D01*
X170992Y206298D01*
X171916Y206681D01*
X172710Y207290D01*
X173319Y208084D01*
X173522Y208573D01*
X189659D01*
X212575Y185656D01*
X212143Y184613D01*
X212040Y183833D01*
X216417D01*
Y188210D01*
X215638Y188107D01*
X214594Y187675D01*
X191260Y211009D01*
X190796Y211319D01*
X190250Y211427D01*
X190250Y211427D01*
X173522D01*
X173319Y211916D01*
X172710Y212710D01*
X171916Y213319D01*
X170992Y213702D01*
X170500Y213767D01*
D02*
G37*
G36*
X170000Y183833D02*
X169008Y183702D01*
X168084Y183319D01*
X167290Y182710D01*
X166681Y181916D01*
X166298Y180992D01*
X166167Y180000D01*
X166298Y179008D01*
X166681Y178084D01*
X167290Y177290D01*
X168084Y176681D01*
X169008Y176298D01*
X170000Y176167D01*
X170992Y176298D01*
X171916Y176681D01*
X172710Y177290D01*
X173319Y178084D01*
X173702Y179008D01*
X173833Y180000D01*
X173702Y180992D01*
X173319Y181916D01*
X172710Y182710D01*
X171916Y183319D01*
X170992Y183702D01*
X170000Y183833D01*
D02*
G37*
G36*
X216417Y182833D02*
X212040D01*
X212143Y182054D01*
X212637Y180862D01*
X213422Y179839D01*
X214446Y179053D01*
X215638Y178560D01*
X216417Y178457D01*
Y182833D01*
D02*
G37*
%LPD*%
D10*
X202900Y230600D02*
X208300Y225200D01*
X336200D01*
X111700D02*
X208300D01*
X90000Y2663D02*
X93528D01*
X110000Y210000D02*
X113900Y213900D01*
X149900D01*
X156000Y220000D01*
X73000Y224000D02*
X78100Y229100D01*
X123700D01*
X110000Y70000D02*
X114400Y65600D01*
X217700D01*
X237000Y84900D01*
X37000Y160000D02*
X48600Y148400D01*
X101900D01*
X104000Y260000D02*
X109500Y265500D01*
X128500D01*
X138000Y256000D01*
X196000Y-26000D02*
X236000D01*
X256000Y-6000D01*
X276000Y14000D02*
X282000D01*
X256000Y-6000D02*
X276000Y14000D01*
X93528Y8000D02*
X160441D01*
X161435Y8994D01*
X182794D01*
X193600Y19800D01*
X356200D01*
X362000Y14000D01*
X336200Y225200D02*
X341000Y230000D01*
X208300Y225200D02*
X336200D01*
X134000Y230600D02*
X202900D01*
X114000Y250600D02*
X134000Y230600D01*
X114000Y250600D02*
Y260000D01*
X68000Y136000D02*
X71400D01*
X72400Y135000D01*
X214400D01*
X255600Y176200D01*
X308000D01*
X339000Y145200D01*
Y94000D02*
Y145200D01*
X65300Y58000D02*
X92000D01*
X61500Y61800D02*
X65300Y58000D01*
X40000Y61800D02*
X61500D01*
X27000Y192000D02*
X30700Y188300D01*
Y185700D02*
Y188300D01*
Y185700D02*
X31200Y185200D01*
Y155900D02*
Y185200D01*
X18000Y142700D02*
X31200Y155900D01*
X18000Y116002D02*
Y142700D01*
Y116002D02*
X20000Y114002D01*
X52902D01*
X59000Y120100D01*
X70200D01*
X71800Y118500D01*
Y113500D02*
Y118500D01*
X59800Y101500D02*
X71800Y113500D01*
X59800Y92044D02*
Y101500D01*
Y92044D02*
X62000Y89844D01*
X67944D01*
X76100Y98000D01*
X92000D01*
X61800Y171900D02*
Y177900D01*
X27000Y212700D02*
X61800Y177900D01*
X27000Y212700D02*
Y224000D01*
X23200Y198100D02*
X30100D01*
X32700Y195500D01*
Y187700D02*
Y195500D01*
Y187700D02*
X55300Y165100D01*
X66300D01*
X70700Y169500D01*
Y187000D01*
X72000Y188300D01*
X83700D01*
X86238Y185762D01*
Y159500D02*
Y185762D01*
Y159500D02*
X87500Y158238D01*
X92538D01*
X93800Y159500D01*
Y169500D01*
X99300Y175000D01*
X165000D01*
X170000Y170000D01*
X137713Y-8000D02*
X143913Y-1800D01*
X191800D01*
X196000Y-6000D01*
X269700Y215100D02*
X330500D01*
X230900Y176300D02*
X269700Y215100D01*
X183700Y176300D02*
X230900D01*
X170000Y190000D02*
X183700Y176300D01*
X151600Y241600D02*
X162000Y252000D01*
X136000Y241600D02*
X151600D01*
X129600Y248000D02*
X136000Y241600D01*
X129600Y248000D02*
Y250500D01*
X192000Y266000D02*
X211500Y246500D01*
X347800D01*
X348200Y246100D01*
Y96300D02*
Y246100D01*
X340000Y88100D02*
X348200Y96300D01*
X338267Y88100D02*
X340000D01*
X335083Y84917D02*
X338267Y88100D01*
X27100Y131000D02*
X56700D01*
X65462Y139762D01*
X70238D01*
X71800Y138200D01*
X97100D01*
X103300Y144400D01*
X165600D01*
X170000Y140000D01*
X118500Y-8000D02*
X128400Y1900D01*
X161300D01*
X164400Y5000D01*
X268300Y123300D02*
X309000Y164000D01*
X193300Y123300D02*
X268300D01*
X170000Y100000D02*
X193300Y123300D01*
X75000Y161238D02*
Y184000D01*
Y161238D02*
X80000Y156238D01*
X93638D01*
X102700Y165300D01*
X123100D01*
X130200Y150000D02*
X170000D01*
X53937Y142000D02*
X90000D01*
X48992Y137055D02*
X53937Y142000D01*
X164400Y124400D02*
X170000Y130000D01*
X62282Y124400D02*
X164400D01*
X58972Y127710D02*
X62282Y124400D01*
X53382Y127710D02*
X58972D01*
X48992Y123320D02*
X53382Y127710D01*
X48992Y118945D02*
Y123320D01*
X88000Y-21528D02*
X93528D01*
X85206Y-18734D02*
X88000Y-21528D01*
X85206Y-18734D02*
Y12543D01*
X88000Y15337D01*
X135337D01*
X170000Y50000D01*
X93528Y-1843D02*
Y2663D01*
X87206Y5457D02*
X90000Y2663D01*
X87206Y5457D02*
Y10543D01*
X90000Y13337D01*
X153837D01*
X170000Y29500D01*
X55100Y123800D02*
X56700Y122200D01*
X93100D01*
X100300Y115000D01*
X112000D01*
X114400Y112600D01*
Y104400D02*
Y112600D01*
X110000Y100000D02*
X114400Y104400D01*
X102300Y248000D02*
X116400Y233900D01*
X55000Y248000D02*
X102300D01*
X41000Y262000D02*
X55000Y248000D01*
X90000Y203500D02*
X111700Y225200D01*
X90000Y162000D02*
Y203500D01*
X69656Y88000D02*
X92000D01*
X69500Y87844D02*
X69656Y88000D01*
X57222Y87844D02*
X69500D01*
X50266Y94800D02*
X57222Y87844D01*
X18200Y94800D02*
X50266D01*
X16000Y97000D02*
X18200Y94800D01*
X16000Y97000D02*
Y149000D01*
X27000Y160000D01*
X46992Y105055D02*
X57937Y116000D01*
X68000D01*
X92000Y78000D02*
X99600Y85600D01*
X189900D01*
X206300Y102000D01*
X170000Y210000D02*
X190250D01*
X216917Y183333D01*
X165000Y95000D02*
X170000Y100000D01*
X108000Y95000D02*
X165000D01*
X101500Y101500D02*
X108000Y95000D01*
X101500Y101500D02*
Y109500D01*
X96700Y114300D02*
X101500Y109500D01*
X84300Y114300D02*
X96700D01*
X64000Y94000D02*
X84300Y114300D01*
X161200Y-19200D02*
X168000Y-26000D01*
X105600Y-19200D02*
X161200D01*
X97900Y-26900D02*
X105600Y-19200D01*
X87200Y-26900D02*
X97900D01*
X81828Y-21528D02*
X87200Y-26900D01*
X64000Y-21528D02*
X81828D01*
X168000Y-26000D02*
X196000D01*
X23008Y137055D02*
X48992D01*
X21008Y73055D02*
X46992D01*
X21008Y105055D02*
X46992D01*
X21008Y-945D02*
X46992D01*
X21008Y35055D02*
X46992D01*
X23008Y118945D02*
X48992D01*
X21008Y86945D02*
X46992D01*
X21008Y54945D02*
X46992D01*
X21008Y16945D02*
X46992D01*
X21008Y-19055D02*
X46992D01*
D11*
X144000Y252000D02*
X152000D01*
X138000Y246000D02*
X144000Y252000D01*
X100000Y20000D02*
X110000D01*
X92000Y28000D02*
X100000Y20000D01*
X138000Y236000D02*
X343000D01*
X345500Y233500D01*
Y170500D02*
Y233500D01*
X339000Y164000D02*
X345500Y170500D01*
X64000Y8000D02*
X72000D01*
X92000Y28000D01*
D12*
X37000Y160000D02*
D03*
X75000Y184000D02*
D03*
X73000Y224000D02*
D03*
X41000Y262000D02*
D03*
X71000Y260000D02*
D03*
X237000Y264000D02*
D03*
X37000Y192000D02*
D03*
Y224000D02*
D03*
D13*
X27000Y160000D02*
D03*
X65000Y184000D02*
D03*
X63000Y224000D02*
D03*
X31000Y262000D02*
D03*
X61000Y260000D02*
D03*
X227000Y264000D02*
D03*
X27000Y192000D02*
D03*
Y224000D02*
D03*
D14*
X48992Y118945D02*
D03*
Y137055D02*
D03*
X23008Y118945D02*
D03*
Y137055D02*
D03*
X46992Y86945D02*
D03*
Y105055D02*
D03*
X21008Y86945D02*
D03*
Y105055D02*
D03*
X46992Y54945D02*
D03*
Y73055D02*
D03*
X21008Y54945D02*
D03*
Y73055D02*
D03*
X46992Y16945D02*
D03*
Y35055D02*
D03*
X21008Y16945D02*
D03*
Y35055D02*
D03*
X46992Y-19055D02*
D03*
Y-945D02*
D03*
X21008Y-19055D02*
D03*
Y-945D02*
D03*
D15*
X68000Y136000D02*
D03*
Y116000D02*
D03*
X168000Y-6000D02*
D03*
Y-26000D02*
D03*
X309000Y94000D02*
D03*
X311000Y230000D02*
D03*
X324000Y270000D02*
D03*
X344000D02*
D03*
X309000Y164000D02*
D03*
X196000Y-26000D02*
D03*
Y-6000D02*
D03*
X90000Y162000D02*
D03*
Y142000D02*
D03*
D16*
X92000Y38000D02*
D03*
Y108000D02*
D03*
Y98000D02*
D03*
Y88000D02*
D03*
Y78000D02*
D03*
Y68000D02*
D03*
Y58000D02*
D03*
Y48000D02*
D03*
X150551Y-26000D02*
D03*
X226000Y-6000D02*
D03*
X256000D02*
D03*
X172000Y252000D02*
D03*
X162000D02*
D03*
X152000D02*
D03*
X94000Y260000D02*
D03*
X104000D02*
D03*
X362000Y14000D02*
D03*
X282000D02*
D03*
X60000Y34000D02*
D03*
X70000D02*
D03*
D17*
X92000Y28000D02*
D03*
D18*
X64000Y94000D02*
D03*
Y54000D02*
D03*
X137713Y-8000D02*
D03*
X118500D02*
D03*
D21*
X156000Y220000D02*
D03*
X126000D02*
D03*
D22*
X138000Y236000D02*
D03*
D23*
Y246000D02*
D03*
Y256000D02*
D03*
Y266000D02*
D03*
X202000D02*
D03*
D24*
X110000Y-26000D02*
D03*
X114000Y260000D02*
D03*
D25*
X339000Y94000D02*
D03*
X341000Y230000D02*
D03*
X339000Y164000D02*
D03*
D26*
X335000Y203083D02*
D03*
X335083Y84917D02*
D03*
X216917Y104667D02*
D03*
Y183333D02*
D03*
D27*
X192000Y266000D02*
D03*
D28*
X64000Y8000D02*
D03*
D29*
Y-1843D02*
D03*
Y-11685D02*
D03*
Y-21528D02*
D03*
X93528Y8000D02*
D03*
Y-1843D02*
D03*
Y-11685D02*
D03*
Y-21528D02*
D03*
D30*
X123700Y229100D02*
D03*
X237000Y84900D02*
D03*
X101900Y148400D02*
D03*
X40000Y61800D02*
D03*
X61800Y171900D02*
D03*
X23200Y198100D02*
D03*
X330500Y215100D02*
D03*
X129600Y250500D02*
D03*
X27100Y131000D02*
D03*
X164400Y5000D02*
D03*
X123100Y165300D02*
D03*
X130200Y150000D02*
D03*
X55100Y123800D02*
D03*
X116400Y233900D02*
D03*
X206300Y102000D02*
D03*
D31*
X170000Y20000D02*
D03*
Y29500D02*
D03*
Y40000D02*
D03*
Y50000D02*
D03*
Y60000D02*
D03*
Y70000D02*
D03*
Y80000D02*
D03*
Y90000D02*
D03*
Y100000D02*
D03*
Y110000D02*
D03*
Y120000D02*
D03*
Y130000D02*
D03*
Y140000D02*
D03*
Y150000D02*
D03*
Y160000D02*
D03*
Y170000D02*
D03*
Y180000D02*
D03*
Y190000D02*
D03*
Y200000D02*
D03*
Y210000D02*
D03*
X110000Y20000D02*
D03*
Y30000D02*
D03*
Y40000D02*
D03*
Y50000D02*
D03*
Y60000D02*
D03*
Y70000D02*
D03*
Y80000D02*
D03*
Y90000D02*
D03*
Y100000D02*
D03*
Y110000D02*
D03*
Y120000D02*
D03*
Y130000D02*
D03*
Y140000D02*
D03*
Y150000D02*
D03*
Y160500D02*
D03*
Y170000D02*
D03*
Y180000D02*
D03*
Y190000D02*
D03*
Y200000D02*
D03*
Y210000D02*
D03*
M02*
