M48
;Layer_Color=9474304
;FILE_FORMAT=2:5
INCH,LZ
;TYPE=PLATED
T1F00S00C0.02362
T2F00S00C0.02756
T3F00S00C0.02800
T4F00S00C0.03000
T5F00S00C0.03346
T6F00S00C0.03543
T7F00S00C0.03937
T8F00S00C0.04200
T9F00S00C0.04331
%
T01
X017Y002
Y00295
Y004
Y005
Y006
Y007
Y008
Y009
Y01
Y011
X011
Y01
Y009
Y008
Y007
Y006
Y005
Y004
Y003
Y002
X0093528Y0008
Y-0001843
Y-0011685
Y-0021528
X0064
Y-0011685
Y-0001843
Y0008
X011Y012
Y013
Y014
Y015
Y01605
Y017
Y018
Y019
Y02
Y021
X017
Y02
Y019
Y018
Y017
Y016
Y015
Y014
Y013
Y012
T02
X0309Y0094
X0339
X0196Y-0006
Y-0026
X0168
Y-0006
X0137713Y-0008
X01185
X0068Y0116
Y0136
X009Y0142
Y0162
X0309Y0164
X0339
X0341Y023
X0311
X0324Y027
X0344
T03
X01644Y0005
X02063Y0102
X0237Y00849
X004Y00618
X00551Y01238
X00271Y0131
X0027Y016
X0037
Y0192
X0027
X00232Y01981
X0027Y0224
X0037
X0063
X0073
X0071Y026
X0061
X0041Y0262
X0031
X0065Y0184
X0075
X00618Y01719
X01019Y01484
X01302Y015
X01231Y01653
X01237Y02291
X01164Y02339
X01296Y02505
X0227Y0264
X0237
X03305Y02151
T04
X0226Y-0006
X0256
X007Y0034
X006
X0126Y022
X0156
T05
X0064Y0054
Y0094
T06
X0092Y0028
Y0038
Y0048
Y0058
Y0068
Y0078
Y0088
Y0098
Y0108
X0138Y0236
Y0246
Y0256
Y0266
X0192
X0202
T07
X0282Y0014
X0362
X0046992Y0016945
Y-0000945
Y-0019055
X0021008
Y-0000945
Y0016945
Y0035055
Y0054945
Y0073055
Y0086945
Y0105055
X0046992
Y0086945
Y0073055
Y0054945
Y0035055
X0048992Y0118945
Y0137055
X0023008
Y0118945
X0094Y026
X0104
X0114
X0152Y0252
X0162
X0172
T08
X0335083Y0084917
X0216917Y0104667
Y0183333
X0335Y0203083
T09
X0150551Y-0026
X011
M30
