%FSLAX25Y25*%
%MOIN*%
G70*
G01*
G75*
%ADD10C,0.01200*%
%ADD11C,0.02500*%
%ADD12C,0.05800*%
%ADD13R,0.05600X0.05600*%
%ADD14C,0.07087*%
%ADD15C,0.04724*%
%ADD16C,0.07874*%
%ADD17R,0.07874X0.07874*%
%ADD18C,0.05512*%
%ADD19R,0.09843X0.07087*%
%ADD20O,0.09843X0.07087*%
%ADD21C,0.07087*%
%ADD22R,0.05906X0.05906*%
%ADD23C,0.05906*%
%ADD24R,0.07874X0.07874*%
%ADD25R,0.04724X0.04724*%
%ADD26C,0.08200*%
%ADD27R,0.05906X0.05906*%
%ADD28R,0.09843X0.07874*%
%ADD29O,0.09843X0.07874*%
%ADD30C,0.05000*%
%ADD31C,0.06000*%
%ADD32C,0.01000*%
%ADD33C,0.00787*%
%ADD34C,0.00600*%
%ADD35C,0.00300*%
%ADD36C,0.00591*%
G36*
X180304Y-48568D02*
X160994D01*
Y-39642D01*
X180304D01*
Y-48568D01*
D02*
G37*
%LPC*%
G36*
X166475Y-44637D02*
X166434Y-44701D01*
X166598Y-44853D01*
X166738Y-45006D01*
X166855Y-45146D01*
X166955Y-45281D01*
X166996Y-45339D01*
X167031Y-45392D01*
X167060Y-45444D01*
X167083Y-45485D01*
X167101Y-45514D01*
X167113Y-45538D01*
X167124Y-45555D01*
Y-45561D01*
X167154Y-45626D01*
X167177Y-45678D01*
X167200Y-45725D01*
X167224Y-45766D01*
X167247Y-45801D01*
X167271Y-45830D01*
X167306Y-45871D01*
X167335Y-45900D01*
X167358Y-45912D01*
X167370Y-45918D01*
X167376D01*
X167387Y-45912D01*
X167399Y-45900D01*
X167423Y-45871D01*
X167446Y-45836D01*
X167452Y-45830D01*
Y-45825D01*
X167481Y-45760D01*
X167499Y-45702D01*
X167505Y-45678D01*
Y-45661D01*
Y-45655D01*
Y-45649D01*
X167499Y-45585D01*
X167481Y-45520D01*
X167452Y-45456D01*
X167423Y-45403D01*
X167387Y-45351D01*
X167364Y-45316D01*
X167341Y-45286D01*
X167335Y-45281D01*
X167300Y-45239D01*
X167247Y-45193D01*
X167194Y-45146D01*
X167130Y-45093D01*
X166990Y-44988D01*
X166843Y-44883D01*
X166703Y-44789D01*
X166639Y-44748D01*
X166586Y-44707D01*
X166539Y-44678D01*
X166504Y-44655D01*
X166481Y-44643D01*
X166475Y-44637D01*
D02*
G37*
G36*
X170950Y-44690D02*
X170944D01*
X170903Y-44748D01*
X170974Y-44818D01*
X171044Y-44883D01*
X171155Y-45006D01*
X171248Y-45105D01*
X171325Y-45193D01*
X171383Y-45263D01*
X171418Y-45316D01*
X171442Y-45345D01*
X171447Y-45357D01*
X171471Y-45403D01*
X171494Y-45438D01*
X171518Y-45468D01*
X171535Y-45485D01*
X171553Y-45497D01*
X171564Y-45503D01*
X171576D01*
X171594Y-45497D01*
X171605Y-45485D01*
X171635Y-45450D01*
X171652Y-45415D01*
X171658Y-45403D01*
Y-45397D01*
X171681Y-45321D01*
X171693Y-45263D01*
X171699Y-45239D01*
Y-45222D01*
Y-45216D01*
Y-45210D01*
X171693Y-45164D01*
X171676Y-45117D01*
X171652Y-45076D01*
X171629Y-45041D01*
X171599Y-45011D01*
X171576Y-44988D01*
X171558Y-44976D01*
X171553Y-44970D01*
X171523Y-44947D01*
X171483Y-44924D01*
X171395Y-44877D01*
X171295Y-44830D01*
X171196Y-44783D01*
X171096Y-44748D01*
X171055Y-44730D01*
X171020Y-44719D01*
X170985Y-44707D01*
X170962Y-44695D01*
X170950Y-44690D01*
D02*
G37*
G36*
X165574Y-41642D02*
X165562Y-41694D01*
X165551Y-41759D01*
X165515Y-41888D01*
X165474Y-42028D01*
X165434Y-42168D01*
X165393Y-42291D01*
X165375Y-42344D01*
X165357Y-42391D01*
X165340Y-42432D01*
X165334Y-42461D01*
X165322Y-42478D01*
Y-42484D01*
X164422D01*
X164609Y-42671D01*
X164697Y-42648D01*
X164784Y-42636D01*
X164872Y-42625D01*
X164948Y-42613D01*
X165012D01*
X165065Y-42607D01*
X165281D01*
X165194Y-42823D01*
X165147Y-42923D01*
X165106Y-43016D01*
X165071Y-43104D01*
X165036Y-43186D01*
X165001Y-43262D01*
X164971Y-43327D01*
X164942Y-43391D01*
X164919Y-43444D01*
X164901Y-43490D01*
X164884Y-43525D01*
X164866Y-43555D01*
X164854Y-43578D01*
X164849Y-43590D01*
Y-43596D01*
X164813Y-43660D01*
X164784Y-43724D01*
X164749Y-43777D01*
X164720Y-43824D01*
X164661Y-43906D01*
X164609Y-43964D01*
X164568Y-44005D01*
X164533Y-44034D01*
X164509Y-44046D01*
X164503Y-44052D01*
X164778Y-44327D01*
X164925Y-44134D01*
X165890D01*
Y-45900D01*
X165884Y-45941D01*
X165878Y-45971D01*
X165866Y-45994D01*
X165855Y-46012D01*
X165825Y-46029D01*
X165820Y-46035D01*
X165796D01*
X165761Y-46041D01*
X165720Y-46035D01*
X165673D01*
X165615Y-46029D01*
X165556Y-46023D01*
X165428Y-46006D01*
X165305Y-45988D01*
X165246Y-45983D01*
X165200Y-45977D01*
X165153Y-45971D01*
X165124Y-45965D01*
X165100Y-45959D01*
X165094D01*
Y-46041D01*
X165182Y-46064D01*
X165258Y-46094D01*
X165334Y-46129D01*
X165399Y-46164D01*
X165457Y-46205D01*
X165510Y-46240D01*
X165556Y-46281D01*
X165597Y-46316D01*
X165668Y-46392D01*
X165708Y-46450D01*
X165726Y-46468D01*
X165738Y-46486D01*
X165744Y-46497D01*
Y-46503D01*
X165837Y-46456D01*
X165913Y-46409D01*
X165972Y-46374D01*
X166013Y-46339D01*
X166048Y-46310D01*
X166065Y-46287D01*
X166077Y-46275D01*
X166083Y-46269D01*
X166106Y-46228D01*
X166130Y-46176D01*
X166147Y-46076D01*
X166153Y-46029D01*
X166159Y-45994D01*
Y-45971D01*
Y-45959D01*
Y-44134D01*
X167505D01*
X167148Y-43759D01*
X166896Y-44011D01*
X166159D01*
Y-43321D01*
X166305Y-43192D01*
X165866Y-43005D01*
X165872Y-43169D01*
X165878Y-43338D01*
X165884Y-43508D01*
X165890Y-43666D01*
Y-43736D01*
Y-43806D01*
Y-43865D01*
Y-43911D01*
Y-43953D01*
Y-43988D01*
Y-44005D01*
Y-44011D01*
X164925D01*
X165042Y-43783D01*
X165159Y-43543D01*
X165270Y-43309D01*
X165322Y-43198D01*
X165369Y-43087D01*
X165410Y-42987D01*
X165451Y-42900D01*
X165486Y-42812D01*
X165515Y-42742D01*
X165539Y-42689D01*
X165556Y-42642D01*
X165568Y-42619D01*
X165574Y-42607D01*
X167458D01*
X167107Y-42233D01*
X166855Y-42484D01*
X165615D01*
X165656Y-42396D01*
X165691Y-42320D01*
X165726Y-42250D01*
X165761Y-42186D01*
X165796Y-42133D01*
X165825Y-42086D01*
X165855Y-42045D01*
X165884Y-42010D01*
X165931Y-41958D01*
X165966Y-41923D01*
X165989Y-41905D01*
X165995Y-41899D01*
X165574Y-41642D01*
D02*
G37*
G36*
X174659Y-43344D02*
X174612Y-43508D01*
X174560Y-43660D01*
X174501Y-43800D01*
X174454Y-43923D01*
X174431Y-43976D01*
X174407Y-44029D01*
X174390Y-44069D01*
X174372Y-44105D01*
X174355Y-44134D01*
X174349Y-44157D01*
X174337Y-44169D01*
Y-44175D01*
X174267Y-44309D01*
X174203Y-44426D01*
X174144Y-44526D01*
X174098Y-44602D01*
X174062Y-44666D01*
X174033Y-44707D01*
X174016Y-44736D01*
X174010Y-44742D01*
X173963Y-44813D01*
X173910Y-44877D01*
X173858Y-44947D01*
X173805Y-45011D01*
X173764Y-45064D01*
X173729Y-45105D01*
X173700Y-45134D01*
X173694Y-45146D01*
X173758Y-45187D01*
X173822Y-45134D01*
X173893Y-45076D01*
X173963Y-45011D01*
X174027Y-44947D01*
X174086Y-44888D01*
X174127Y-44842D01*
X174156Y-44813D01*
X174168Y-44801D01*
X174255Y-44701D01*
X174337Y-44608D01*
X174407Y-44514D01*
X174472Y-44432D01*
X174524Y-44362D01*
X174560Y-44309D01*
X174589Y-44274D01*
X174595Y-44268D01*
Y-44262D01*
X175835D01*
Y-45058D01*
X174449D01*
X174642Y-45245D01*
X174729Y-45222D01*
X174817Y-45210D01*
X174899Y-45199D01*
X174975Y-45187D01*
X175039D01*
X175092Y-45181D01*
X175835D01*
Y-46099D01*
X173507D01*
X173694Y-46287D01*
X173869Y-46251D01*
X173957Y-46240D01*
X174033Y-46234D01*
X174098Y-46228D01*
X178304D01*
X177906Y-45789D01*
X177531Y-46099D01*
X176127D01*
Y-45181D01*
X177654D01*
X177280Y-44783D01*
X176964Y-45058D01*
X176127D01*
Y-44262D01*
X177994D01*
X177596Y-43824D01*
X177256Y-44140D01*
X176127D01*
Y-43824D01*
X176356Y-43678D01*
X175812Y-43449D01*
X175817Y-43596D01*
X175823Y-43730D01*
X175829Y-43853D01*
X175835Y-43953D01*
Y-44029D01*
Y-44093D01*
Y-44110D01*
Y-44128D01*
Y-44134D01*
Y-44140D01*
X174642D01*
X174706Y-44034D01*
X174764Y-43947D01*
X174817Y-43871D01*
X174858Y-43812D01*
X174893Y-43765D01*
X174917Y-43730D01*
X174928Y-43707D01*
X174934Y-43701D01*
X175121Y-43637D01*
X174659Y-43344D01*
D02*
G37*
G36*
X165176Y-44450D02*
X165129Y-44584D01*
X165065Y-44719D01*
X164989Y-44853D01*
X164913Y-44982D01*
X164843Y-45093D01*
X164813Y-45140D01*
X164784Y-45181D01*
X164767Y-45216D01*
X164749Y-45239D01*
X164737Y-45257D01*
X164732Y-45263D01*
X164603Y-45432D01*
X164474Y-45590D01*
X164346Y-45725D01*
X164234Y-45848D01*
X164182Y-45900D01*
X164135Y-45947D01*
X164088Y-45988D01*
X164053Y-46018D01*
X164024Y-46047D01*
X164000Y-46064D01*
X163989Y-46076D01*
X163983Y-46082D01*
X164000Y-46164D01*
X164111Y-46105D01*
X164223Y-46029D01*
X164340Y-45941D01*
X164457Y-45848D01*
X164579Y-45743D01*
X164697Y-45632D01*
X164808Y-45520D01*
X164913Y-45409D01*
X165018Y-45298D01*
X165112Y-45193D01*
X165194Y-45099D01*
X165264Y-45017D01*
X165322Y-44947D01*
X165369Y-44894D01*
X165393Y-44859D01*
X165404Y-44848D01*
X165597Y-44742D01*
X165176Y-44450D01*
D02*
G37*
G36*
X169230Y-44602D02*
X169224D01*
X169207Y-44666D01*
X169330Y-44795D01*
X169435Y-44912D01*
X169517Y-45023D01*
X169581Y-45111D01*
X169628Y-45187D01*
X169663Y-45245D01*
X169681Y-45281D01*
X169687Y-45286D01*
Y-45292D01*
X169716Y-45351D01*
X169739Y-45392D01*
X169763Y-45421D01*
X169780Y-45438D01*
X169798Y-45450D01*
X169809Y-45462D01*
X169815D01*
X169833Y-45456D01*
X169844Y-45444D01*
X169880Y-45403D01*
X169903Y-45362D01*
X169909Y-45351D01*
Y-45345D01*
X169938Y-45263D01*
X169956Y-45199D01*
X169962Y-45175D01*
Y-45158D01*
Y-45152D01*
Y-45146D01*
X169956Y-45099D01*
X169944Y-45058D01*
X169921Y-45011D01*
X169897Y-44976D01*
X169874Y-44947D01*
X169850Y-44924D01*
X169839Y-44906D01*
X169833Y-44900D01*
X169804Y-44877D01*
X169774Y-44848D01*
X169733Y-44824D01*
X169687Y-44801D01*
X169587Y-44748D01*
X169482Y-44701D01*
X169382Y-44660D01*
X169341Y-44643D01*
X169300Y-44631D01*
X169271Y-44619D01*
X169248Y-44608D01*
X169230Y-44602D01*
D02*
G37*
G36*
X174595Y-41688D02*
X174536Y-41870D01*
X174472Y-42045D01*
X174407Y-42203D01*
X174349Y-42350D01*
X174320Y-42414D01*
X174291Y-42472D01*
X174267Y-42525D01*
X174249Y-42566D01*
X174232Y-42601D01*
X174220Y-42625D01*
X174209Y-42642D01*
Y-42648D01*
X174109Y-42823D01*
X174004Y-42999D01*
X173893Y-43163D01*
X173787Y-43309D01*
X173741Y-43373D01*
X173694Y-43438D01*
X173653Y-43490D01*
X173618Y-43531D01*
X173589Y-43572D01*
X173565Y-43596D01*
X173553Y-43613D01*
X173548Y-43619D01*
X173612Y-43683D01*
X173705Y-43602D01*
X173799Y-43514D01*
X173887Y-43426D01*
X173963Y-43344D01*
X174033Y-43274D01*
X174080Y-43221D01*
X174103Y-43198D01*
X174115Y-43180D01*
X174127Y-43174D01*
Y-43169D01*
X174220Y-43058D01*
X174302Y-42958D01*
X174372Y-42864D01*
X174431Y-42783D01*
X174478Y-42718D01*
X174507Y-42671D01*
X174530Y-42642D01*
X174536Y-42630D01*
X174805D01*
X174823Y-42654D01*
X174846Y-42689D01*
X174870Y-42730D01*
X174893Y-42771D01*
X174917Y-42812D01*
X174934Y-42847D01*
X174946Y-42864D01*
X174952Y-42876D01*
X175022Y-43028D01*
X175051Y-43098D01*
X175074Y-43163D01*
X175098Y-43221D01*
X175110Y-43262D01*
X175121Y-43291D01*
Y-43303D01*
X175127Y-43344D01*
X175139Y-43379D01*
X175151Y-43403D01*
X175162Y-43426D01*
X175180Y-43461D01*
X175203Y-43473D01*
X175226Y-43479D01*
X175238D01*
X175250Y-43473D01*
X175256D01*
X175320Y-43420D01*
X175367Y-43362D01*
X175379Y-43338D01*
X175390Y-43315D01*
X175402Y-43303D01*
Y-43297D01*
X175420Y-43256D01*
X175431Y-43221D01*
X175443Y-43192D01*
X175449Y-43169D01*
X175455Y-43145D01*
Y-43134D01*
X175449Y-43098D01*
X175437Y-43069D01*
X175402Y-42999D01*
X175384Y-42970D01*
X175367Y-42946D01*
X175355Y-42935D01*
X175349Y-42929D01*
X175303Y-42876D01*
X175244Y-42829D01*
X175180Y-42777D01*
X175110Y-42730D01*
X175051Y-42689D01*
X174998Y-42660D01*
X174963Y-42636D01*
X174957Y-42630D01*
X176104D01*
X175747Y-42233D01*
X175455Y-42507D01*
X174595D01*
X174647Y-42426D01*
X174694Y-42344D01*
X174741Y-42268D01*
X174776Y-42203D01*
X174805Y-42145D01*
X174829Y-42104D01*
X174840Y-42081D01*
X174846Y-42069D01*
X175057Y-41981D01*
X174595Y-41688D01*
D02*
G37*
G36*
X172430Y-41811D02*
X172161Y-42127D01*
X168282D01*
X168470Y-42314D01*
X168558Y-42291D01*
X168645Y-42279D01*
X168733Y-42268D01*
X168809Y-42256D01*
X168873D01*
X168926Y-42250D01*
X170359D01*
Y-43011D01*
X168973D01*
X168663Y-42841D01*
X168669Y-42952D01*
Y-43075D01*
Y-43210D01*
X168675Y-43350D01*
Y-43648D01*
Y-43795D01*
X168680Y-43941D01*
Y-44081D01*
Y-44210D01*
Y-44327D01*
Y-44426D01*
Y-44514D01*
Y-44549D01*
Y-44578D01*
Y-44602D01*
Y-44619D01*
Y-44625D01*
Y-44631D01*
Y-44853D01*
Y-45064D01*
Y-45257D01*
Y-45432D01*
X168675Y-45590D01*
Y-45737D01*
Y-45865D01*
Y-45983D01*
X168669Y-46082D01*
Y-46170D01*
Y-46240D01*
Y-46298D01*
X168663Y-46339D01*
Y-46374D01*
Y-46392D01*
Y-46398D01*
X168973Y-46228D01*
Y-43134D01*
X170359D01*
Y-43479D01*
Y-43812D01*
Y-44128D01*
X170353Y-44426D01*
Y-44707D01*
Y-44970D01*
X170348Y-45210D01*
Y-45432D01*
Y-45632D01*
X170342Y-45725D01*
Y-45807D01*
Y-45883D01*
Y-45959D01*
Y-46023D01*
Y-46082D01*
Y-46135D01*
X170336Y-46181D01*
Y-46222D01*
Y-46257D01*
Y-46281D01*
Y-46298D01*
Y-46310D01*
Y-46316D01*
X170652Y-46146D01*
X170646Y-45930D01*
Y-45696D01*
X170640Y-45450D01*
Y-45199D01*
X170634Y-44701D01*
Y-44456D01*
Y-44216D01*
X170628Y-43993D01*
Y-43789D01*
Y-43695D01*
Y-43607D01*
Y-43525D01*
Y-43444D01*
Y-43379D01*
Y-43315D01*
Y-43262D01*
Y-43215D01*
Y-43180D01*
Y-43157D01*
Y-43139D01*
Y-43134D01*
X172056D01*
Y-45713D01*
Y-45748D01*
X172050Y-45784D01*
X172021Y-45830D01*
X171980Y-45871D01*
X171933Y-45889D01*
X171880Y-45906D01*
X171834Y-45912D01*
X171793D01*
X171687Y-45906D01*
X171582Y-45900D01*
X171488Y-45895D01*
X171401Y-45889D01*
X171325Y-45883D01*
X171272D01*
X171248Y-45877D01*
X171219D01*
Y-45965D01*
X171336Y-45988D01*
X171436Y-46018D01*
X171523Y-46053D01*
X171599Y-46088D01*
X171664Y-46123D01*
X171716Y-46158D01*
X171757Y-46199D01*
X171798Y-46234D01*
X171828Y-46275D01*
X171845Y-46310D01*
X171874Y-46369D01*
X171880Y-46386D01*
X171886Y-46404D01*
Y-46415D01*
Y-46421D01*
X171974Y-46392D01*
X172044Y-46357D01*
X172108Y-46316D01*
X172161Y-46263D01*
X172208Y-46216D01*
X172249Y-46158D01*
X172278Y-46105D01*
X172301Y-46053D01*
X172331Y-45947D01*
X172337Y-45900D01*
X172343Y-45860D01*
X172348Y-45825D01*
Y-45801D01*
Y-45784D01*
Y-45778D01*
Y-43198D01*
X172518Y-43052D01*
X172161Y-42783D01*
X172015Y-43011D01*
X170628D01*
Y-42250D01*
X172810D01*
X172430Y-41811D01*
D02*
G37*
G36*
X164275D02*
X164065Y-42022D01*
X163293D01*
X162994Y-41835D01*
Y-41888D01*
X163000Y-41946D01*
Y-42010D01*
Y-42081D01*
X163006Y-42239D01*
Y-42408D01*
X163012Y-42589D01*
Y-42777D01*
Y-42970D01*
X163018Y-43157D01*
Y-43338D01*
Y-43514D01*
Y-43672D01*
Y-43806D01*
Y-43871D01*
Y-43923D01*
Y-43970D01*
Y-44011D01*
Y-44046D01*
Y-44069D01*
Y-44081D01*
Y-44087D01*
Y-44403D01*
Y-44690D01*
Y-44959D01*
X163012Y-45204D01*
Y-45427D01*
Y-45632D01*
X163006Y-45813D01*
Y-45977D01*
Y-46117D01*
X163000Y-46240D01*
Y-46339D01*
Y-46421D01*
X162994Y-46486D01*
Y-46532D01*
Y-46556D01*
Y-46567D01*
X163293Y-46398D01*
Y-42145D01*
X164088D01*
X163690Y-43490D01*
X163766Y-43578D01*
X163831Y-43660D01*
X163889Y-43742D01*
X163936Y-43818D01*
X163983Y-43894D01*
X164018Y-43964D01*
X164076Y-44093D01*
X164094Y-44151D01*
X164111Y-44198D01*
X164123Y-44245D01*
X164135Y-44280D01*
X164141Y-44309D01*
X164147Y-44333D01*
Y-44344D01*
Y-44350D01*
X164152Y-44420D01*
X164158Y-44485D01*
Y-44543D01*
Y-44596D01*
X164152Y-44643D01*
Y-44678D01*
X164141Y-44742D01*
X164123Y-44789D01*
X164111Y-44818D01*
X164100Y-44836D01*
X164094Y-44842D01*
X164059Y-44871D01*
X164018Y-44894D01*
X163977Y-44912D01*
X163942Y-44924D01*
X163907Y-44930D01*
X163877Y-44935D01*
X163854D01*
X163784Y-44930D01*
X163708Y-44924D01*
X163632Y-44912D01*
X163556Y-44894D01*
X163486Y-44877D01*
X163427Y-44865D01*
X163404Y-44859D01*
X163386D01*
X163380Y-44853D01*
X163374D01*
X163351Y-44935D01*
X163421Y-44965D01*
X163486Y-44994D01*
X163544Y-45029D01*
X163597Y-45064D01*
X163684Y-45140D01*
X163755Y-45210D01*
X163801Y-45275D01*
X163831Y-45327D01*
X163848Y-45362D01*
X163854Y-45368D01*
Y-45374D01*
X163924Y-45345D01*
X163983Y-45310D01*
X164094Y-45245D01*
X164176Y-45187D01*
X164240Y-45134D01*
X164293Y-45087D01*
X164322Y-45046D01*
X164340Y-45023D01*
X164346Y-45017D01*
X164386Y-44947D01*
X164416Y-44877D01*
X164439Y-44807D01*
X164457Y-44742D01*
X164462Y-44690D01*
X164468Y-44649D01*
X164474Y-44625D01*
Y-44614D01*
Y-44526D01*
X164457Y-44438D01*
X164439Y-44356D01*
X164410Y-44280D01*
X164386Y-44210D01*
X164363Y-44157D01*
X164346Y-44122D01*
X164340Y-44116D01*
Y-44110D01*
X164275Y-43999D01*
X164193Y-43894D01*
X164111Y-43789D01*
X164024Y-43695D01*
X163942Y-43613D01*
X163877Y-43549D01*
X163848Y-43525D01*
X163831Y-43508D01*
X163819Y-43496D01*
X163813Y-43490D01*
X164381Y-42192D01*
X164550Y-42086D01*
X164275Y-41811D01*
D02*
G37*
G36*
X169277Y-43408D02*
X169271D01*
X169224Y-43473D01*
X169347Y-43602D01*
X169453Y-43718D01*
X169540Y-43830D01*
X169611Y-43917D01*
X169663Y-43993D01*
X169698Y-44052D01*
X169722Y-44087D01*
X169728Y-44093D01*
Y-44099D01*
X169757Y-44163D01*
X169786Y-44204D01*
X169815Y-44239D01*
X169833Y-44262D01*
X169850Y-44274D01*
X169862Y-44280D01*
X169874Y-44286D01*
X169885Y-44280D01*
X169897Y-44268D01*
X169926Y-44222D01*
X169944Y-44181D01*
X169956Y-44169D01*
Y-44163D01*
X169979Y-44116D01*
X169991Y-44075D01*
X170002Y-44040D01*
X170014Y-44011D01*
Y-43988D01*
X170020Y-43964D01*
Y-43958D01*
Y-43953D01*
X170014Y-43911D01*
X169997Y-43871D01*
X169973Y-43835D01*
X169950Y-43800D01*
X169921Y-43771D01*
X169897Y-43748D01*
X169880Y-43730D01*
X169874Y-43724D01*
X169844Y-43701D01*
X169804Y-43672D01*
X169716Y-43619D01*
X169616Y-43566D01*
X169517Y-43520D01*
X169423Y-43473D01*
X169382Y-43455D01*
X169347Y-43438D01*
X169312Y-43426D01*
X169289Y-43414D01*
X169277Y-43408D01*
D02*
G37*
G36*
X170950Y-43449D02*
X170944D01*
X170903Y-43514D01*
X171032Y-43648D01*
X171143Y-43771D01*
X171231Y-43876D01*
X171307Y-43964D01*
X171360Y-44040D01*
X171395Y-44093D01*
X171418Y-44128D01*
X171424Y-44134D01*
Y-44140D01*
X171447Y-44186D01*
X171471Y-44222D01*
X171494Y-44251D01*
X171512Y-44268D01*
X171529Y-44280D01*
X171541Y-44286D01*
X171553D01*
X171570Y-44280D01*
X171582Y-44268D01*
X171611Y-44222D01*
X171629Y-44181D01*
X171635Y-44169D01*
Y-44163D01*
X171646Y-44116D01*
X171658Y-44081D01*
X171664Y-44046D01*
X171670Y-44023D01*
X171676Y-43999D01*
Y-43988D01*
Y-43976D01*
X171670Y-43923D01*
X171652Y-43876D01*
X171623Y-43830D01*
X171599Y-43795D01*
X171570Y-43765D01*
X171541Y-43742D01*
X171523Y-43730D01*
X171518Y-43724D01*
X171488Y-43701D01*
X171447Y-43683D01*
X171365Y-43637D01*
X171272Y-43590D01*
X171172Y-43549D01*
X171085Y-43508D01*
X171014Y-43479D01*
X170985Y-43467D01*
X170962Y-43455D01*
X170950Y-43449D01*
D02*
G37*
G36*
X176648Y-41665D02*
X176601Y-41800D01*
X176554Y-41946D01*
X176496Y-42081D01*
X176443Y-42209D01*
X176391Y-42320D01*
X176373Y-42367D01*
X176350Y-42408D01*
X176338Y-42437D01*
X176326Y-42461D01*
X176315Y-42478D01*
Y-42484D01*
X176221Y-42654D01*
X176122Y-42818D01*
X176022Y-42964D01*
X175923Y-43098D01*
X175882Y-43151D01*
X175841Y-43204D01*
X175800Y-43251D01*
X175771Y-43291D01*
X175741Y-43321D01*
X175724Y-43344D01*
X175712Y-43356D01*
X175706Y-43362D01*
X175747Y-43426D01*
X175928Y-43286D01*
X176086Y-43139D01*
X176227Y-43005D01*
X176291Y-42935D01*
X176344Y-42876D01*
X176397Y-42818D01*
X176437Y-42765D01*
X176478Y-42724D01*
X176508Y-42683D01*
X176531Y-42648D01*
X176554Y-42625D01*
X176560Y-42613D01*
X176566Y-42607D01*
X176882D01*
X176981Y-42747D01*
X177063Y-42870D01*
X177128Y-42987D01*
X177180Y-43087D01*
X177216Y-43169D01*
X177239Y-43227D01*
X177245Y-43251D01*
X177251Y-43268D01*
X177256Y-43274D01*
Y-43280D01*
X177280Y-43350D01*
X177309Y-43403D01*
X177332Y-43438D01*
X177356Y-43461D01*
X177374Y-43479D01*
X177391Y-43485D01*
X177397Y-43490D01*
X177403D01*
X177420Y-43485D01*
X177438Y-43479D01*
X177479Y-43449D01*
X177508Y-43420D01*
X177514Y-43414D01*
X177520Y-43408D01*
X177543Y-43373D01*
X177567Y-43332D01*
X177584Y-43256D01*
X177590Y-43221D01*
X177596Y-43192D01*
Y-43174D01*
Y-43169D01*
X177590Y-43110D01*
X177572Y-43058D01*
X177543Y-43011D01*
X177520Y-42970D01*
X177490Y-42935D01*
X177461Y-42911D01*
X177444Y-42894D01*
X177438Y-42888D01*
X177374Y-42841D01*
X177303Y-42788D01*
X177233Y-42742D01*
X177163Y-42701D01*
X177099Y-42660D01*
X177052Y-42630D01*
X177017Y-42613D01*
X177011Y-42607D01*
X178263D01*
X177865Y-42192D01*
X177549Y-42484D01*
X176630D01*
X176677Y-42408D01*
X176724Y-42332D01*
X176771Y-42256D01*
X176812Y-42180D01*
X176847Y-42121D01*
X176876Y-42069D01*
X176894Y-42034D01*
X176900Y-42028D01*
Y-42022D01*
X177093Y-41940D01*
X176648Y-41665D01*
D02*
G37*
%LPD*%
D32*
X41842Y160000D02*
G03*
X41842Y160000I-9843J0D01*
G01*
X42058Y165807D02*
G03*
X42058Y154193I-10058J-5807D01*
G01*
X39937Y128000D02*
G03*
X39937Y128000I-3937J0D01*
G01*
X37937Y96000D02*
G03*
X37937Y96000I-3937J0D01*
G01*
X137713Y-17842D02*
G03*
X137713Y1843I0J9843D01*
G01*
X118500D02*
G03*
X118500Y-17842I0J-9843D01*
G01*
X37937Y64000D02*
G03*
X37937Y64000I-3937J0D01*
G01*
X266239Y-6000D02*
G03*
X266239Y-6000I-25239J0D01*
G01*
X176433Y248028D02*
G03*
X147576Y248005I-14433J5472D01*
G01*
X79843Y184000D02*
G03*
X79843Y184000I-9843J0D01*
G01*
X80058Y189807D02*
G03*
X80058Y178193I-10058J-5807D01*
G01*
X77842Y224000D02*
G03*
X77842Y224000I-9843J0D01*
G01*
X78058Y229807D02*
G03*
X78058Y218193I-10058J-5807D01*
G01*
X45842Y262000D02*
G03*
X45842Y262000I-9843J0D01*
G01*
X46058Y267807D02*
G03*
X46058Y256193I-10058J-5807D01*
G01*
X75842Y260000D02*
G03*
X75842Y260000I-9843J0D01*
G01*
X76058Y265807D02*
G03*
X76058Y254193I-10058J-5807D01*
G01*
X241843Y264000D02*
G03*
X241843Y264000I-9843J0D01*
G01*
X242058Y269807D02*
G03*
X242058Y258193I-10058J-5807D01*
G01*
X41842Y192000D02*
G03*
X41842Y192000I-9843J0D01*
G01*
X42058Y197807D02*
G03*
X42058Y186193I-10058J-5807D01*
G01*
X41842Y224000D02*
G03*
X41842Y224000I-9843J0D01*
G01*
X42058Y229807D02*
G03*
X42058Y218193I-10058J-5807D01*
G01*
X37937Y26000D02*
G03*
X37937Y26000I-3937J0D01*
G01*
Y-10000D02*
G03*
X37937Y-10000I-3937J0D01*
G01*
X367763Y14000D02*
G03*
X367763Y14000I-45763J0D01*
G01*
X75062Y34000D02*
G03*
X75062Y34000I-10062J0D01*
G01*
X42058Y154193D02*
Y165807D01*
X24189Y124850D02*
Y131543D01*
X47811Y124850D02*
Y131543D01*
X29307Y116189D02*
X42693D01*
X29307Y139811D02*
X42693D01*
X22189Y92850D02*
Y99543D01*
X45811Y92850D02*
Y99543D01*
X27307Y84189D02*
X40693D01*
X27307Y107811D02*
X40693D01*
X132500Y218000D02*
X149500D01*
X132500Y222000D02*
X149500D01*
Y218000D02*
Y222000D01*
X150000Y220000D02*
X156500D01*
X126000D02*
X132500D01*
Y218000D02*
Y222000D01*
X118500Y-17843D02*
X137713D01*
X118500Y1843D02*
X137713D01*
X22189Y60850D02*
Y67543D01*
X45811Y60850D02*
Y67543D01*
X27307Y52189D02*
X40693D01*
X27307Y75811D02*
X40693D01*
X139276Y-32000D02*
Y-20000D01*
X138276Y-32000D02*
Y-20000D01*
X137276Y-32000D02*
Y-20000D01*
X115276Y-26000D02*
X118276D01*
X142276D02*
X145276D01*
X118276Y-32000D02*
Y-20000D01*
Y-32000D02*
X142276D01*
Y-20000D01*
X118276D02*
X142276D01*
X233000Y-6000D02*
X239000D01*
X236000Y-8500D02*
Y-3500D01*
X147576Y248005D02*
X176495D01*
X80058Y178193D02*
Y189807D01*
X78058Y218193D02*
Y229807D01*
X46058Y256193D02*
Y267807D01*
X76058Y254193D02*
Y265807D01*
X242058Y258193D02*
Y269807D01*
X42058Y186193D02*
Y197807D01*
Y218193D02*
Y229807D01*
X22189Y22850D02*
Y29543D01*
X45811Y22850D02*
Y29543D01*
X27307Y14189D02*
X40693D01*
X27307Y37811D02*
X40693D01*
X22189Y-13150D02*
Y-6457D01*
X45811Y-13150D02*
Y-6457D01*
X27307Y-21811D02*
X40693D01*
X27307Y1811D02*
X40693D01*
X298599Y132398D02*
X297599Y133398D01*
X295600D01*
X294600Y132398D01*
Y128400D01*
X295600Y127400D01*
X297599D01*
X298599Y128400D01*
X300598D02*
X301598Y127400D01*
X303597D01*
X304597Y128400D01*
Y132398D01*
X303597Y133398D01*
X301598D01*
X300598Y132398D01*
Y131399D01*
X301598Y130399D01*
X304597D01*
X300599Y268398D02*
X299599Y269398D01*
X297600D01*
X296600Y268398D01*
Y264400D01*
X297600Y263400D01*
X299599D01*
X300599Y264400D01*
X302598Y269398D02*
X306597D01*
Y268398D01*
X302598Y264400D01*
Y263400D01*
X151049Y273450D02*
Y277448D01*
X150049Y278448D01*
X148050D01*
X147050Y277448D01*
Y273450D01*
X148050Y272450D01*
X150049D01*
X149049Y274449D02*
X151049Y272450D01*
X150049D02*
X151049Y273450D01*
X153048Y272450D02*
X155047D01*
X154048D01*
Y278448D01*
X153048Y277448D01*
X298649Y202348D02*
X297649Y203348D01*
X295650D01*
X294650Y202348D01*
Y198350D01*
X295650Y197350D01*
X297649D01*
X298649Y198350D01*
X300648Y202348D02*
X301648Y203348D01*
X303647D01*
X304647Y202348D01*
Y201349D01*
X303647Y200349D01*
X302647D01*
X303647D01*
X304647Y199349D01*
Y198350D01*
X303647Y197350D01*
X301648D01*
X300648Y198350D01*
X87149Y177848D02*
X86149Y178848D01*
X84150D01*
X83150Y177848D01*
Y173850D01*
X84150Y172850D01*
X86149D01*
X87149Y173850D01*
X93147Y178848D02*
X89148D01*
Y175849D01*
X91147Y176849D01*
X92147D01*
X93147Y175849D01*
Y173850D01*
X92147Y172850D01*
X90148D01*
X89148Y173850D01*
X187600Y274400D02*
Y280398D01*
X190599D01*
X191599Y279398D01*
Y277399D01*
X190599Y276399D01*
X187600D01*
X193598Y274400D02*
X195597D01*
X194598D01*
Y280398D01*
X193598Y279398D01*
X276750Y69248D02*
Y63250D01*
X279749D01*
X280749Y64250D01*
Y65249D01*
X279749Y66249D01*
X276750D01*
X279749D01*
X280749Y67249D01*
Y68248D01*
X279749Y69248D01*
X276750D01*
X282748D02*
X286747D01*
X284747D01*
Y63250D01*
X288746D02*
X290745D01*
X289746D01*
Y69248D01*
X288746Y68248D01*
D33*
X142618Y14921D02*
G03*
X137539Y14921I-2539J0D01*
G01*
X354000Y94000D02*
G03*
X354000Y94000I-30000J0D01*
G01*
X356000Y230000D02*
G03*
X356000Y230000I-30000J0D01*
G01*
X354000Y164000D02*
G03*
X354000Y164000I-30000J0D01*
G01*
X76303Y12921D02*
G03*
X81224Y12921I2461J0D01*
G01*
X60500Y143500D02*
X75500D01*
Y108500D02*
Y143500D01*
X60500Y108500D02*
X75500D01*
X60500D02*
Y143500D01*
X87000Y23000D02*
Y113000D01*
Y23000D02*
X97000D01*
Y113000D01*
X87000D02*
X97000D01*
X64000Y86000D02*
Y90000D01*
Y58000D02*
Y62000D01*
X68000D02*
Y86000D01*
X60000D02*
X68000D01*
X60000Y62000D02*
Y86000D01*
Y62000D02*
X68000D01*
X142618Y14921D02*
X161791D01*
X118366D02*
X137539D01*
X118366D02*
Y210500D01*
X161791D01*
Y14921D02*
Y210500D01*
X133000Y271000D02*
X143000D01*
Y231000D02*
Y271000D01*
X133000Y231000D02*
Y271000D01*
Y231000D02*
X143000D01*
X160500Y1500D02*
X175500D01*
Y-33500D02*
Y1500D01*
X160500Y-33500D02*
X175500D01*
X160500D02*
Y1500D01*
X316500Y262500D02*
Y277500D01*
X351500D01*
Y262500D02*
Y277500D01*
X316500Y262500D02*
X351500D01*
X188500Y-33500D02*
X203500D01*
X188500D02*
Y1500D01*
X203500D01*
Y-33500D02*
Y1500D01*
X82937Y248779D02*
Y267283D01*
X125063Y248779D02*
Y267283D01*
X82937D02*
X125063D01*
X82937Y248779D02*
X125063D01*
X82937Y250748D02*
X125063D01*
X82500Y169500D02*
X97500D01*
Y134500D02*
Y169500D01*
X82500Y134500D02*
X97500D01*
X82500D02*
Y169500D01*
X187000Y271000D02*
X207000D01*
X187000Y261000D02*
Y271000D01*
Y261000D02*
X207000D01*
Y271000D01*
X72209Y12921D02*
X76303D01*
X81224D02*
X85319D01*
Y-26449D02*
Y12921D01*
X72209Y-26449D02*
X85319D01*
X72209D02*
Y12921D01*
D34*
X292000Y11000D02*
Y17500D01*
X288500Y14000D02*
X295500D01*
D35*
X25000Y177999D02*
Y177000D01*
X25500Y176500D01*
X26000Y177000D01*
Y177999D01*
X26500D02*
Y176500D01*
X27249D01*
X27499Y176750D01*
Y177750D01*
X27249Y177999D01*
X26500D01*
X28999D02*
X28499Y177750D01*
X27999Y177250D01*
Y176750D01*
X28249Y176500D01*
X28749D01*
X28999Y176750D01*
Y177000D01*
X28749Y177250D01*
X27999D01*
X24000Y144000D02*
Y142500D01*
Y143000D01*
X25000Y144000D01*
X24250Y143250D01*
X25000Y142500D01*
X26499D02*
X25499D01*
X26499Y143500D01*
Y143750D01*
X26249Y144000D01*
X25749D01*
X25499Y143750D01*
X77500Y146250D02*
X77250Y146500D01*
X76750D01*
X76500Y146250D01*
Y145250D01*
X76750Y145000D01*
X77250D01*
X77500Y145250D01*
X78999Y146500D02*
X78499Y146250D01*
X78000Y145750D01*
Y145250D01*
X78249Y145000D01*
X78749D01*
X78999Y145250D01*
Y145500D01*
X78749Y145750D01*
X78000D01*
X86000Y116500D02*
Y117999D01*
X86750D01*
X87000Y117750D01*
Y117250D01*
X86750Y117000D01*
X86000D01*
X86500D02*
X87000Y116500D01*
X87499D02*
Y117999D01*
X88249D01*
X88499Y117750D01*
Y117250D01*
X88249Y117000D01*
X87499D01*
X88999Y116500D02*
X89499D01*
X89249D01*
Y117999D01*
X88999Y117750D01*
X62000Y99000D02*
Y100499D01*
X62750D01*
X63000Y100250D01*
Y99750D01*
X62750Y99500D01*
X62000D01*
X62500D02*
X63000Y99000D01*
X63499D02*
X63999D01*
X63749D01*
Y100499D01*
X63499Y100250D01*
X20000Y111999D02*
Y110500D01*
Y111000D01*
X21000Y111999D01*
X20250Y111250D01*
X21000Y110500D01*
X21499Y111750D02*
X21749Y111999D01*
X22249D01*
X22499Y111750D01*
Y111500D01*
X22249Y111250D01*
X21999D01*
X22249D01*
X22499Y111000D01*
Y110750D01*
X22249Y110500D01*
X21749D01*
X21499Y110750D01*
X108500Y217000D02*
Y215750D01*
X108750Y215500D01*
X109250D01*
X109500Y215750D01*
Y217000D01*
X110000Y216750D02*
X110249Y217000D01*
X110749D01*
X110999Y216750D01*
Y216500D01*
X110749Y216250D01*
X110499D01*
X110749D01*
X110999Y216000D01*
Y215750D01*
X110749Y215500D01*
X110249D01*
X110000Y215750D01*
X122000Y233500D02*
Y234999D01*
X122750D01*
X123000Y234750D01*
Y234250D01*
X122750Y234000D01*
X122000D01*
X122500D02*
X123000Y233500D01*
X124499Y234999D02*
X123999Y234750D01*
X123500Y234250D01*
Y233750D01*
X123749Y233500D01*
X124249D01*
X124499Y233750D01*
Y234000D01*
X124249Y234250D01*
X123500D01*
X134000Y278999D02*
X133500D01*
X133750D01*
Y277750D01*
X133500Y277500D01*
X133250D01*
X133000Y277750D01*
X135499Y277500D02*
X134500D01*
X135499Y278500D01*
Y278750D01*
X135249Y278999D01*
X134749D01*
X134500Y278750D01*
X151000Y5250D02*
X150750Y5500D01*
X150250D01*
X150000Y5250D01*
Y4250D01*
X150250Y4000D01*
X150750D01*
X151000Y4250D01*
X152249Y4000D02*
Y5500D01*
X151499Y4750D01*
X152499D01*
X113500Y5999D02*
Y5750D01*
X114000Y5250D01*
X114500Y5750D01*
Y5999D01*
X114000Y5250D02*
Y4500D01*
X114999D02*
X115499D01*
X115249D01*
Y5999D01*
X114999Y5750D01*
X105500Y-11501D02*
Y-13000D01*
X106250D01*
X106500Y-12750D01*
Y-11750D01*
X106250Y-11501D01*
X105500D01*
X107000Y-13000D02*
X107499D01*
X107249D01*
Y-11501D01*
X107000Y-11750D01*
X215600Y23499D02*
Y22000D01*
X216350D01*
X216600Y22250D01*
Y22500D01*
X216350Y22750D01*
X215600D01*
X216350D01*
X216600Y23000D01*
Y23250D01*
X216350Y23499D01*
X215600D01*
X218099D02*
X217099D01*
Y22000D01*
X218099D01*
X217099Y22750D02*
X217599D01*
X219599Y23499D02*
X218599D01*
Y22000D01*
X219599D01*
X218599Y22750D02*
X219099D01*
X220099Y22000D02*
Y23499D01*
X220848D01*
X221098Y23250D01*
Y22750D01*
X220848Y22500D01*
X220099D01*
X221598Y22000D02*
X222098D01*
X221848D01*
Y23499D01*
X221598Y23250D01*
X317400Y281450D02*
X317150Y281699D01*
X316650D01*
X316400Y281450D01*
Y280450D01*
X316650Y280200D01*
X317150D01*
X317400Y280450D01*
X317899Y280200D02*
X318399D01*
X318149D01*
Y281699D01*
X317899Y281450D01*
X189400Y5450D02*
X189150Y5700D01*
X188650D01*
X188400Y5450D01*
Y4450D01*
X188650Y4200D01*
X189150D01*
X189400Y4450D01*
X190899Y4200D02*
X189900D01*
X190899Y5200D01*
Y5450D01*
X190649Y5700D01*
X190149D01*
X189900Y5450D01*
X82800Y279399D02*
Y278150D01*
X83050Y277900D01*
X83550D01*
X83800Y278150D01*
Y279399D01*
X85049Y277900D02*
Y279399D01*
X84299Y278650D01*
X85299D01*
X58200Y199899D02*
Y198900D01*
X58700Y198400D01*
X59200Y198900D01*
Y199899D01*
X59699D02*
Y198400D01*
X60449D01*
X60699Y198650D01*
Y199650D01*
X60449Y199899D01*
X59699D01*
X61199Y198400D02*
X61699D01*
X61449D01*
Y199899D01*
X61199Y199650D01*
X56200Y239899D02*
Y238900D01*
X56700Y238400D01*
X57200Y238900D01*
Y239899D01*
X57700D02*
Y238400D01*
X58449D01*
X58699Y238650D01*
Y239650D01*
X58449Y239899D01*
X57700D01*
X60199Y238400D02*
X59199D01*
X60199Y239400D01*
Y239650D01*
X59949Y239899D01*
X59449D01*
X59199Y239650D01*
X24200Y277900D02*
Y276900D01*
X24700Y276400D01*
X25200Y276900D01*
Y277900D01*
X25699D02*
Y276400D01*
X26449D01*
X26699Y276650D01*
Y277650D01*
X26449Y277900D01*
X25699D01*
X27199Y277650D02*
X27449Y277900D01*
X27949D01*
X28199Y277650D01*
Y277400D01*
X27949Y277150D01*
X27699D01*
X27949D01*
X28199Y276900D01*
Y276650D01*
X27949Y276400D01*
X27449D01*
X27199Y276650D01*
X54200Y275900D02*
Y274900D01*
X54700Y274400D01*
X55200Y274900D01*
Y275900D01*
X55699D02*
Y274400D01*
X56449D01*
X56699Y274650D01*
Y275650D01*
X56449Y275900D01*
X55699D01*
X57949Y274400D02*
Y275900D01*
X57199Y275150D01*
X58199D01*
X220200Y279900D02*
Y278900D01*
X220700Y278400D01*
X221200Y278900D01*
Y279900D01*
X221700D02*
Y278400D01*
X222449D01*
X222699Y278650D01*
Y279650D01*
X222449Y279900D01*
X221700D01*
X224199D02*
X223199D01*
Y279150D01*
X223699Y279400D01*
X223949D01*
X224199Y279150D01*
Y278650D01*
X223949Y278400D01*
X223449D01*
X223199Y278650D01*
X20200Y207899D02*
Y206900D01*
X20700Y206400D01*
X21200Y206900D01*
Y207899D01*
X21700D02*
Y206400D01*
X22449D01*
X22699Y206650D01*
Y207650D01*
X22449Y207899D01*
X21700D01*
X23199D02*
X24199D01*
Y207650D01*
X23199Y206650D01*
Y206400D01*
X20200Y239899D02*
Y238900D01*
X20700Y238400D01*
X21200Y238900D01*
Y239899D01*
X21700D02*
Y238400D01*
X22449D01*
X22699Y238650D01*
Y239650D01*
X22449Y239899D01*
X21700D01*
X23199Y239650D02*
X23449Y239899D01*
X23949D01*
X24199Y239650D01*
Y239400D01*
X23949Y239150D01*
X24199Y238900D01*
Y238650D01*
X23949Y238400D01*
X23449D01*
X23199Y238650D01*
Y238900D01*
X23449Y239150D01*
X23199Y239400D01*
Y239650D01*
X23449Y239150D02*
X23949D01*
X17400Y42799D02*
Y41300D01*
Y41800D01*
X18400Y42799D01*
X17650Y42050D01*
X18400Y41300D01*
X19899Y42799D02*
X18900D01*
Y42050D01*
X19399Y42300D01*
X19649D01*
X19899Y42050D01*
Y41550D01*
X19649Y41300D01*
X19149D01*
X18900Y41550D01*
X17400Y6799D02*
Y5300D01*
Y5800D01*
X18400Y6799D01*
X17650Y6050D01*
X18400Y5300D01*
X19899Y6799D02*
X19399Y6550D01*
X18900Y6050D01*
Y5550D01*
X19149Y5300D01*
X19649D01*
X19899Y5550D01*
Y5800D01*
X19649Y6050D01*
X18900D01*
X59000Y17099D02*
Y15850D01*
X59250Y15600D01*
X59750D01*
X60000Y15850D01*
Y17099D01*
X60500Y15600D02*
X60999D01*
X60749D01*
Y17099D01*
X60500Y16850D01*
X54700Y48399D02*
X55700Y46900D01*
Y48399D02*
X54700Y46900D01*
X56200D02*
X56699D01*
X56449D01*
Y48399D01*
X56200Y48150D01*
D36*
X356015Y94051D02*
X359951D01*
X357983Y96019D02*
Y92083D01*
X358015Y230051D02*
X361951D01*
X359983Y232019D02*
Y228083D01*
X356015Y164051D02*
X359951D01*
X357983Y166019D02*
Y162083D01*
X95969Y270139D02*
X94985Y269156D01*
X93017D01*
X92033Y270139D01*
Y271123D01*
X93017Y272107D01*
X94001D01*
X93017D01*
X92033Y273091D01*
Y274075D01*
X93017Y275059D01*
X94985D01*
X95969Y274075D01*
X114984Y275059D02*
X113016D01*
X114000D01*
Y269156D01*
X114984Y270139D01*
X102033Y275059D02*
X105968D01*
X102033Y271123D01*
Y270139D01*
X103017Y269156D01*
X104985D01*
X105968Y270139D01*
M02*
