%FSLAX25Y25*%
%MOIN*%
G70*
G01*
G75*
G04 Layer_Color=2752767*
%ADD10C,0.01200*%
%ADD11C,0.02500*%
%ADD12C,0.05800*%
%ADD13R,0.05600X0.05600*%
%ADD14C,0.07087*%
%ADD15C,0.04724*%
%ADD16C,0.07874*%
%ADD17R,0.07874X0.07874*%
%ADD18C,0.05512*%
%ADD19R,0.09843X0.07087*%
%ADD20O,0.09843X0.07087*%
%ADD21C,0.07087*%
%ADD22R,0.05906X0.05906*%
%ADD23C,0.05906*%
%ADD24R,0.07874X0.07874*%
%ADD25R,0.04724X0.04724*%
%ADD26C,0.08200*%
%ADD27R,0.05906X0.05906*%
%ADD28R,0.09843X0.07874*%
%ADD29O,0.09843X0.07874*%
%ADD30C,0.05000*%
%ADD31C,0.06000*%
%ADD32C,0.01000*%
%ADD33C,0.00787*%
%ADD34C,0.00600*%
%ADD35C,0.00300*%
%ADD36C,0.00591*%
%ADD37C,0.06600*%
%ADD38R,0.06400X0.06400*%
%ADD39C,0.07887*%
%ADD40C,0.05524*%
%ADD41C,0.08674*%
%ADD42R,0.08674X0.08674*%
%ADD43C,0.06312*%
%ADD44R,0.10642X0.07887*%
%ADD45O,0.10642X0.07887*%
%ADD46C,0.07887*%
%ADD47R,0.06706X0.06706*%
%ADD48C,0.06706*%
%ADD49R,0.08674X0.08674*%
%ADD50R,0.05524X0.05524*%
%ADD51C,0.09000*%
%ADD52R,0.06706X0.06706*%
%ADD53R,0.10642X0.08674*%
%ADD54O,0.10642X0.08674*%
%ADD55C,0.06800*%
%ADD56C,0.00800*%
%ADD57C,0.00667*%
D35*
X35000Y158000D02*
Y162000D01*
X39000D01*
Y158000D01*
X35000D01*
X25000D02*
Y162000D01*
X29000D01*
Y158000D01*
X25000D01*
X68000Y134000D02*
X66000Y138000D01*
X70000D01*
X68000Y134000D01*
Y114000D02*
X66000Y118000D01*
X70000D01*
X68000Y114000D01*
X92000Y36000D02*
X93000Y37000D01*
X94000D01*
X93000Y38000D01*
X94000Y39000D01*
X93000D01*
X92000Y40000D01*
X91000Y39000D01*
X90000D01*
X91000Y38000D01*
X90000Y37000D01*
X91000D01*
X92000Y36000D01*
Y106000D02*
X93000Y107000D01*
X94000D01*
X93000Y108000D01*
X94000Y109000D01*
X93000D01*
X92000Y110000D01*
X91000Y109000D01*
X90000D01*
X91000Y108000D01*
X90000Y107000D01*
X91000D01*
X92000Y106000D01*
Y96000D02*
X93000Y97000D01*
X94000D01*
X93000Y98000D01*
X94000Y99000D01*
X93000D01*
X92000Y100000D01*
X91000Y99000D01*
X90000D01*
X91000Y98000D01*
X90000Y97000D01*
X91000D01*
X92000Y96000D01*
Y86000D02*
X93000Y87000D01*
X94000D01*
X93000Y88000D01*
X94000Y89000D01*
X93000D01*
X92000Y90000D01*
X91000Y89000D01*
X90000D01*
X91000Y88000D01*
X90000Y87000D01*
X91000D01*
X92000Y86000D01*
Y76000D02*
X93000Y77000D01*
X94000D01*
X93000Y78000D01*
X94000Y79000D01*
X93000D01*
X92000Y80000D01*
X91000Y79000D01*
X90000D01*
X91000Y78000D01*
X90000Y77000D01*
X91000D01*
X92000Y76000D01*
Y66000D02*
X93000Y67000D01*
X94000D01*
X93000Y68000D01*
X94000Y69000D01*
X93000D01*
X92000Y70000D01*
X91000Y69000D01*
X90000D01*
X91000Y68000D01*
X90000Y67000D01*
X91000D01*
X92000Y66000D01*
Y56000D02*
X93000Y57000D01*
X94000D01*
X93000Y58000D01*
X94000Y59000D01*
X93000D01*
X92000Y60000D01*
X91000Y59000D01*
X90000D01*
X91000Y58000D01*
X90000Y57000D01*
X91000D01*
X92000Y56000D01*
Y46000D02*
X93000Y47000D01*
X94000D01*
X93000Y48000D01*
X94000Y49000D01*
X93000D01*
X92000Y50000D01*
X91000Y49000D01*
X90000D01*
X91000Y48000D01*
X90000Y47000D01*
X91000D01*
X92000Y46000D01*
Y26000D02*
X93000Y27000D01*
X94000D01*
X93000Y28000D01*
X94000Y29000D01*
X93000D01*
X92000Y30000D01*
X91000Y29000D01*
X90000D01*
X91000Y28000D01*
X90000Y27000D01*
X91000D01*
X92000Y26000D01*
X62000Y92000D02*
X63000Y94000D01*
X62000Y96000D01*
X64000Y95000D01*
X66000Y96000D01*
X65000Y94000D01*
X66000Y92000D01*
X64000Y93000D01*
X62000Y92000D01*
Y52000D02*
X63000Y54000D01*
X62000Y56000D01*
X64000Y55000D01*
X66000Y56000D01*
X65000Y54000D01*
X66000Y52000D01*
X64000Y53000D01*
X62000Y52000D01*
X169000Y19000D02*
Y18000D01*
X171000D01*
Y19000D01*
X172000D01*
Y21000D01*
X171000D01*
Y22000D01*
X169000D01*
Y21000D01*
X168000D01*
Y19000D01*
X169000D01*
Y28500D02*
Y27500D01*
X171000D01*
Y28500D01*
X172000D01*
Y30500D01*
X171000D01*
Y31500D01*
X169000D01*
Y30500D01*
X168000D01*
Y28500D01*
X169000D01*
Y39000D02*
Y38000D01*
X171000D01*
Y39000D01*
X172000D01*
Y41000D01*
X171000D01*
Y42000D01*
X169000D01*
Y41000D01*
X168000D01*
Y39000D01*
X169000D01*
Y49000D02*
Y48000D01*
X171000D01*
Y49000D01*
X172000D01*
Y51000D01*
X171000D01*
Y52000D01*
X169000D01*
Y51000D01*
X168000D01*
Y49000D01*
X169000D01*
Y59000D02*
Y58000D01*
X171000D01*
Y59000D01*
X172000D01*
Y61000D01*
X171000D01*
Y62000D01*
X169000D01*
Y61000D01*
X168000D01*
Y59000D01*
X169000D01*
Y69000D02*
Y68000D01*
X171000D01*
Y69000D01*
X172000D01*
Y71000D01*
X171000D01*
Y72000D01*
X169000D01*
Y71000D01*
X168000D01*
Y69000D01*
X169000D01*
Y79000D02*
Y78000D01*
X171000D01*
Y79000D01*
X172000D01*
Y81000D01*
X171000D01*
Y82000D01*
X169000D01*
Y81000D01*
X168000D01*
Y79000D01*
X169000D01*
Y89000D02*
Y88000D01*
X171000D01*
Y89000D01*
X172000D01*
Y91000D01*
X171000D01*
Y92000D01*
X169000D01*
Y91000D01*
X168000D01*
Y89000D01*
X169000D01*
Y99000D02*
Y98000D01*
X171000D01*
Y99000D01*
X172000D01*
Y101000D01*
X171000D01*
Y102000D01*
X169000D01*
Y101000D01*
X168000D01*
Y99000D01*
X169000D01*
Y109000D02*
Y108000D01*
X171000D01*
Y109000D01*
X172000D01*
Y111000D01*
X171000D01*
Y112000D01*
X169000D01*
Y111000D01*
X168000D01*
Y109000D01*
X169000D01*
Y119000D02*
Y118000D01*
X171000D01*
Y119000D01*
X172000D01*
Y121000D01*
X171000D01*
Y122000D01*
X169000D01*
Y121000D01*
X168000D01*
Y119000D01*
X169000D01*
Y129000D02*
Y128000D01*
X171000D01*
Y129000D01*
X172000D01*
Y131000D01*
X171000D01*
Y132000D01*
X169000D01*
Y131000D01*
X168000D01*
Y129000D01*
X169000D01*
Y139000D02*
Y138000D01*
X171000D01*
Y139000D01*
X172000D01*
Y141000D01*
X171000D01*
Y142000D01*
X169000D01*
Y141000D01*
X168000D01*
Y139000D01*
X169000D01*
Y149000D02*
Y148000D01*
X171000D01*
Y149000D01*
X172000D01*
Y151000D01*
X171000D01*
Y152000D01*
X169000D01*
Y151000D01*
X168000D01*
Y149000D01*
X169000D01*
Y159000D02*
Y158000D01*
X171000D01*
Y159000D01*
X172000D01*
Y161000D01*
X171000D01*
Y162000D01*
X169000D01*
Y161000D01*
X168000D01*
Y159000D01*
X169000D01*
Y169000D02*
Y168000D01*
X171000D01*
Y169000D01*
X172000D01*
Y171000D01*
X171000D01*
Y172000D01*
X169000D01*
Y171000D01*
X168000D01*
Y169000D01*
X169000D01*
Y179000D02*
Y178000D01*
X171000D01*
Y179000D01*
X172000D01*
Y181000D01*
X171000D01*
Y182000D01*
X169000D01*
Y181000D01*
X168000D01*
Y179000D01*
X169000D01*
Y189000D02*
Y188000D01*
X171000D01*
Y189000D01*
X172000D01*
Y191000D01*
X171000D01*
Y192000D01*
X169000D01*
Y191000D01*
X168000D01*
Y189000D01*
X169000D01*
Y199000D02*
Y198000D01*
X171000D01*
Y199000D01*
X172000D01*
Y201000D01*
X171000D01*
Y202000D01*
X169000D01*
Y201000D01*
X168000D01*
Y199000D01*
X169000D01*
Y209000D02*
Y208000D01*
X171000D01*
Y209000D01*
X172000D01*
Y211000D01*
X171000D01*
Y212000D01*
X169000D01*
Y211000D01*
X168000D01*
Y209000D01*
X169000D01*
X109000Y19000D02*
Y18000D01*
X111000D01*
Y19000D01*
X112000D01*
Y21000D01*
X111000D01*
Y22000D01*
X109000D01*
Y21000D01*
X108000D01*
Y19000D01*
X109000D01*
Y29000D02*
Y28000D01*
X111000D01*
Y29000D01*
X112000D01*
Y31000D01*
X111000D01*
Y32000D01*
X109000D01*
Y31000D01*
X108000D01*
Y29000D01*
X109000D01*
Y39000D02*
Y38000D01*
X111000D01*
Y39000D01*
X112000D01*
Y41000D01*
X111000D01*
Y42000D01*
X109000D01*
Y41000D01*
X108000D01*
Y39000D01*
X109000D01*
Y49000D02*
Y48000D01*
X111000D01*
Y49000D01*
X112000D01*
Y51000D01*
X111000D01*
Y52000D01*
X109000D01*
Y51000D01*
X108000D01*
Y49000D01*
X109000D01*
Y59000D02*
Y58000D01*
X111000D01*
Y59000D01*
X112000D01*
Y61000D01*
X111000D01*
Y62000D01*
X109000D01*
Y61000D01*
X108000D01*
Y59000D01*
X109000D01*
Y69000D02*
Y68000D01*
X111000D01*
Y69000D01*
X112000D01*
Y71000D01*
X111000D01*
Y72000D01*
X109000D01*
Y71000D01*
X108000D01*
Y69000D01*
X109000D01*
Y79000D02*
Y78000D01*
X111000D01*
Y79000D01*
X112000D01*
Y81000D01*
X111000D01*
Y82000D01*
X109000D01*
Y81000D01*
X108000D01*
Y79000D01*
X109000D01*
Y89000D02*
Y88000D01*
X111000D01*
Y89000D01*
X112000D01*
Y91000D01*
X111000D01*
Y92000D01*
X109000D01*
Y91000D01*
X108000D01*
Y89000D01*
X109000D01*
Y99000D02*
Y98000D01*
X111000D01*
Y99000D01*
X112000D01*
Y101000D01*
X111000D01*
Y102000D01*
X109000D01*
Y101000D01*
X108000D01*
Y99000D01*
X109000D01*
Y109000D02*
Y108000D01*
X111000D01*
Y109000D01*
X112000D01*
Y111000D01*
X111000D01*
Y112000D01*
X109000D01*
Y111000D01*
X108000D01*
Y109000D01*
X109000D01*
Y119000D02*
Y118000D01*
X111000D01*
Y119000D01*
X112000D01*
Y121000D01*
X111000D01*
Y122000D01*
X109000D01*
Y121000D01*
X108000D01*
Y119000D01*
X109000D01*
Y129000D02*
Y128000D01*
X111000D01*
Y129000D01*
X112000D01*
Y131000D01*
X111000D01*
Y132000D01*
X109000D01*
Y131000D01*
X108000D01*
Y129000D01*
X109000D01*
Y139000D02*
Y138000D01*
X111000D01*
Y139000D01*
X112000D01*
Y141000D01*
X111000D01*
Y142000D01*
X109000D01*
Y141000D01*
X108000D01*
Y139000D01*
X109000D01*
Y149000D02*
Y148000D01*
X111000D01*
Y149000D01*
X112000D01*
Y151000D01*
X111000D01*
Y152000D01*
X109000D01*
Y151000D01*
X108000D01*
Y149000D01*
X109000D01*
Y159500D02*
Y158500D01*
X111000D01*
Y159500D01*
X112000D01*
Y161500D01*
X111000D01*
Y162500D01*
X109000D01*
Y161500D01*
X108000D01*
Y159500D01*
X109000D01*
Y169000D02*
Y168000D01*
X111000D01*
Y169000D01*
X112000D01*
Y171000D01*
X111000D01*
Y172000D01*
X109000D01*
Y171000D01*
X108000D01*
Y169000D01*
X109000D01*
Y179000D02*
Y178000D01*
X111000D01*
Y179000D01*
X112000D01*
Y181000D01*
X111000D01*
Y182000D01*
X109000D01*
Y181000D01*
X108000D01*
Y179000D01*
X109000D01*
Y189000D02*
Y188000D01*
X111000D01*
Y189000D01*
X112000D01*
Y191000D01*
X111000D01*
Y192000D01*
X109000D01*
Y191000D01*
X108000D01*
Y189000D01*
X109000D01*
Y199000D02*
Y198000D01*
X111000D01*
Y199000D01*
X112000D01*
Y201000D01*
X111000D01*
Y202000D01*
X109000D01*
Y201000D01*
X108000D01*
Y199000D01*
X109000D01*
Y209000D02*
Y208000D01*
X111000D01*
Y209000D01*
X112000D01*
Y211000D01*
X111000D01*
Y212000D01*
X109000D01*
Y211000D01*
X108000D01*
Y209000D01*
X109000D01*
X154000Y218000D02*
X155000D01*
X156000Y219000D01*
X157000Y218000D01*
X158000D01*
Y219000D01*
X157000Y220000D01*
X158000Y221000D01*
Y222000D01*
X157000D01*
X156000Y221000D01*
X155000Y222000D01*
X154000D01*
Y221000D01*
X155000Y220000D01*
X154000Y219000D01*
Y218000D01*
X124000D02*
X125000D01*
X126000Y219000D01*
X127000Y218000D01*
X128000D01*
Y219000D01*
X127000Y220000D01*
X128000Y221000D01*
Y222000D01*
X127000D01*
X126000Y221000D01*
X125000Y222000D01*
X124000D01*
Y221000D01*
X125000Y220000D01*
X124000Y219000D01*
Y218000D01*
X138000Y234000D02*
X139000Y235000D01*
X140000D01*
X139000Y236000D01*
X140000Y237000D01*
X139000D01*
X138000Y238000D01*
X137000Y237000D01*
X136000D01*
X137000Y236000D01*
X136000Y235000D01*
X137000D01*
X138000Y234000D01*
Y244000D02*
X139000Y245000D01*
X140000D01*
X139000Y246000D01*
X140000Y247000D01*
X139000D01*
X138000Y248000D01*
X137000Y247000D01*
X136000D01*
X137000Y246000D01*
X136000Y245000D01*
X137000D01*
X138000Y244000D01*
Y254000D02*
X139000Y255000D01*
X140000D01*
X139000Y256000D01*
X140000Y257000D01*
X139000D01*
X138000Y258000D01*
X137000Y257000D01*
X136000D01*
X137000Y256000D01*
X136000Y255000D01*
X137000D01*
X138000Y254000D01*
Y264000D02*
X139000Y265000D01*
X140000D01*
X139000Y266000D01*
X140000Y267000D01*
X139000D01*
X138000Y268000D01*
X137000Y267000D01*
X136000D01*
X137000Y266000D01*
X136000Y265000D01*
X137000D01*
X138000Y264000D01*
X168000Y-8000D02*
X166000Y-4000D01*
X170000D01*
X168000Y-8000D01*
Y-28000D02*
X166000Y-24000D01*
X170000D01*
X168000Y-28000D01*
X137713Y-10000D02*
X135713Y-6000D01*
X139713D01*
X137713Y-10000D01*
X118500D02*
X116500Y-6000D01*
X120500D01*
X118500Y-10000D01*
X148551Y-26000D02*
X150551Y-24000D01*
X152551Y-26000D01*
X150551Y-28000D01*
X148551Y-26000D01*
X108000D02*
X110000Y-24000D01*
X112000Y-26000D01*
X110000Y-28000D01*
X108000Y-26000D01*
X224000Y-8000D02*
X225000D01*
X226000Y-7000D01*
X227000Y-8000D01*
X228000D01*
Y-7000D01*
X227000Y-6000D01*
X228000Y-5000D01*
Y-4000D01*
X227000D01*
X226000Y-5000D01*
X225000Y-4000D01*
X224000D01*
Y-5000D01*
X225000Y-6000D01*
X224000Y-7000D01*
Y-8000D01*
X254000D02*
X255000D01*
X256000Y-7000D01*
X257000Y-8000D01*
X258000D01*
Y-7000D01*
X257000Y-6000D01*
X258000Y-5000D01*
Y-4000D01*
X257000D01*
X256000Y-5000D01*
X255000Y-4000D01*
X254000D01*
Y-5000D01*
X255000Y-6000D01*
X254000Y-7000D01*
Y-8000D01*
X339000Y92000D02*
X337000Y96000D01*
X341000D01*
X339000Y92000D01*
X309000D02*
X307000Y96000D01*
X311000D01*
X309000Y92000D01*
X341000Y228000D02*
X339000Y232000D01*
X343000D01*
X341000Y228000D01*
X311000D02*
X309000Y232000D01*
X313000D01*
X311000Y228000D01*
X333000Y201083D02*
Y205083D01*
X337000D01*
Y201083D01*
X333000D01*
X333800Y201883D02*
Y204283D01*
X336200D01*
Y201883D01*
X333800D01*
X333083Y82917D02*
Y86917D01*
X337083D01*
Y82917D01*
X333083D01*
X333883Y83717D02*
Y86117D01*
X336283D01*
Y83717D01*
X333883D01*
X214917Y102667D02*
Y106667D01*
X218917D01*
Y102667D01*
X214917D01*
X215717Y103467D02*
Y105867D01*
X218117D01*
Y103467D01*
X215717D01*
X214917Y181333D02*
Y185333D01*
X218917D01*
Y181333D01*
X214917D01*
X215717Y182133D02*
Y184533D01*
X218117D01*
Y182133D01*
X215717D01*
X324000Y268000D02*
X322000Y272000D01*
X326000D01*
X324000Y268000D01*
X344000D02*
X342000Y272000D01*
X346000D01*
X344000Y268000D01*
X339000Y162000D02*
X337000Y166000D01*
X341000D01*
X339000Y162000D01*
X309000D02*
X307000Y166000D01*
X311000D01*
X309000Y162000D01*
X196000Y-28000D02*
X194000Y-24000D01*
X198000D01*
X196000Y-28000D01*
Y-8000D02*
X194000Y-4000D01*
X198000D01*
X196000Y-8000D01*
X90000Y160000D02*
X88000Y164000D01*
X92000D01*
X90000Y160000D01*
Y140000D02*
X88000Y144000D01*
X92000D01*
X90000Y140000D01*
X202000Y264000D02*
X203000Y265000D01*
X204000D01*
X203000Y266000D01*
X204000Y267000D01*
X203000D01*
X202000Y268000D01*
X201000Y267000D01*
X200000D01*
X201000Y266000D01*
X200000Y265000D01*
X201000D01*
X202000Y264000D01*
X192000D02*
X193000Y265000D01*
X194000D01*
X193000Y266000D01*
X194000Y267000D01*
X193000D01*
X192000Y268000D01*
X191000Y267000D01*
X190000D01*
X191000Y266000D01*
X190000Y265000D01*
X191000D01*
X192000Y264000D01*
X73000Y182000D02*
Y186000D01*
X77000D01*
Y182000D01*
X73000D01*
X63000D02*
Y186000D01*
X67000D01*
Y182000D01*
X63000D01*
X71000Y222000D02*
Y226000D01*
X75000D01*
Y222000D01*
X71000D01*
X61000D02*
Y226000D01*
X65000D01*
Y222000D01*
X61000D01*
X39000Y260000D02*
Y264000D01*
X43000D01*
Y260000D01*
X39000D01*
X29000D02*
Y264000D01*
X33000D01*
Y260000D01*
X29000D01*
X69000Y258000D02*
Y262000D01*
X73000D01*
Y258000D01*
X69000D01*
X59000D02*
Y262000D01*
X63000D01*
Y258000D01*
X59000D01*
X235000Y262000D02*
Y266000D01*
X239000D01*
Y262000D01*
X235000D01*
X225000D02*
Y266000D01*
X229000D01*
Y262000D01*
X225000D01*
X35000Y190000D02*
Y194000D01*
X39000D01*
Y190000D01*
X35000D01*
X25000D02*
Y194000D01*
X29000D01*
Y190000D01*
X25000D01*
X35000Y222000D02*
Y226000D01*
X39000D01*
Y222000D01*
X35000D01*
X25000D02*
Y226000D01*
X29000D01*
Y222000D01*
X25000D01*
X63000Y7000D02*
Y6000D01*
X65000D01*
Y7000D01*
X66000D01*
Y9000D01*
X65000D01*
Y10000D01*
X63000D01*
Y9000D01*
X62000D01*
Y7000D01*
X63000D01*
Y-2843D02*
Y-3843D01*
X65000D01*
Y-2843D01*
X66000D01*
Y-843D01*
X65000D01*
Y157D01*
X63000D01*
Y-843D01*
X62000D01*
Y-2843D01*
X63000D01*
Y-12685D02*
Y-13685D01*
X65000D01*
Y-12685D01*
X66000D01*
Y-10685D01*
X65000D01*
Y-9685D01*
X63000D01*
Y-10685D01*
X62000D01*
Y-12685D01*
X63000D01*
Y-22528D02*
Y-23528D01*
X65000D01*
Y-22528D01*
X66000D01*
Y-20528D01*
X65000D01*
Y-19528D01*
X63000D01*
Y-20528D01*
X62000D01*
Y-22528D01*
X63000D01*
X92528Y7000D02*
Y6000D01*
X94528D01*
Y7000D01*
X95528D01*
Y9000D01*
X94528D01*
Y10000D01*
X92528D01*
Y9000D01*
X91528D01*
Y7000D01*
X92528D01*
Y-2843D02*
Y-3843D01*
X94528D01*
Y-2843D01*
X95528D01*
Y-843D01*
X94528D01*
Y157D01*
X92528D01*
Y-843D01*
X91528D01*
Y-2843D01*
X92528D01*
Y-12685D02*
Y-13685D01*
X94528D01*
Y-12685D01*
X95528D01*
Y-10685D01*
X94528D01*
Y-9685D01*
X92528D01*
Y-10685D01*
X91528D01*
Y-12685D01*
X92528D01*
Y-22528D02*
Y-23528D01*
X94528D01*
Y-22528D01*
X95528D01*
Y-20528D01*
X94528D01*
Y-19528D01*
X92528D01*
Y-20528D01*
X91528D01*
Y-22528D01*
X92528D01*
X58000Y32000D02*
X59000D01*
X60000Y33000D01*
X61000Y32000D01*
X62000D01*
Y33000D01*
X61000Y34000D01*
X62000Y35000D01*
Y36000D01*
X61000D01*
X60000Y35000D01*
X59000Y36000D01*
X58000D01*
Y35000D01*
X59000Y34000D01*
X58000Y33000D01*
Y32000D01*
X68000D02*
X69000D01*
X70000Y33000D01*
X71000Y32000D01*
X72000D01*
Y33000D01*
X71000Y34000D01*
X72000Y35000D01*
Y36000D01*
X71000D01*
X70000Y35000D01*
X69000Y36000D01*
X68000D01*
Y35000D01*
X69000Y34000D01*
X68000Y33000D01*
Y32000D01*
X121700Y227100D02*
Y231100D01*
X125700D01*
Y227100D01*
X121700D01*
X235000Y82900D02*
Y86900D01*
X239000D01*
Y82900D01*
X235000D01*
X99900Y146400D02*
Y150400D01*
X103900D01*
Y146400D01*
X99900D01*
X38000Y59800D02*
Y63800D01*
X42000D01*
Y59800D01*
X38000D01*
X59800Y169900D02*
Y173900D01*
X63800D01*
Y169900D01*
X59800D01*
X21200Y196100D02*
Y200100D01*
X25200D01*
Y196100D01*
X21200D01*
X328500Y213100D02*
Y217100D01*
X332500D01*
Y213100D01*
X328500D01*
X127600Y248500D02*
Y252500D01*
X131600D01*
Y248500D01*
X127600D01*
X25100Y129000D02*
Y133000D01*
X29100D01*
Y129000D01*
X25100D01*
X162400Y3000D02*
Y7000D01*
X166400D01*
Y3000D01*
X162400D01*
X121100Y163300D02*
Y167300D01*
X125100D01*
Y163300D01*
X121100D01*
X128200Y148000D02*
Y152000D01*
X132200D01*
Y148000D01*
X128200D01*
X53100Y121800D02*
Y125800D01*
X57100D01*
Y121800D01*
X53100D01*
X114400Y231900D02*
Y235900D01*
X118400D01*
Y231900D01*
X114400D01*
X204300Y100000D02*
Y104000D01*
X208300D01*
Y100000D01*
X204300D01*
D57*
X50992Y118945D02*
G03*
X50992Y118945I-2000J0D01*
G01*
Y137055D02*
G03*
X50992Y137055I-2000J0D01*
G01*
X25008Y118945D02*
G03*
X25008Y118945I-2000J0D01*
G01*
Y137055D02*
G03*
X25008Y137055I-2000J0D01*
G01*
X48992Y86945D02*
G03*
X48992Y86945I-2000J0D01*
G01*
Y105055D02*
G03*
X48992Y105055I-2000J0D01*
G01*
X23008Y86945D02*
G03*
X23008Y86945I-2000J0D01*
G01*
Y105055D02*
G03*
X23008Y105055I-2000J0D01*
G01*
X48992Y54945D02*
G03*
X48992Y54945I-2000J0D01*
G01*
Y73055D02*
G03*
X48992Y73055I-2000J0D01*
G01*
X23008Y54945D02*
G03*
X23008Y54945I-2000J0D01*
G01*
Y73055D02*
G03*
X23008Y73055I-2000J0D01*
G01*
X174000Y252000D02*
G03*
X174000Y252000I-2000J0D01*
G01*
X164000D02*
G03*
X164000Y252000I-2000J0D01*
G01*
X154000D02*
G03*
X154000Y252000I-2000J0D01*
G01*
X96000Y260000D02*
G03*
X96000Y260000I-2000J0D01*
G01*
X106000D02*
G03*
X106000Y260000I-2000J0D01*
G01*
X116000D02*
G03*
X116000Y260000I-2000J0D01*
G01*
X48992Y16945D02*
G03*
X48992Y16945I-2000J0D01*
G01*
Y35055D02*
G03*
X48992Y35055I-2000J0D01*
G01*
X23008Y16945D02*
G03*
X23008Y16945I-2000J0D01*
G01*
Y35055D02*
G03*
X23008Y35055I-2000J0D01*
G01*
X48992Y-19055D02*
G03*
X48992Y-19055I-2000J0D01*
G01*
Y-945D02*
G03*
X48992Y-945I-2000J0D01*
G01*
X23008Y-19055D02*
G03*
X23008Y-19055I-2000J0D01*
G01*
Y-945D02*
G03*
X23008Y-945I-2000J0D01*
G01*
X364000Y14000D02*
G03*
X364000Y14000I-2000J0D01*
G01*
X284000D02*
G03*
X284000Y14000I-2000J0D01*
G01*
M02*
